<ttFont>
    <TTGlyph name="A" xMin="6" yMin="0" xMax="688" yMax="706">
      <contour>
        <pt x="432" y="19" on="1"/>
        <pt x="359" y="235" on="1"/>
        <pt x="161" y="235" on="1"/>
        <pt x="84" y="19" on="1"/>
        <pt x="159" y="19" on="1"/>
        <pt x="159" y="0" on="1"/>
        <pt x="6" y="0" on="1"/>
        <pt x="6" y="19" on="1"/>
        <pt x="53" y="19" on="1"/>
        <pt x="308" y="706" on="1"/>
        <pt x="390" y="706" on="1"/>
        <pt x="642" y="19" on="1"/>
        <pt x="688" y="19" on="1"/>
        <pt x="688" y="0" on="1"/>
        <pt x="361" y="0" on="1"/>
        <pt x="361" y="19" on="1"/>
      </contour>
      <contour>
        <pt x="264" y="519" on="1"/>
        <pt x="170" y="257" on="1"/>
        <pt x="351" y="257" on="1"/>
      </contour>
    </TTGlyph>
    <TTGlyph name="AE" xMin="6" yMin="0" xMax="987" yMax="700">
      <contour>
        <pt x="376" y="678" on="1"/>
        <pt x="376" y="700" on="1"/>
        <pt x="950" y="700" on="1"/>
        <pt x="960" y="502" on="1"/>
        <pt x="942" y="502" on="1"/>
        <pt x="900" y="601" on="0"/>
        <pt x="811" y="678" on="0"/>
        <pt x="728" y="678" on="1"/>
        <pt x="684" y="678" on="1"/>
        <pt x="684" y="362" on="1"/>
        <pt x="718" y="362" on="1"/>
        <pt x="765" y="362" on="0"/>
        <pt x="829" y="433" on="0"/>
        <pt x="842" y="493" on="1"/>
        <pt x="857" y="493" on="1"/>
        <pt x="857" y="197" on="1"/>
        <pt x="840" y="197" on="1"/>
        <pt x="822" y="272" on="0"/>
        <pt x="761" y="336" on="0"/>
        <pt x="708" y="336" on="1"/>
        <pt x="684" y="336" on="1"/>
        <pt x="684" y="22" on="1"/>
        <pt x="722" y="22" on="1"/>
        <pt x="814" y="22" on="0"/>
        <pt x="943" y="132" on="0"/>
        <pt x="967" y="218" on="1"/>
        <pt x="987" y="218" on="1"/>
        <pt x="979" y="0" on="1"/>
        <pt x="430" y="0" on="1"/>
        <pt x="430" y="22" on="1"/>
        <pt x="489" y="22" on="1"/>
        <pt x="489" y="339" on="1"/>
        <pt x="279" y="339" on="1"/>
        <pt x="85" y="19" on="1"/>
        <pt x="160" y="19" on="1"/>
        <pt x="160" y="0" on="1"/>
        <pt x="6" y="0" on="1"/>
        <pt x="6" y="19" on="1"/>
        <pt x="53" y="19" on="1"/>
        <pt x="452" y="678" on="1"/>
      </contour>
      <contour>
        <pt x="483" y="678" on="1"/>
        <pt x="291" y="363" on="1"/>
        <pt x="489" y="363" on="1"/>
        <pt x="489" y="678" on="1"/>
      </contour>
    </TTGlyph>
    <TTGlyph name="AEacute" xMin="6" yMin="0" xMax="987" yMax="905">
      <contour>
        <pt x="376" y="678" on="1"/>
        <pt x="376" y="700" on="1"/>
        <pt x="950" y="700" on="1"/>
        <pt x="960" y="502" on="1"/>
        <pt x="942" y="502" on="1"/>
        <pt x="900" y="601" on="0"/>
        <pt x="811" y="678" on="0"/>
        <pt x="728" y="678" on="1"/>
        <pt x="684" y="678" on="1"/>
        <pt x="684" y="362" on="1"/>
        <pt x="718" y="362" on="1"/>
        <pt x="765" y="362" on="0"/>
        <pt x="829" y="433" on="0"/>
        <pt x="842" y="493" on="1"/>
        <pt x="857" y="493" on="1"/>
        <pt x="857" y="197" on="1"/>
        <pt x="840" y="197" on="1"/>
        <pt x="822" y="272" on="0"/>
        <pt x="761" y="336" on="0"/>
        <pt x="708" y="336" on="1"/>
        <pt x="684" y="336" on="1"/>
        <pt x="684" y="22" on="1"/>
        <pt x="722" y="22" on="1"/>
        <pt x="814" y="22" on="0"/>
        <pt x="943" y="132" on="0"/>
        <pt x="967" y="218" on="1"/>
        <pt x="987" y="218" on="1"/>
        <pt x="979" y="0" on="1"/>
        <pt x="430" y="0" on="1"/>
        <pt x="430" y="22" on="1"/>
        <pt x="489" y="22" on="1"/>
        <pt x="489" y="339" on="1"/>
        <pt x="279" y="339" on="1"/>
        <pt x="85" y="19" on="1"/>
        <pt x="160" y="19" on="1"/>
        <pt x="160" y="0" on="1"/>
        <pt x="6" y="0" on="1"/>
        <pt x="6" y="19" on="1"/>
        <pt x="53" y="19" on="1"/>
        <pt x="452" y="678" on="1"/>
      </contour>
      <contour>
        <pt x="483" y="678" on="1"/>
        <pt x="291" y="363" on="1"/>
        <pt x="489" y="363" on="1"/>
        <pt x="489" y="678" on="1"/>
      </contour>
      <contour>
        <pt x="605" y="743" on="1"/>
        <pt x="720" y="905" on="1"/>
        <pt x="768" y="901" on="1"/>
        <pt x="793" y="899" on="0"/>
        <pt x="816" y="873" on="0"/>
        <pt x="816" y="856" on="1"/>
        <pt x="816" y="816" on="0"/>
        <pt x="772" y="798" on="1"/>
        <pt x="613" y="733" on="1"/>
      </contour>
    </TTGlyph>
    <TTGlyph name="Aacute" xMin="6" yMin="0" xMax="688" yMax="905">
      <contour>
        <pt x="432" y="19" on="1"/>
        <pt x="359" y="235" on="1"/>
        <pt x="161" y="235" on="1"/>
        <pt x="84" y="19" on="1"/>
        <pt x="159" y="19" on="1"/>
        <pt x="159" y="0" on="1"/>
        <pt x="6" y="0" on="1"/>
        <pt x="6" y="19" on="1"/>
        <pt x="53" y="19" on="1"/>
        <pt x="308" y="706" on="1"/>
        <pt x="390" y="706" on="1"/>
        <pt x="642" y="19" on="1"/>
        <pt x="688" y="19" on="1"/>
        <pt x="688" y="0" on="1"/>
        <pt x="361" y="0" on="1"/>
        <pt x="361" y="19" on="1"/>
      </contour>
      <contour>
        <pt x="264" y="519" on="1"/>
        <pt x="170" y="257" on="1"/>
        <pt x="351" y="257" on="1"/>
      </contour>
      <contour>
        <pt x="261" y="743" on="1"/>
        <pt x="376" y="905" on="1"/>
        <pt x="424" y="901" on="1"/>
        <pt x="449" y="899" on="0"/>
        <pt x="472" y="873" on="0"/>
        <pt x="472" y="856" on="1"/>
        <pt x="472" y="816" on="0"/>
        <pt x="428" y="798" on="1"/>
        <pt x="269" y="733" on="1"/>
      </contour>
    </TTGlyph>
    <TTGlyph name="Abreve" xMin="6" yMin="0" xMax="688" yMax="921">
      <contour>
        <pt x="432" y="19" on="1"/>
        <pt x="359" y="235" on="1"/>
        <pt x="161" y="235" on="1"/>
        <pt x="84" y="19" on="1"/>
        <pt x="159" y="19" on="1"/>
        <pt x="159" y="0" on="1"/>
        <pt x="6" y="0" on="1"/>
        <pt x="6" y="19" on="1"/>
        <pt x="53" y="19" on="1"/>
        <pt x="308" y="706" on="1"/>
        <pt x="390" y="706" on="1"/>
        <pt x="642" y="19" on="1"/>
        <pt x="688" y="19" on="1"/>
        <pt x="688" y="0" on="1"/>
        <pt x="361" y="0" on="1"/>
        <pt x="361" y="19" on="1"/>
      </contour>
      <contour>
        <pt x="264" y="519" on="1"/>
        <pt x="170" y="257" on="1"/>
        <pt x="351" y="257" on="1"/>
      </contour>
      <contour>
        <pt x="207" y="918" on="1"/>
        <pt x="223" y="921" on="1"/>
        <pt x="237" y="881" on="0"/>
        <pt x="294" y="853" on="0"/>
        <pt x="409" y="853" on="0"/>
        <pt x="464" y="879" on="0"/>
        <pt x="476" y="921" on="1"/>
        <pt x="491" y="918" on="1"/>
        <pt x="473" y="746" on="0"/>
        <pt x="349" y="746" on="1"/>
        <pt x="274" y="746" on="0"/>
        <pt x="244" y="796" on="1"/>
        <pt x="216" y="841" on="0"/>
      </contour>
    </TTGlyph>
    <TTGlyph name="Acircumflex" xMin="6" yMin="0" xMax="688" yMax="907">
      <contour>
        <pt x="432" y="19" on="1"/>
        <pt x="359" y="235" on="1"/>
        <pt x="161" y="235" on="1"/>
        <pt x="84" y="19" on="1"/>
        <pt x="159" y="19" on="1"/>
        <pt x="159" y="0" on="1"/>
        <pt x="6" y="0" on="1"/>
        <pt x="6" y="19" on="1"/>
        <pt x="53" y="19" on="1"/>
        <pt x="308" y="706" on="1"/>
        <pt x="390" y="706" on="1"/>
        <pt x="642" y="19" on="1"/>
        <pt x="688" y="19" on="1"/>
        <pt x="688" y="0" on="1"/>
        <pt x="361" y="0" on="1"/>
        <pt x="361" y="19" on="1"/>
      </contour>
      <contour>
        <pt x="264" y="519" on="1"/>
        <pt x="170" y="257" on="1"/>
        <pt x="351" y="257" on="1"/>
      </contour>
      <contour>
        <pt x="197" y="743" on="1"/>
        <pt x="303" y="891" on="1"/>
        <pt x="331" y="907" on="0"/>
        <pt x="358" y="907" on="1"/>
        <pt x="405" y="907" on="0"/>
        <pt x="428" y="867" on="1"/>
        <pt x="502" y="743" on="1"/>
        <pt x="493" y="733" on="1"/>
        <pt x="351" y="801" on="1"/>
        <pt x="205" y="733" on="1"/>
      </contour>
    </TTGlyph>
    <TTGlyph name="Adieresis" xMin="6" yMin="0" xMax="688" yMax="894">
      <contour>
        <pt x="432" y="19" on="1"/>
        <pt x="359" y="235" on="1"/>
        <pt x="161" y="235" on="1"/>
        <pt x="84" y="19" on="1"/>
        <pt x="159" y="19" on="1"/>
        <pt x="159" y="0" on="1"/>
        <pt x="6" y="0" on="1"/>
        <pt x="6" y="19" on="1"/>
        <pt x="53" y="19" on="1"/>
        <pt x="308" y="706" on="1"/>
        <pt x="390" y="706" on="1"/>
        <pt x="642" y="19" on="1"/>
        <pt x="688" y="19" on="1"/>
        <pt x="688" y="0" on="1"/>
        <pt x="361" y="0" on="1"/>
        <pt x="361" y="19" on="1"/>
      </contour>
      <contour>
        <pt x="264" y="519" on="1"/>
        <pt x="170" y="257" on="1"/>
        <pt x="351" y="257" on="1"/>
      </contour>
      <contour>
        <pt x="371" y="790" on="0"/>
        <pt x="371" y="852" on="0"/>
        <pt x="410" y="894" on="0"/>
        <pt x="479" y="894" on="0"/>
        <pt x="520" y="857" on="0"/>
        <pt x="520" y="787" on="0"/>
        <pt x="481" y="746" on="0"/>
        <pt x="407" y="746" on="0"/>
      </contour>
      <contour>
        <pt x="178" y="790" on="0"/>
        <pt x="178" y="852" on="0"/>
        <pt x="217" y="894" on="0"/>
        <pt x="286" y="894" on="0"/>
        <pt x="327" y="857" on="0"/>
        <pt x="327" y="787" on="0"/>
        <pt x="288" y="746" on="0"/>
        <pt x="214" y="746" on="0"/>
      </contour>
    </TTGlyph>
    <TTGlyph name="Agrave" xMin="6" yMin="0" xMax="688" yMax="905">
      <contour>
        <pt x="432" y="19" on="1"/>
        <pt x="359" y="235" on="1"/>
        <pt x="161" y="235" on="1"/>
        <pt x="84" y="19" on="1"/>
        <pt x="159" y="19" on="1"/>
        <pt x="159" y="0" on="1"/>
        <pt x="6" y="0" on="1"/>
        <pt x="6" y="19" on="1"/>
        <pt x="53" y="19" on="1"/>
        <pt x="308" y="706" on="1"/>
        <pt x="390" y="706" on="1"/>
        <pt x="642" y="19" on="1"/>
        <pt x="688" y="19" on="1"/>
        <pt x="688" y="0" on="1"/>
        <pt x="361" y="0" on="1"/>
        <pt x="361" y="19" on="1"/>
      </contour>
      <contour>
        <pt x="264" y="519" on="1"/>
        <pt x="170" y="257" on="1"/>
        <pt x="351" y="257" on="1"/>
      </contour>
      <contour>
        <pt x="329" y="905" on="1"/>
        <pt x="444" y="743" on="1"/>
        <pt x="436" y="733" on="1"/>
        <pt x="277" y="798" on="1"/>
        <pt x="233" y="816" on="0"/>
        <pt x="233" y="856" on="1"/>
        <pt x="233" y="873" on="0"/>
        <pt x="256" y="899" on="0"/>
        <pt x="281" y="901" on="1"/>
      </contour>
    </TTGlyph>
    <TTGlyph name="Amacron" xMin="6" yMin="0" xMax="688" yMax="867">
      <contour>
        <pt x="432" y="19" on="1"/>
        <pt x="359" y="235" on="1"/>
        <pt x="161" y="235" on="1"/>
        <pt x="84" y="19" on="1"/>
        <pt x="159" y="19" on="1"/>
        <pt x="159" y="0" on="1"/>
        <pt x="6" y="0" on="1"/>
        <pt x="6" y="19" on="1"/>
        <pt x="53" y="19" on="1"/>
        <pt x="308" y="706" on="1"/>
        <pt x="390" y="706" on="1"/>
        <pt x="642" y="19" on="1"/>
        <pt x="688" y="19" on="1"/>
        <pt x="688" y="0" on="1"/>
        <pt x="361" y="0" on="1"/>
        <pt x="361" y="19" on="1"/>
      </contour>
      <contour>
        <pt x="264" y="519" on="1"/>
        <pt x="170" y="257" on="1"/>
        <pt x="351" y="257" on="1"/>
      </contour>
      <contour>
        <pt x="213" y="770" on="1"/>
        <pt x="213" y="867" on="1"/>
        <pt x="485" y="867" on="1"/>
        <pt x="485" y="770" on="1"/>
      </contour>
    </TTGlyph>
    <TTGlyph name="Aogonek" xMin="6" yMin="-251" xMax="688" yMax="706">
      <contour>
        <pt x="432" y="19" on="1"/>
        <pt x="359" y="235" on="1"/>
        <pt x="161" y="235" on="1"/>
        <pt x="84" y="19" on="1"/>
        <pt x="159" y="19" on="1"/>
        <pt x="159" y="0" on="1"/>
        <pt x="6" y="0" on="1"/>
        <pt x="6" y="19" on="1"/>
        <pt x="53" y="19" on="1"/>
        <pt x="308" y="706" on="1"/>
        <pt x="390" y="706" on="1"/>
        <pt x="642" y="19" on="1"/>
        <pt x="688" y="19" on="1"/>
        <pt x="688" y="0" on="1"/>
        <pt x="577" y="0" on="1"/>
        <pt x="515" y="-51" on="0"/>
        <pt x="515" y="-147" on="1"/>
        <pt x="515" y="-184" on="0"/>
        <pt x="529" y="-210" on="0"/>
        <pt x="573" y="-210" on="0"/>
        <pt x="602" y="-167" on="1"/>
        <pt x="615" y="-175" on="1"/>
        <pt x="601" y="-198" on="0"/>
        <pt x="577" y="-227" on="0"/>
        <pt x="527" y="-251" on="0"/>
        <pt x="451" y="-251" on="0"/>
        <pt x="395" y="-209" on="0"/>
        <pt x="395" y="-126" on="0"/>
        <pt x="439" y="-66" on="0"/>
        <pt x="505" y="-26" on="1"/>
        <pt x="547" y="0" on="1"/>
        <pt x="361" y="0" on="1"/>
        <pt x="361" y="19" on="1"/>
      </contour>
      <contour>
        <pt x="264" y="519" on="1"/>
        <pt x="170" y="257" on="1"/>
        <pt x="351" y="257" on="1"/>
      </contour>
    </TTGlyph>
    <TTGlyph name="Aring" xMin="6" yMin="0" xMax="688" yMax="918">
      <contour>
        <pt x="432" y="19" on="1"/>
        <pt x="359" y="235" on="1"/>
        <pt x="161" y="235" on="1"/>
        <pt x="84" y="19" on="1"/>
        <pt x="159" y="19" on="1"/>
        <pt x="159" y="0" on="1"/>
        <pt x="6" y="0" on="1"/>
        <pt x="6" y="19" on="1"/>
        <pt x="53" y="19" on="1"/>
        <pt x="308" y="706" on="1"/>
        <pt x="390" y="706" on="1"/>
        <pt x="642" y="19" on="1"/>
        <pt x="688" y="19" on="1"/>
        <pt x="688" y="0" on="1"/>
        <pt x="361" y="0" on="1"/>
        <pt x="361" y="19" on="1"/>
      </contour>
      <contour>
        <pt x="264" y="519" on="1"/>
        <pt x="170" y="257" on="1"/>
        <pt x="351" y="257" on="1"/>
      </contour>
      <contour>
        <pt x="277" y="823" on="1"/>
        <pt x="277" y="750" on="0"/>
        <pt x="349" y="750" on="1"/>
        <pt x="384" y="750" on="0"/>
        <pt x="420" y="791" on="0"/>
        <pt x="420" y="853" on="0"/>
        <pt x="384" y="894" on="0"/>
        <pt x="311" y="894" on="0"/>
        <pt x="277" y="853" on="0"/>
      </contour>
      <contour>
        <pt x="297" y="726" on="0"/>
        <pt x="247" y="778" on="0"/>
        <pt x="247" y="864" on="0"/>
        <pt x="300" y="918" on="0"/>
        <pt x="398" y="918" on="0"/>
        <pt x="449" y="867" on="0"/>
        <pt x="449" y="780" on="0"/>
        <pt x="396" y="726" on="0"/>
      </contour>
    </TTGlyph>
    <TTGlyph name="Aringacute" xMin="6" yMin="0" xMax="688" yMax="1058">
      <contour>
        <pt x="248" y="785" on="1"/>
        <pt x="248" y="826" on="0"/>
        <pt x="301" y="880" on="0"/>
        <pt x="399" y="880" on="0"/>
        <pt x="450" y="829" on="0"/>
        <pt x="450" y="787" on="1"/>
        <pt x="450" y="718" on="0"/>
        <pt x="393" y="696" on="1"/>
        <pt x="642" y="19" on="1"/>
        <pt x="688" y="19" on="1"/>
        <pt x="688" y="0" on="1"/>
        <pt x="361" y="0" on="1"/>
        <pt x="361" y="19" on="1"/>
        <pt x="432" y="19" on="1"/>
        <pt x="359" y="235" on="1"/>
        <pt x="161" y="235" on="1"/>
        <pt x="84" y="19" on="1"/>
        <pt x="159" y="19" on="1"/>
        <pt x="159" y="0" on="1"/>
        <pt x="6" y="0" on="1"/>
        <pt x="6" y="19" on="1"/>
        <pt x="53" y="19" on="1"/>
        <pt x="304" y="695" on="1"/>
        <pt x="248" y="715" on="0"/>
      </contour>
      <contour>
        <pt x="264" y="519" on="1"/>
        <pt x="170" y="257" on="1"/>
        <pt x="351" y="257" on="1"/>
      </contour>
      <contour>
        <pt x="277" y="896" on="1"/>
        <pt x="392" y="1058" on="1"/>
        <pt x="440" y="1054" on="1"/>
        <pt x="465" y="1052" on="0"/>
        <pt x="488" y="1026" on="0"/>
        <pt x="488" y="1009" on="1"/>
        <pt x="488" y="969" on="0"/>
        <pt x="444" y="951" on="1"/>
        <pt x="285" y="886" on="1"/>
      </contour>
      <contour>
        <pt x="278" y="785" on="1"/>
        <pt x="278" y="712" on="0"/>
        <pt x="350" y="712" on="1"/>
        <pt x="385" y="712" on="0"/>
        <pt x="421" y="753" on="0"/>
        <pt x="421" y="815" on="0"/>
        <pt x="385" y="856" on="0"/>
        <pt x="312" y="856" on="0"/>
        <pt x="278" y="815" on="0"/>
      </contour>
    </TTGlyph>
    <TTGlyph name="Atilde" xMin="6" yMin="0" xMax="688" yMax="895">
      <contour>
        <pt x="432" y="19" on="1"/>
        <pt x="359" y="235" on="1"/>
        <pt x="161" y="235" on="1"/>
        <pt x="84" y="19" on="1"/>
        <pt x="159" y="19" on="1"/>
        <pt x="159" y="0" on="1"/>
        <pt x="6" y="0" on="1"/>
        <pt x="6" y="19" on="1"/>
        <pt x="53" y="19" on="1"/>
        <pt x="308" y="706" on="1"/>
        <pt x="390" y="706" on="1"/>
        <pt x="642" y="19" on="1"/>
        <pt x="688" y="19" on="1"/>
        <pt x="688" y="0" on="1"/>
        <pt x="361" y="0" on="1"/>
        <pt x="361" y="19" on="1"/>
      </contour>
      <contour>
        <pt x="264" y="519" on="1"/>
        <pt x="170" y="257" on="1"/>
        <pt x="351" y="257" on="1"/>
      </contour>
      <contour>
        <pt x="502" y="812" on="0"/>
        <pt x="457" y="752" on="0"/>
        <pt x="391" y="752" on="0"/>
        <pt x="285" y="792" on="0"/>
        <pt x="266" y="792" on="1"/>
        <pt x="228" y="792" on="0"/>
        <pt x="211" y="751" on="1"/>
        <pt x="199" y="755" on="1"/>
        <pt x="222" y="827" on="0"/>
        <pt x="251" y="877" on="0"/>
        <pt x="283" y="893" on="0"/>
        <pt x="333" y="893" on="0"/>
        <pt x="434" y="853" on="0"/>
        <pt x="451" y="853" on="1"/>
        <pt x="495" y="853" on="0"/>
        <pt x="509" y="895" on="1"/>
        <pt x="522" y="891" on="1"/>
      </contour>
    </TTGlyph>
    <TTGlyph name="B" xMin="21" yMin="0" xMax="633" yMax="700">
      <contour>
        <pt x="21" y="700" on="1"/>
        <pt x="320" y="700" on="1"/>
        <pt x="459" y="700" on="0"/>
        <pt x="598" y="625" on="0"/>
        <pt x="598" y="536" on="1"/>
        <pt x="598" y="399" on="0"/>
        <pt x="433" y="372" on="1"/>
        <pt x="433" y="370" on="1"/>
        <pt x="633" y="345" on="0"/>
        <pt x="633" y="196" on="1"/>
        <pt x="633" y="87" on="0"/>
        <pt x="469" y="0" on="0"/>
        <pt x="315" y="0" on="1"/>
        <pt x="21" y="0" on="1"/>
        <pt x="21" y="19" on="1"/>
        <pt x="86" y="19" on="1"/>
        <pt x="86" y="681" on="1"/>
        <pt x="21" y="681" on="1"/>
      </contour>
      <contour>
        <pt x="281" y="354" on="1"/>
        <pt x="281" y="19" on="1"/>
        <pt x="328" y="19" on="1"/>
        <pt x="383" y="19" on="0"/>
        <pt x="427" y="95" on="0"/>
        <pt x="427" y="169" on="1"/>
        <pt x="427" y="222" on="1"/>
        <pt x="427" y="288" on="0"/>
        <pt x="373" y="354" on="0"/>
        <pt x="304" y="354" on="1"/>
      </contour>
      <contour>
        <pt x="281" y="681" on="1"/>
        <pt x="281" y="373" on="1"/>
        <pt x="307" y="373" on="1"/>
        <pt x="359" y="373" on="0"/>
        <pt x="400" y="436" on="0"/>
        <pt x="400" y="501" on="1"/>
        <pt x="400" y="548" on="1"/>
        <pt x="400" y="622" on="0"/>
        <pt x="364" y="681" on="0"/>
        <pt x="313" y="681" on="1"/>
      </contour>
    </TTGlyph>
    <TTGlyph name="C" xMin="41" yMin="-10" xMax="627" yMax="711">
      <contour>
        <pt x="400" y="691" on="1"/>
        <pt x="245" y="691" on="0"/>
        <pt x="245" y="392" on="1"/>
        <pt x="245" y="313" on="1"/>
        <pt x="245" y="171" on="0"/>
        <pt x="327" y="10" on="0"/>
        <pt x="407" y="10" on="1"/>
        <pt x="517" y="10" on="0"/>
        <pt x="609" y="224" on="1"/>
        <pt x="627" y="224" on="1"/>
        <pt x="620" y="1" on="1"/>
        <pt x="609" y="1" on="1"/>
        <pt x="603" y="12" on="0"/>
        <pt x="593" y="21" on="0"/>
        <pt x="574" y="21" on="0"/>
        <pt x="448" y="-10" on="0"/>
        <pt x="383" y="-10" on="1"/>
        <pt x="220" y="-10" on="0"/>
        <pt x="41" y="166" on="0"/>
        <pt x="41" y="519" on="0"/>
        <pt x="228" y="711" on="0"/>
        <pt x="386" y="711" on="1"/>
        <pt x="447" y="711" on="0"/>
        <pt x="564" y="680" on="0"/>
        <pt x="584" y="680" on="0"/>
        <pt x="594" y="689" on="0"/>
        <pt x="600" y="700" on="1"/>
        <pt x="611" y="700" on="1"/>
        <pt x="619" y="483" on="1"/>
        <pt x="601" y="483" on="1"/>
        <pt x="556" y="584" on="0"/>
        <pt x="461" y="691" on="0"/>
      </contour>
    </TTGlyph>
    <TTGlyph name="Cacute" xMin="41" yMin="-10" xMax="627" yMax="905">
      <contour>
        <pt x="400" y="691" on="1"/>
        <pt x="245" y="691" on="0"/>
        <pt x="245" y="392" on="1"/>
        <pt x="245" y="313" on="1"/>
        <pt x="245" y="171" on="0"/>
        <pt x="327" y="10" on="0"/>
        <pt x="407" y="10" on="1"/>
        <pt x="517" y="10" on="0"/>
        <pt x="609" y="224" on="1"/>
        <pt x="627" y="224" on="1"/>
        <pt x="620" y="1" on="1"/>
        <pt x="609" y="1" on="1"/>
        <pt x="603" y="12" on="0"/>
        <pt x="593" y="21" on="0"/>
        <pt x="574" y="21" on="0"/>
        <pt x="448" y="-10" on="0"/>
        <pt x="383" y="-10" on="1"/>
        <pt x="220" y="-10" on="0"/>
        <pt x="41" y="166" on="0"/>
        <pt x="41" y="519" on="0"/>
        <pt x="228" y="711" on="0"/>
        <pt x="386" y="711" on="1"/>
        <pt x="447" y="711" on="0"/>
        <pt x="564" y="680" on="0"/>
        <pt x="584" y="680" on="0"/>
        <pt x="594" y="689" on="0"/>
        <pt x="600" y="700" on="1"/>
        <pt x="611" y="700" on="1"/>
        <pt x="619" y="483" on="1"/>
        <pt x="601" y="483" on="1"/>
        <pt x="556" y="584" on="0"/>
        <pt x="461" y="691" on="0"/>
      </contour>
      <contour>
        <pt x="290" y="743" on="1"/>
        <pt x="405" y="905" on="1"/>
        <pt x="453" y="901" on="1"/>
        <pt x="478" y="899" on="0"/>
        <pt x="501" y="873" on="0"/>
        <pt x="501" y="856" on="1"/>
        <pt x="501" y="816" on="0"/>
        <pt x="457" y="798" on="1"/>
        <pt x="298" y="733" on="1"/>
      </contour>
    </TTGlyph>
    <TTGlyph name="Ccaron" xMin="41" yMin="-10" xMax="627" yMax="919">
      <contour>
        <pt x="400" y="691" on="1"/>
        <pt x="245" y="691" on="0"/>
        <pt x="245" y="392" on="1"/>
        <pt x="245" y="313" on="1"/>
        <pt x="245" y="171" on="0"/>
        <pt x="327" y="10" on="0"/>
        <pt x="407" y="10" on="1"/>
        <pt x="517" y="10" on="0"/>
        <pt x="609" y="224" on="1"/>
        <pt x="627" y="224" on="1"/>
        <pt x="620" y="1" on="1"/>
        <pt x="609" y="1" on="1"/>
        <pt x="603" y="12" on="0"/>
        <pt x="593" y="21" on="0"/>
        <pt x="574" y="21" on="0"/>
        <pt x="448" y="-10" on="0"/>
        <pt x="383" y="-10" on="1"/>
        <pt x="220" y="-10" on="0"/>
        <pt x="41" y="166" on="0"/>
        <pt x="41" y="519" on="0"/>
        <pt x="228" y="711" on="0"/>
        <pt x="386" y="711" on="1"/>
        <pt x="447" y="711" on="0"/>
        <pt x="564" y="680" on="0"/>
        <pt x="584" y="680" on="0"/>
        <pt x="594" y="689" on="0"/>
        <pt x="600" y="700" on="1"/>
        <pt x="611" y="700" on="1"/>
        <pt x="619" y="483" on="1"/>
        <pt x="601" y="483" on="1"/>
        <pt x="556" y="584" on="0"/>
        <pt x="461" y="691" on="0"/>
      </contour>
      <contour>
        <pt x="534" y="909" on="1"/>
        <pt x="428" y="761" on="1"/>
        <pt x="400" y="745" on="0"/>
        <pt x="373" y="745" on="1"/>
        <pt x="326" y="745" on="0"/>
        <pt x="303" y="785" on="1"/>
        <pt x="229" y="909" on="1"/>
        <pt x="238" y="919" on="1"/>
        <pt x="380" y="851" on="1"/>
        <pt x="526" y="919" on="1"/>
      </contour>
    </TTGlyph>
    <TTGlyph name="Ccedilla" xMin="41" yMin="-249" xMax="627" yMax="711">
      <contour>
        <pt x="400" y="691" on="1"/>
        <pt x="245" y="691" on="0"/>
        <pt x="245" y="392" on="1"/>
        <pt x="245" y="313" on="1"/>
        <pt x="245" y="171" on="0"/>
        <pt x="327" y="10" on="0"/>
        <pt x="407" y="10" on="1"/>
        <pt x="517" y="10" on="0"/>
        <pt x="609" y="224" on="1"/>
        <pt x="627" y="224" on="1"/>
        <pt x="620" y="1" on="1"/>
        <pt x="609" y="1" on="1"/>
        <pt x="603" y="12" on="0"/>
        <pt x="593" y="21" on="0"/>
        <pt x="572" y="21" on="0"/>
        <pt x="460" y="-7" on="0"/>
        <pt x="405" y="-9" on="1"/>
        <pt x="376" y="-59" on="1"/>
        <pt x="397" y="-56" on="0"/>
        <pt x="409" y="-56" on="1"/>
        <pt x="514" y="-56" on="0"/>
        <pt x="514" y="-145" on="1"/>
        <pt x="514" y="-186" on="0"/>
        <pt x="448" y="-249" on="0"/>
        <pt x="378" y="-249" on="1"/>
        <pt x="332" y="-249" on="0"/>
        <pt x="275" y="-212" on="0"/>
        <pt x="275" y="-162" on="0"/>
        <pt x="299" y="-138" on="0"/>
        <pt x="318" y="-138" on="1"/>
        <pt x="352" y="-138" on="0"/>
        <pt x="364" y="-176" on="1"/>
        <pt x="338" y="-196" on="1"/>
        <pt x="338" y="-210" on="0"/>
        <pt x="354" y="-233" on="0"/>
        <pt x="391" y="-233" on="0"/>
        <pt x="408" y="-198" on="0"/>
        <pt x="408" y="-125" on="0"/>
        <pt x="406" y="-110" on="1"/>
        <pt x="403" y="-74" on="0"/>
        <pt x="376" y="-74" on="1"/>
        <pt x="362" y="-74" on="0"/>
        <pt x="346" y="-78" on="1"/>
        <pt x="343" y="-69" on="1"/>
        <pt x="378" y="-10" on="1"/>
        <pt x="217" y="-8" on="0"/>
        <pt x="41" y="167" on="0"/>
        <pt x="41" y="519" on="0"/>
        <pt x="228" y="711" on="0"/>
        <pt x="386" y="711" on="1"/>
        <pt x="447" y="711" on="0"/>
        <pt x="564" y="680" on="0"/>
        <pt x="584" y="680" on="0"/>
        <pt x="594" y="689" on="0"/>
        <pt x="600" y="700" on="1"/>
        <pt x="611" y="700" on="1"/>
        <pt x="619" y="483" on="1"/>
        <pt x="601" y="483" on="1"/>
        <pt x="556" y="584" on="0"/>
        <pt x="461" y="691" on="0"/>
      </contour>
    </TTGlyph>
    <TTGlyph name="Ccircumflex" xMin="41" yMin="-10" xMax="627" yMax="907">
      <contour>
        <pt x="400" y="691" on="1"/>
        <pt x="245" y="691" on="0"/>
        <pt x="245" y="392" on="1"/>
        <pt x="245" y="313" on="1"/>
        <pt x="245" y="171" on="0"/>
        <pt x="327" y="10" on="0"/>
        <pt x="407" y="10" on="1"/>
        <pt x="517" y="10" on="0"/>
        <pt x="609" y="224" on="1"/>
        <pt x="627" y="224" on="1"/>
        <pt x="620" y="1" on="1"/>
        <pt x="609" y="1" on="1"/>
        <pt x="603" y="12" on="0"/>
        <pt x="593" y="21" on="0"/>
        <pt x="574" y="21" on="0"/>
        <pt x="448" y="-10" on="0"/>
        <pt x="383" y="-10" on="1"/>
        <pt x="220" y="-10" on="0"/>
        <pt x="41" y="166" on="0"/>
        <pt x="41" y="519" on="0"/>
        <pt x="228" y="711" on="0"/>
        <pt x="386" y="711" on="1"/>
        <pt x="447" y="711" on="0"/>
        <pt x="564" y="680" on="0"/>
        <pt x="584" y="680" on="0"/>
        <pt x="594" y="689" on="0"/>
        <pt x="600" y="700" on="1"/>
        <pt x="611" y="700" on="1"/>
        <pt x="619" y="483" on="1"/>
        <pt x="601" y="483" on="1"/>
        <pt x="556" y="584" on="0"/>
        <pt x="461" y="691" on="0"/>
      </contour>
      <contour>
        <pt x="226" y="743" on="1"/>
        <pt x="332" y="891" on="1"/>
        <pt x="360" y="907" on="0"/>
        <pt x="387" y="907" on="1"/>
        <pt x="434" y="907" on="0"/>
        <pt x="457" y="867" on="1"/>
        <pt x="531" y="743" on="1"/>
        <pt x="522" y="733" on="1"/>
        <pt x="380" y="801" on="1"/>
        <pt x="234" y="733" on="1"/>
      </contour>
    </TTGlyph>
    <TTGlyph name="Cdotaccent" xMin="41" yMin="-10" xMax="627" yMax="939">
      <contour>
        <pt x="400" y="691" on="1"/>
        <pt x="245" y="691" on="0"/>
        <pt x="245" y="392" on="1"/>
        <pt x="245" y="313" on="1"/>
        <pt x="245" y="171" on="0"/>
        <pt x="327" y="10" on="0"/>
        <pt x="407" y="10" on="1"/>
        <pt x="517" y="10" on="0"/>
        <pt x="609" y="224" on="1"/>
        <pt x="627" y="224" on="1"/>
        <pt x="620" y="1" on="1"/>
        <pt x="609" y="1" on="1"/>
        <pt x="603" y="12" on="0"/>
        <pt x="593" y="21" on="0"/>
        <pt x="574" y="21" on="0"/>
        <pt x="448" y="-10" on="0"/>
        <pt x="383" y="-10" on="1"/>
        <pt x="220" y="-10" on="0"/>
        <pt x="41" y="166" on="0"/>
        <pt x="41" y="519" on="0"/>
        <pt x="228" y="711" on="0"/>
        <pt x="386" y="711" on="1"/>
        <pt x="447" y="711" on="0"/>
        <pt x="564" y="680" on="0"/>
        <pt x="584" y="680" on="0"/>
        <pt x="594" y="689" on="0"/>
        <pt x="600" y="700" on="1"/>
        <pt x="611" y="700" on="1"/>
        <pt x="619" y="483" on="1"/>
        <pt x="601" y="483" on="1"/>
        <pt x="556" y="584" on="0"/>
        <pt x="461" y="691" on="0"/>
      </contour>
      <contour>
        <pt x="323" y="753" on="0"/>
        <pt x="278" y="807" on="0"/>
        <pt x="278" y="887" on="0"/>
        <pt x="327" y="939" on="0"/>
        <pt x="427" y="939" on="0"/>
        <pt x="479" y="892" on="0"/>
        <pt x="479" y="805" on="0"/>
        <pt x="429" y="753" on="0"/>
      </contour>
    </TTGlyph>
    <TTGlyph name="D" xMin="21" yMin="0" xMax="714" yMax="700">
      <contour>
        <pt x="714" y="362" on="1"/>
        <pt x="714" y="156" on="0"/>
        <pt x="598" y="75" on="1"/>
        <pt x="491" y="0" on="0"/>
        <pt x="304" y="0" on="1"/>
        <pt x="21" y="0" on="1"/>
        <pt x="21" y="19" on="1"/>
        <pt x="87" y="19" on="1"/>
        <pt x="87" y="681" on="1"/>
        <pt x="21" y="681" on="1"/>
        <pt x="21" y="700" on="1"/>
        <pt x="330" y="700" on="1"/>
        <pt x="522" y="700" on="0"/>
        <pt x="714" y="543" on="0"/>
      </contour>
      <contour>
        <pt x="282" y="19" on="1"/>
        <pt x="320" y="19" on="1"/>
        <pt x="421" y="19" on="0"/>
        <pt x="508" y="162" on="0"/>
        <pt x="508" y="330" on="1"/>
        <pt x="508" y="388" on="1"/>
        <pt x="508" y="613" on="0"/>
        <pt x="422" y="659" on="1"/>
        <pt x="381" y="681" on="0"/>
        <pt x="306" y="681" on="1"/>
        <pt x="282" y="681" on="1"/>
      </contour>
    </TTGlyph>
    <TTGlyph name="Dcaron" xMin="21" yMin="0" xMax="714" yMax="919">
      <contour>
        <pt x="714" y="362" on="1"/>
        <pt x="714" y="156" on="0"/>
        <pt x="598" y="75" on="1"/>
        <pt x="491" y="0" on="0"/>
        <pt x="304" y="0" on="1"/>
        <pt x="21" y="0" on="1"/>
        <pt x="21" y="19" on="1"/>
        <pt x="87" y="19" on="1"/>
        <pt x="87" y="681" on="1"/>
        <pt x="21" y="681" on="1"/>
        <pt x="21" y="700" on="1"/>
        <pt x="330" y="700" on="1"/>
        <pt x="522" y="700" on="0"/>
        <pt x="714" y="543" on="0"/>
      </contour>
      <contour>
        <pt x="282" y="19" on="1"/>
        <pt x="320" y="19" on="1"/>
        <pt x="421" y="19" on="0"/>
        <pt x="508" y="162" on="0"/>
        <pt x="508" y="330" on="1"/>
        <pt x="508" y="388" on="1"/>
        <pt x="508" y="613" on="0"/>
        <pt x="422" y="659" on="1"/>
        <pt x="381" y="681" on="0"/>
        <pt x="306" y="681" on="1"/>
        <pt x="282" y="681" on="1"/>
      </contour>
      <contour>
        <pt x="488" y="909" on="1"/>
        <pt x="382" y="761" on="1"/>
        <pt x="354" y="745" on="0"/>
        <pt x="327" y="745" on="1"/>
        <pt x="280" y="745" on="0"/>
        <pt x="257" y="785" on="1"/>
        <pt x="183" y="909" on="1"/>
        <pt x="192" y="919" on="1"/>
        <pt x="334" y="851" on="1"/>
        <pt x="480" y="919" on="1"/>
      </contour>
    </TTGlyph>
    <TTGlyph name="Dcroat" xMin="19" yMin="0" xMax="722" yMax="700">
      <contour>
        <pt x="19" y="359" on="1"/>
        <pt x="19" y="385" on="1"/>
        <pt x="95" y="385" on="1"/>
        <pt x="95" y="681" on="1"/>
        <pt x="29" y="681" on="1"/>
        <pt x="29" y="700" on="1"/>
        <pt x="338" y="700" on="1"/>
        <pt x="530" y="700" on="0"/>
        <pt x="722" y="543" on="0"/>
        <pt x="722" y="362" on="1"/>
        <pt x="722" y="156" on="0"/>
        <pt x="606" y="75" on="1"/>
        <pt x="499" y="0" on="0"/>
        <pt x="312" y="0" on="1"/>
        <pt x="29" y="0" on="1"/>
        <pt x="29" y="19" on="1"/>
        <pt x="95" y="19" on="1"/>
        <pt x="95" y="359" on="1"/>
      </contour>
      <contour>
        <pt x="290" y="19" on="1"/>
        <pt x="328" y="19" on="1"/>
        <pt x="429" y="19" on="0"/>
        <pt x="516" y="162" on="0"/>
        <pt x="516" y="330" on="1"/>
        <pt x="516" y="388" on="1"/>
        <pt x="516" y="613" on="0"/>
        <pt x="430" y="659" on="1"/>
        <pt x="389" y="681" on="0"/>
        <pt x="314" y="681" on="1"/>
        <pt x="290" y="681" on="1"/>
        <pt x="290" y="385" on="1"/>
        <pt x="419" y="385" on="1"/>
        <pt x="419" y="359" on="1"/>
        <pt x="290" y="359" on="1"/>
      </contour>
    </TTGlyph>
    <TTGlyph name="Delta" xMin="0" yMin="0" xMax="625" yMax="716">
      <contour>
        <pt x="625" y="0" on="1"/>
        <pt x="0" y="0" on="1"/>
        <pt x="283" y="716" on="1"/>
        <pt x="365" y="716" on="1"/>
      </contour>
      <contour>
        <pt x="239" y="529" on="1"/>
        <pt x="47" y="45" on="1"/>
        <pt x="398" y="45" on="1"/>
      </contour>
    </TTGlyph>
    <TTGlyph name="E" xMin="21" yMin="0" xMax="578" yMax="700">
      <contour>
        <pt x="21" y="700" on="1"/>
        <pt x="541" y="700" on="1"/>
        <pt x="551" y="502" on="1"/>
        <pt x="533" y="502" on="1"/>
        <pt x="491" y="603" on="0"/>
        <pt x="399" y="678" on="0"/>
        <pt x="310" y="678" on="1"/>
        <pt x="275" y="678" on="1"/>
        <pt x="275" y="369" on="1"/>
        <pt x="309" y="369" on="1"/>
        <pt x="356" y="369" on="0"/>
        <pt x="420" y="440" on="0"/>
        <pt x="433" y="500" on="1"/>
        <pt x="448" y="500" on="1"/>
        <pt x="448" y="204" on="1"/>
        <pt x="431" y="204" on="1"/>
        <pt x="413" y="279" on="0"/>
        <pt x="352" y="343" on="0"/>
        <pt x="299" y="343" on="1"/>
        <pt x="275" y="343" on="1"/>
        <pt x="275" y="22" on="1"/>
        <pt x="313" y="22" on="1"/>
        <pt x="405" y="22" on="0"/>
        <pt x="534" y="132" on="0"/>
        <pt x="558" y="218" on="1"/>
        <pt x="578" y="218" on="1"/>
        <pt x="570" y="0" on="1"/>
        <pt x="21" y="0" on="1"/>
        <pt x="21" y="22" on="1"/>
        <pt x="80" y="22" on="1"/>
        <pt x="80" y="678" on="1"/>
        <pt x="21" y="678" on="1"/>
      </contour>
    </TTGlyph>
    <TTGlyph name="Eacute" xMin="21" yMin="0" xMax="578" yMax="905">
      <contour>
        <pt x="21" y="700" on="1"/>
        <pt x="541" y="700" on="1"/>
        <pt x="551" y="502" on="1"/>
        <pt x="533" y="502" on="1"/>
        <pt x="491" y="603" on="0"/>
        <pt x="399" y="678" on="0"/>
        <pt x="310" y="678" on="1"/>
        <pt x="275" y="678" on="1"/>
        <pt x="275" y="369" on="1"/>
        <pt x="309" y="369" on="1"/>
        <pt x="356" y="369" on="0"/>
        <pt x="420" y="440" on="0"/>
        <pt x="433" y="500" on="1"/>
        <pt x="448" y="500" on="1"/>
        <pt x="448" y="204" on="1"/>
        <pt x="431" y="204" on="1"/>
        <pt x="413" y="279" on="0"/>
        <pt x="352" y="343" on="0"/>
        <pt x="299" y="343" on="1"/>
        <pt x="275" y="343" on="1"/>
        <pt x="275" y="22" on="1"/>
        <pt x="313" y="22" on="1"/>
        <pt x="405" y="22" on="0"/>
        <pt x="534" y="132" on="0"/>
        <pt x="558" y="218" on="1"/>
        <pt x="578" y="218" on="1"/>
        <pt x="570" y="0" on="1"/>
        <pt x="21" y="0" on="1"/>
        <pt x="21" y="22" on="1"/>
        <pt x="80" y="22" on="1"/>
        <pt x="80" y="678" on="1"/>
        <pt x="21" y="678" on="1"/>
      </contour>
      <contour>
        <pt x="207" y="743" on="1"/>
        <pt x="322" y="905" on="1"/>
        <pt x="370" y="901" on="1"/>
        <pt x="395" y="899" on="0"/>
        <pt x="418" y="873" on="0"/>
        <pt x="418" y="856" on="1"/>
        <pt x="418" y="816" on="0"/>
        <pt x="374" y="798" on="1"/>
        <pt x="215" y="733" on="1"/>
      </contour>
    </TTGlyph>
    <TTGlyph name="Ebreve" xMin="21" yMin="0" xMax="578" yMax="921">
      <contour>
        <pt x="21" y="700" on="1"/>
        <pt x="541" y="700" on="1"/>
        <pt x="551" y="502" on="1"/>
        <pt x="533" y="502" on="1"/>
        <pt x="491" y="603" on="0"/>
        <pt x="399" y="678" on="0"/>
        <pt x="310" y="678" on="1"/>
        <pt x="275" y="678" on="1"/>
        <pt x="275" y="369" on="1"/>
        <pt x="309" y="369" on="1"/>
        <pt x="356" y="369" on="0"/>
        <pt x="420" y="440" on="0"/>
        <pt x="433" y="500" on="1"/>
        <pt x="448" y="500" on="1"/>
        <pt x="448" y="204" on="1"/>
        <pt x="431" y="204" on="1"/>
        <pt x="413" y="279" on="0"/>
        <pt x="352" y="343" on="0"/>
        <pt x="299" y="343" on="1"/>
        <pt x="275" y="343" on="1"/>
        <pt x="275" y="22" on="1"/>
        <pt x="313" y="22" on="1"/>
        <pt x="405" y="22" on="0"/>
        <pt x="534" y="132" on="0"/>
        <pt x="558" y="218" on="1"/>
        <pt x="578" y="218" on="1"/>
        <pt x="570" y="0" on="1"/>
        <pt x="21" y="0" on="1"/>
        <pt x="21" y="22" on="1"/>
        <pt x="80" y="22" on="1"/>
        <pt x="80" y="678" on="1"/>
        <pt x="21" y="678" on="1"/>
      </contour>
      <contour>
        <pt x="157" y="918" on="1"/>
        <pt x="173" y="921" on="1"/>
        <pt x="187" y="881" on="0"/>
        <pt x="244" y="853" on="0"/>
        <pt x="359" y="853" on="0"/>
        <pt x="414" y="879" on="0"/>
        <pt x="426" y="921" on="1"/>
        <pt x="441" y="918" on="1"/>
        <pt x="423" y="746" on="0"/>
        <pt x="299" y="746" on="1"/>
        <pt x="224" y="746" on="0"/>
        <pt x="194" y="796" on="1"/>
        <pt x="166" y="841" on="0"/>
      </contour>
    </TTGlyph>
    <TTGlyph name="Ecaron" xMin="21" yMin="0" xMax="578" yMax="919">
      <contour>
        <pt x="21" y="700" on="1"/>
        <pt x="541" y="700" on="1"/>
        <pt x="551" y="502" on="1"/>
        <pt x="533" y="502" on="1"/>
        <pt x="491" y="603" on="0"/>
        <pt x="399" y="678" on="0"/>
        <pt x="310" y="678" on="1"/>
        <pt x="275" y="678" on="1"/>
        <pt x="275" y="369" on="1"/>
        <pt x="309" y="369" on="1"/>
        <pt x="356" y="369" on="0"/>
        <pt x="420" y="440" on="0"/>
        <pt x="433" y="500" on="1"/>
        <pt x="448" y="500" on="1"/>
        <pt x="448" y="204" on="1"/>
        <pt x="431" y="204" on="1"/>
        <pt x="413" y="279" on="0"/>
        <pt x="352" y="343" on="0"/>
        <pt x="299" y="343" on="1"/>
        <pt x="275" y="343" on="1"/>
        <pt x="275" y="22" on="1"/>
        <pt x="313" y="22" on="1"/>
        <pt x="405" y="22" on="0"/>
        <pt x="534" y="132" on="0"/>
        <pt x="558" y="218" on="1"/>
        <pt x="578" y="218" on="1"/>
        <pt x="570" y="0" on="1"/>
        <pt x="21" y="0" on="1"/>
        <pt x="21" y="22" on="1"/>
        <pt x="80" y="22" on="1"/>
        <pt x="80" y="678" on="1"/>
        <pt x="21" y="678" on="1"/>
      </contour>
      <contour>
        <pt x="451" y="909" on="1"/>
        <pt x="345" y="761" on="1"/>
        <pt x="317" y="745" on="0"/>
        <pt x="290" y="745" on="1"/>
        <pt x="243" y="745" on="0"/>
        <pt x="220" y="785" on="1"/>
        <pt x="146" y="909" on="1"/>
        <pt x="155" y="919" on="1"/>
        <pt x="297" y="851" on="1"/>
        <pt x="443" y="919" on="1"/>
      </contour>
    </TTGlyph>
    <TTGlyph name="Ecircumflex" xMin="21" yMin="0" xMax="578" yMax="907">
      <contour>
        <pt x="21" y="700" on="1"/>
        <pt x="541" y="700" on="1"/>
        <pt x="551" y="502" on="1"/>
        <pt x="533" y="502" on="1"/>
        <pt x="491" y="603" on="0"/>
        <pt x="399" y="678" on="0"/>
        <pt x="310" y="678" on="1"/>
        <pt x="275" y="678" on="1"/>
        <pt x="275" y="369" on="1"/>
        <pt x="309" y="369" on="1"/>
        <pt x="356" y="369" on="0"/>
        <pt x="420" y="440" on="0"/>
        <pt x="433" y="500" on="1"/>
        <pt x="448" y="500" on="1"/>
        <pt x="448" y="204" on="1"/>
        <pt x="431" y="204" on="1"/>
        <pt x="413" y="279" on="0"/>
        <pt x="352" y="343" on="0"/>
        <pt x="299" y="343" on="1"/>
        <pt x="275" y="343" on="1"/>
        <pt x="275" y="22" on="1"/>
        <pt x="313" y="22" on="1"/>
        <pt x="405" y="22" on="0"/>
        <pt x="534" y="132" on="0"/>
        <pt x="558" y="218" on="1"/>
        <pt x="578" y="218" on="1"/>
        <pt x="570" y="0" on="1"/>
        <pt x="21" y="0" on="1"/>
        <pt x="21" y="22" on="1"/>
        <pt x="80" y="22" on="1"/>
        <pt x="80" y="678" on="1"/>
        <pt x="21" y="678" on="1"/>
      </contour>
      <contour>
        <pt x="143" y="743" on="1"/>
        <pt x="249" y="891" on="1"/>
        <pt x="277" y="907" on="0"/>
        <pt x="304" y="907" on="1"/>
        <pt x="351" y="907" on="0"/>
        <pt x="374" y="867" on="1"/>
        <pt x="448" y="743" on="1"/>
        <pt x="439" y="733" on="1"/>
        <pt x="297" y="801" on="1"/>
        <pt x="151" y="733" on="1"/>
      </contour>
    </TTGlyph>
    <TTGlyph name="Edieresis" xMin="21" yMin="0" xMax="578" yMax="894">
      <contour>
        <pt x="21" y="700" on="1"/>
        <pt x="541" y="700" on="1"/>
        <pt x="551" y="502" on="1"/>
        <pt x="533" y="502" on="1"/>
        <pt x="491" y="603" on="0"/>
        <pt x="399" y="678" on="0"/>
        <pt x="310" y="678" on="1"/>
        <pt x="275" y="678" on="1"/>
        <pt x="275" y="369" on="1"/>
        <pt x="309" y="369" on="1"/>
        <pt x="356" y="369" on="0"/>
        <pt x="420" y="440" on="0"/>
        <pt x="433" y="500" on="1"/>
        <pt x="448" y="500" on="1"/>
        <pt x="448" y="204" on="1"/>
        <pt x="431" y="204" on="1"/>
        <pt x="413" y="279" on="0"/>
        <pt x="352" y="343" on="0"/>
        <pt x="299" y="343" on="1"/>
        <pt x="275" y="343" on="1"/>
        <pt x="275" y="22" on="1"/>
        <pt x="313" y="22" on="1"/>
        <pt x="405" y="22" on="0"/>
        <pt x="534" y="132" on="0"/>
        <pt x="558" y="218" on="1"/>
        <pt x="578" y="218" on="1"/>
        <pt x="570" y="0" on="1"/>
        <pt x="21" y="0" on="1"/>
        <pt x="21" y="22" on="1"/>
        <pt x="80" y="22" on="1"/>
        <pt x="80" y="678" on="1"/>
        <pt x="21" y="678" on="1"/>
      </contour>
      <contour>
        <pt x="317" y="790" on="0"/>
        <pt x="317" y="852" on="0"/>
        <pt x="356" y="894" on="0"/>
        <pt x="425" y="894" on="0"/>
        <pt x="466" y="857" on="0"/>
        <pt x="466" y="787" on="0"/>
        <pt x="427" y="746" on="0"/>
        <pt x="353" y="746" on="0"/>
      </contour>
      <contour>
        <pt x="124" y="790" on="0"/>
        <pt x="124" y="852" on="0"/>
        <pt x="163" y="894" on="0"/>
        <pt x="232" y="894" on="0"/>
        <pt x="273" y="857" on="0"/>
        <pt x="273" y="787" on="0"/>
        <pt x="234" y="746" on="0"/>
        <pt x="160" y="746" on="0"/>
      </contour>
    </TTGlyph>
    <TTGlyph name="Edotaccent" xMin="21" yMin="0" xMax="578" yMax="939">
      <contour>
        <pt x="21" y="700" on="1"/>
        <pt x="541" y="700" on="1"/>
        <pt x="551" y="502" on="1"/>
        <pt x="533" y="502" on="1"/>
        <pt x="491" y="603" on="0"/>
        <pt x="399" y="678" on="0"/>
        <pt x="310" y="678" on="1"/>
        <pt x="275" y="678" on="1"/>
        <pt x="275" y="369" on="1"/>
        <pt x="309" y="369" on="1"/>
        <pt x="356" y="369" on="0"/>
        <pt x="420" y="440" on="0"/>
        <pt x="433" y="500" on="1"/>
        <pt x="448" y="500" on="1"/>
        <pt x="448" y="204" on="1"/>
        <pt x="431" y="204" on="1"/>
        <pt x="413" y="279" on="0"/>
        <pt x="352" y="343" on="0"/>
        <pt x="299" y="343" on="1"/>
        <pt x="275" y="343" on="1"/>
        <pt x="275" y="22" on="1"/>
        <pt x="313" y="22" on="1"/>
        <pt x="405" y="22" on="0"/>
        <pt x="534" y="132" on="0"/>
        <pt x="558" y="218" on="1"/>
        <pt x="578" y="218" on="1"/>
        <pt x="570" y="0" on="1"/>
        <pt x="21" y="0" on="1"/>
        <pt x="21" y="22" on="1"/>
        <pt x="80" y="22" on="1"/>
        <pt x="80" y="678" on="1"/>
        <pt x="21" y="678" on="1"/>
      </contour>
      <contour>
        <pt x="245" y="753" on="0"/>
        <pt x="200" y="807" on="0"/>
        <pt x="200" y="887" on="0"/>
        <pt x="249" y="939" on="0"/>
        <pt x="349" y="939" on="0"/>
        <pt x="401" y="892" on="0"/>
        <pt x="401" y="805" on="0"/>
        <pt x="351" y="753" on="0"/>
      </contour>
    </TTGlyph>
    <TTGlyph name="Egrave" xMin="21" yMin="0" xMax="578" yMax="905">
      <contour>
        <pt x="21" y="700" on="1"/>
        <pt x="541" y="700" on="1"/>
        <pt x="551" y="502" on="1"/>
        <pt x="533" y="502" on="1"/>
        <pt x="491" y="603" on="0"/>
        <pt x="399" y="678" on="0"/>
        <pt x="310" y="678" on="1"/>
        <pt x="275" y="678" on="1"/>
        <pt x="275" y="369" on="1"/>
        <pt x="309" y="369" on="1"/>
        <pt x="356" y="369" on="0"/>
        <pt x="420" y="440" on="0"/>
        <pt x="433" y="500" on="1"/>
        <pt x="448" y="500" on="1"/>
        <pt x="448" y="204" on="1"/>
        <pt x="431" y="204" on="1"/>
        <pt x="413" y="279" on="0"/>
        <pt x="352" y="343" on="0"/>
        <pt x="299" y="343" on="1"/>
        <pt x="275" y="343" on="1"/>
        <pt x="275" y="22" on="1"/>
        <pt x="313" y="22" on="1"/>
        <pt x="405" y="22" on="0"/>
        <pt x="534" y="132" on="0"/>
        <pt x="558" y="218" on="1"/>
        <pt x="578" y="218" on="1"/>
        <pt x="570" y="0" on="1"/>
        <pt x="21" y="0" on="1"/>
        <pt x="21" y="22" on="1"/>
        <pt x="80" y="22" on="1"/>
        <pt x="80" y="678" on="1"/>
        <pt x="21" y="678" on="1"/>
      </contour>
      <contour>
        <pt x="275" y="905" on="1"/>
        <pt x="390" y="743" on="1"/>
        <pt x="382" y="733" on="1"/>
        <pt x="223" y="798" on="1"/>
        <pt x="179" y="816" on="0"/>
        <pt x="179" y="856" on="1"/>
        <pt x="179" y="873" on="0"/>
        <pt x="202" y="899" on="0"/>
        <pt x="227" y="901" on="1"/>
      </contour>
    </TTGlyph>
    <TTGlyph name="Emacron" xMin="21" yMin="0" xMax="578" yMax="867">
      <contour>
        <pt x="21" y="700" on="1"/>
        <pt x="541" y="700" on="1"/>
        <pt x="551" y="502" on="1"/>
        <pt x="533" y="502" on="1"/>
        <pt x="491" y="603" on="0"/>
        <pt x="399" y="678" on="0"/>
        <pt x="310" y="678" on="1"/>
        <pt x="275" y="678" on="1"/>
        <pt x="275" y="369" on="1"/>
        <pt x="309" y="369" on="1"/>
        <pt x="356" y="369" on="0"/>
        <pt x="420" y="440" on="0"/>
        <pt x="433" y="500" on="1"/>
        <pt x="448" y="500" on="1"/>
        <pt x="448" y="204" on="1"/>
        <pt x="431" y="204" on="1"/>
        <pt x="413" y="279" on="0"/>
        <pt x="352" y="343" on="0"/>
        <pt x="299" y="343" on="1"/>
        <pt x="275" y="343" on="1"/>
        <pt x="275" y="22" on="1"/>
        <pt x="313" y="22" on="1"/>
        <pt x="405" y="22" on="0"/>
        <pt x="534" y="132" on="0"/>
        <pt x="558" y="218" on="1"/>
        <pt x="578" y="218" on="1"/>
        <pt x="570" y="0" on="1"/>
        <pt x="21" y="0" on="1"/>
        <pt x="21" y="22" on="1"/>
        <pt x="80" y="22" on="1"/>
        <pt x="80" y="678" on="1"/>
        <pt x="21" y="678" on="1"/>
      </contour>
      <contour>
        <pt x="159" y="770" on="1"/>
        <pt x="159" y="867" on="1"/>
        <pt x="431" y="867" on="1"/>
        <pt x="431" y="770" on="1"/>
      </contour>
    </TTGlyph>
    <TTGlyph name="Eng" xMin="25" yMin="-217" xMax="645" yMax="700">
      <contour>
        <pt x="590" y="681" on="1"/>
        <pt x="590" y="41" on="1"/>
        <pt x="590" y="-94" on="0"/>
        <pt x="494" y="-217" on="0"/>
        <pt x="315" y="-217" on="0"/>
        <pt x="225" y="-155" on="0"/>
        <pt x="225" y="-99" on="1"/>
        <pt x="225" y="-57" on="0"/>
        <pt x="274" y="-7" on="0"/>
        <pt x="353" y="-7" on="0"/>
        <pt x="395" y="-50" on="0"/>
        <pt x="395" y="-106" on="0"/>
        <pt x="386" y="-138" on="1"/>
        <pt x="357" y="-138" on="1"/>
        <pt x="342" y="-164" on="0"/>
        <pt x="365" y="-199" on="0"/>
        <pt x="420" y="-199" on="0"/>
        <pt x="440" y="-135" on="0"/>
        <pt x="440" y="-31" on="1"/>
        <pt x="440" y="19" on="1"/>
        <pt x="107" y="647" on="1"/>
        <pt x="107" y="19" on="1"/>
        <pt x="162" y="19" on="1"/>
        <pt x="162" y="0" on="1"/>
        <pt x="25" y="0" on="1"/>
        <pt x="25" y="19" on="1"/>
        <pt x="80" y="19" on="1"/>
        <pt x="80" y="681" on="1"/>
        <pt x="25" y="681" on="1"/>
        <pt x="25" y="700" on="1"/>
        <pt x="301" y="700" on="1"/>
        <pt x="563" y="198" on="1"/>
        <pt x="563" y="681" on="1"/>
        <pt x="508" y="681" on="1"/>
        <pt x="508" y="700" on="1"/>
        <pt x="645" y="700" on="1"/>
        <pt x="645" y="681" on="1"/>
      </contour>
    </TTGlyph>
    <TTGlyph name="Eogonek" xMin="21" yMin="-251" xMax="578" yMax="700">
      <contour>
        <pt x="21" y="700" on="1"/>
        <pt x="541" y="700" on="1"/>
        <pt x="551" y="502" on="1"/>
        <pt x="533" y="502" on="1"/>
        <pt x="491" y="603" on="0"/>
        <pt x="399" y="678" on="0"/>
        <pt x="310" y="678" on="1"/>
        <pt x="275" y="678" on="1"/>
        <pt x="275" y="369" on="1"/>
        <pt x="309" y="369" on="1"/>
        <pt x="356" y="369" on="0"/>
        <pt x="420" y="440" on="0"/>
        <pt x="433" y="500" on="1"/>
        <pt x="448" y="500" on="1"/>
        <pt x="448" y="204" on="1"/>
        <pt x="431" y="204" on="1"/>
        <pt x="413" y="279" on="0"/>
        <pt x="352" y="343" on="0"/>
        <pt x="299" y="343" on="1"/>
        <pt x="275" y="343" on="1"/>
        <pt x="275" y="22" on="1"/>
        <pt x="313" y="22" on="1"/>
        <pt x="405" y="22" on="0"/>
        <pt x="534" y="132" on="0"/>
        <pt x="558" y="218" on="1"/>
        <pt x="578" y="218" on="1"/>
        <pt x="570" y="0" on="1"/>
        <pt x="501" y="0" on="1"/>
        <pt x="438" y="-51" on="0"/>
        <pt x="438" y="-147" on="1"/>
        <pt x="438" y="-184" on="0"/>
        <pt x="452" y="-210" on="0"/>
        <pt x="496" y="-210" on="0"/>
        <pt x="525" y="-167" on="1"/>
        <pt x="538" y="-175" on="1"/>
        <pt x="524" y="-198" on="0"/>
        <pt x="500" y="-227" on="0"/>
        <pt x="450" y="-251" on="0"/>
        <pt x="374" y="-251" on="0"/>
        <pt x="318" y="-209" on="0"/>
        <pt x="318" y="-126" on="0"/>
        <pt x="362" y="-66" on="0"/>
        <pt x="428" y="-26" on="1"/>
        <pt x="470" y="0" on="1"/>
        <pt x="21" y="0" on="1"/>
        <pt x="21" y="22" on="1"/>
        <pt x="80" y="22" on="1"/>
        <pt x="80" y="678" on="1"/>
        <pt x="21" y="678" on="1"/>
      </contour>
    </TTGlyph>
    <TTGlyph name="Eth" xMin="19" yMin="0" xMax="722" yMax="700">
      <contour>
        <pt x="19" y="359" on="1"/>
        <pt x="19" y="385" on="1"/>
        <pt x="95" y="385" on="1"/>
        <pt x="95" y="681" on="1"/>
        <pt x="29" y="681" on="1"/>
        <pt x="29" y="700" on="1"/>
        <pt x="338" y="700" on="1"/>
        <pt x="530" y="700" on="0"/>
        <pt x="722" y="543" on="0"/>
        <pt x="722" y="362" on="1"/>
        <pt x="722" y="156" on="0"/>
        <pt x="606" y="75" on="1"/>
        <pt x="499" y="0" on="0"/>
        <pt x="312" y="0" on="1"/>
        <pt x="29" y="0" on="1"/>
        <pt x="29" y="19" on="1"/>
        <pt x="95" y="19" on="1"/>
        <pt x="95" y="359" on="1"/>
      </contour>
      <contour>
        <pt x="290" y="19" on="1"/>
        <pt x="328" y="19" on="1"/>
        <pt x="429" y="19" on="0"/>
        <pt x="516" y="162" on="0"/>
        <pt x="516" y="330" on="1"/>
        <pt x="516" y="388" on="1"/>
        <pt x="516" y="613" on="0"/>
        <pt x="430" y="659" on="1"/>
        <pt x="389" y="681" on="0"/>
        <pt x="314" y="681" on="1"/>
        <pt x="290" y="681" on="1"/>
        <pt x="290" y="385" on="1"/>
        <pt x="419" y="385" on="1"/>
        <pt x="419" y="359" on="1"/>
        <pt x="290" y="359" on="1"/>
      </contour>
    </TTGlyph>
    <TTGlyph name="Euro" xMin="11" yMin="-10" xMax="585" yMax="711">
      <contour>
        <pt x="387" y="691" on="1"/>
        <pt x="324" y="691" on="0"/>
        <pt x="284" y="590" on="0"/>
        <pt x="282" y="427" on="1"/>
        <pt x="483" y="427" on="1"/>
        <pt x="477" y="399" on="1"/>
        <pt x="282" y="399" on="1"/>
        <pt x="282" y="319" on="1"/>
        <pt x="462" y="319" on="1"/>
        <pt x="456" y="291" on="1"/>
        <pt x="282" y="291" on="1"/>
        <pt x="283" y="131" on="0"/>
        <pt x="326" y="10" on="0"/>
        <pt x="391" y="10" on="1"/>
        <pt x="430" y="10" on="0"/>
        <pt x="471" y="41" on="0"/>
        <pt x="471" y="81" on="0"/>
        <pt x="466" y="92" on="1"/>
        <pt x="436" y="92" on="1"/>
        <pt x="429" y="113" on="0"/>
        <pt x="429" y="168" on="0"/>
        <pt x="474" y="207" on="0"/>
        <pt x="545" y="207" on="0"/>
        <pt x="585" y="160" on="0"/>
        <pt x="585" y="125" on="1"/>
        <pt x="585" y="68" on="0"/>
        <pt x="476" y="-10" on="0"/>
        <pt x="386" y="-10" on="1"/>
        <pt x="251" y="-10" on="0"/>
        <pt x="90" y="139" on="0"/>
        <pt x="79" y="291" on="1"/>
        <pt x="11" y="291" on="1"/>
        <pt x="17" y="319" on="1"/>
        <pt x="77" y="319" on="1"/>
        <pt x="77" y="340" on="1"/>
        <pt x="77" y="361" on="0"/>
        <pt x="79" y="399" on="1"/>
        <pt x="25" y="399" on="1"/>
        <pt x="31" y="427" on="1"/>
        <pt x="82" y="427" on="1"/>
        <pt x="101" y="567" on="0"/>
        <pt x="257" y="711" on="0"/>
        <pt x="378" y="711" on="1"/>
        <pt x="472" y="711" on="0"/>
        <pt x="580" y="634" on="0"/>
        <pt x="580" y="576" on="1"/>
        <pt x="580" y="541" on="0"/>
        <pt x="540" y="494" on="0"/>
        <pt x="469" y="494" on="0"/>
        <pt x="424" y="533" on="0"/>
        <pt x="424" y="582" on="0"/>
        <pt x="431" y="603" on="1"/>
        <pt x="460" y="603" on="1"/>
        <pt x="471" y="640" on="0"/>
        <pt x="424" y="691" on="0"/>
      </contour>
    </TTGlyph>
    <TTGlyph name="F" xMin="21" yMin="0" xMax="551" yMax="700">
      <contour>
        <pt x="21" y="700" on="1"/>
        <pt x="541" y="700" on="1"/>
        <pt x="551" y="492" on="1"/>
        <pt x="533" y="492" on="1"/>
        <pt x="496" y="600" on="0"/>
        <pt x="399" y="678" on="0"/>
        <pt x="303" y="678" on="1"/>
        <pt x="275" y="678" on="1"/>
        <pt x="275" y="353" on="1"/>
        <pt x="320" y="353" on="1"/>
        <pt x="368" y="353" on="0"/>
        <pt x="432" y="423" on="0"/>
        <pt x="444" y="484" on="1"/>
        <pt x="459" y="484" on="1"/>
        <pt x="459" y="188" on="1"/>
        <pt x="442" y="188" on="1"/>
        <pt x="426" y="263" on="0"/>
        <pt x="369" y="327" on="0"/>
        <pt x="320" y="327" on="1"/>
        <pt x="275" y="327" on="1"/>
        <pt x="275" y="22" on="1"/>
        <pt x="399" y="22" on="1"/>
        <pt x="399" y="0" on="1"/>
        <pt x="21" y="0" on="1"/>
        <pt x="21" y="22" on="1"/>
        <pt x="80" y="22" on="1"/>
        <pt x="80" y="678" on="1"/>
        <pt x="21" y="678" on="1"/>
      </contour>
    </TTGlyph>
    <TTGlyph name="G" xMin="41" yMin="-10" xMax="690" yMax="711">
      <contour>
        <pt x="390" y="10" on="1"/>
        <pt x="439" y="10" on="0"/>
        <pt x="466" y="46" on="0"/>
        <pt x="466" y="89" on="1"/>
        <pt x="466" y="283" on="1"/>
        <pt x="402" y="283" on="1"/>
        <pt x="402" y="305" on="1"/>
        <pt x="690" y="305" on="1"/>
        <pt x="690" y="283" on="1"/>
        <pt x="651" y="283" on="1"/>
        <pt x="651" y="1" on="1"/>
        <pt x="636" y="1" on="1"/>
        <pt x="618" y="26" on="0"/>
        <pt x="585" y="26" on="1"/>
        <pt x="571" y="26" on="0"/>
        <pt x="432" y="-10" on="0"/>
        <pt x="383" y="-10" on="1"/>
        <pt x="220" y="-10" on="0"/>
        <pt x="41" y="166" on="0"/>
        <pt x="41" y="519" on="0"/>
        <pt x="228" y="711" on="0"/>
        <pt x="386" y="711" on="1"/>
        <pt x="447" y="711" on="0"/>
        <pt x="570" y="680" on="0"/>
        <pt x="590" y="680" on="0"/>
        <pt x="600" y="689" on="0"/>
        <pt x="606" y="700" on="1"/>
        <pt x="617" y="700" on="1"/>
        <pt x="625" y="483" on="1"/>
        <pt x="607" y="483" on="1"/>
        <pt x="558" y="580" on="0"/>
        <pt x="459" y="691" on="0"/>
        <pt x="398" y="691" on="1"/>
        <pt x="245" y="691" on="0"/>
        <pt x="245" y="392" on="1"/>
        <pt x="245" y="313" on="1"/>
        <pt x="245" y="163" on="0"/>
        <pt x="320" y="10" on="0"/>
      </contour>
    </TTGlyph>
    <TTGlyph name="Gbreve" xMin="41" yMin="-10" xMax="690" yMax="921">
      <contour>
        <pt x="390" y="10" on="1"/>
        <pt x="439" y="10" on="0"/>
        <pt x="466" y="46" on="0"/>
        <pt x="466" y="89" on="1"/>
        <pt x="466" y="283" on="1"/>
        <pt x="402" y="283" on="1"/>
        <pt x="402" y="305" on="1"/>
        <pt x="690" y="305" on="1"/>
        <pt x="690" y="283" on="1"/>
        <pt x="651" y="283" on="1"/>
        <pt x="651" y="1" on="1"/>
        <pt x="636" y="1" on="1"/>
        <pt x="618" y="26" on="0"/>
        <pt x="585" y="26" on="1"/>
        <pt x="571" y="26" on="0"/>
        <pt x="432" y="-10" on="0"/>
        <pt x="383" y="-10" on="1"/>
        <pt x="220" y="-10" on="0"/>
        <pt x="41" y="166" on="0"/>
        <pt x="41" y="519" on="0"/>
        <pt x="228" y="711" on="0"/>
        <pt x="386" y="711" on="1"/>
        <pt x="447" y="711" on="0"/>
        <pt x="570" y="680" on="0"/>
        <pt x="590" y="680" on="0"/>
        <pt x="600" y="689" on="0"/>
        <pt x="606" y="700" on="1"/>
        <pt x="617" y="700" on="1"/>
        <pt x="625" y="483" on="1"/>
        <pt x="607" y="483" on="1"/>
        <pt x="558" y="580" on="0"/>
        <pt x="459" y="691" on="0"/>
        <pt x="398" y="691" on="1"/>
        <pt x="245" y="691" on="0"/>
        <pt x="245" y="392" on="1"/>
        <pt x="245" y="313" on="1"/>
        <pt x="245" y="163" on="0"/>
        <pt x="320" y="10" on="0"/>
      </contour>
      <contour>
        <pt x="237" y="918" on="1"/>
        <pt x="253" y="921" on="1"/>
        <pt x="267" y="881" on="0"/>
        <pt x="324" y="853" on="0"/>
        <pt x="439" y="853" on="0"/>
        <pt x="494" y="879" on="0"/>
        <pt x="506" y="921" on="1"/>
        <pt x="521" y="918" on="1"/>
        <pt x="503" y="746" on="0"/>
        <pt x="379" y="746" on="1"/>
        <pt x="304" y="746" on="0"/>
        <pt x="274" y="796" on="1"/>
        <pt x="246" y="841" on="0"/>
      </contour>
    </TTGlyph>
    <TTGlyph name="Gcircumflex" xMin="41" yMin="-10" xMax="690" yMax="907">
      <contour>
        <pt x="390" y="10" on="1"/>
        <pt x="439" y="10" on="0"/>
        <pt x="466" y="46" on="0"/>
        <pt x="466" y="89" on="1"/>
        <pt x="466" y="283" on="1"/>
        <pt x="402" y="283" on="1"/>
        <pt x="402" y="305" on="1"/>
        <pt x="690" y="305" on="1"/>
        <pt x="690" y="283" on="1"/>
        <pt x="651" y="283" on="1"/>
        <pt x="651" y="1" on="1"/>
        <pt x="636" y="1" on="1"/>
        <pt x="618" y="26" on="0"/>
        <pt x="585" y="26" on="1"/>
        <pt x="571" y="26" on="0"/>
        <pt x="432" y="-10" on="0"/>
        <pt x="383" y="-10" on="1"/>
        <pt x="220" y="-10" on="0"/>
        <pt x="41" y="166" on="0"/>
        <pt x="41" y="519" on="0"/>
        <pt x="228" y="711" on="0"/>
        <pt x="386" y="711" on="1"/>
        <pt x="447" y="711" on="0"/>
        <pt x="570" y="680" on="0"/>
        <pt x="590" y="680" on="0"/>
        <pt x="600" y="689" on="0"/>
        <pt x="606" y="700" on="1"/>
        <pt x="617" y="700" on="1"/>
        <pt x="625" y="483" on="1"/>
        <pt x="607" y="483" on="1"/>
        <pt x="558" y="580" on="0"/>
        <pt x="459" y="691" on="0"/>
        <pt x="398" y="691" on="1"/>
        <pt x="245" y="691" on="0"/>
        <pt x="245" y="392" on="1"/>
        <pt x="245" y="313" on="1"/>
        <pt x="245" y="163" on="0"/>
        <pt x="320" y="10" on="0"/>
      </contour>
      <contour>
        <pt x="227" y="743" on="1"/>
        <pt x="333" y="891" on="1"/>
        <pt x="361" y="907" on="0"/>
        <pt x="388" y="907" on="1"/>
        <pt x="435" y="907" on="0"/>
        <pt x="458" y="867" on="1"/>
        <pt x="532" y="743" on="1"/>
        <pt x="523" y="733" on="1"/>
        <pt x="381" y="801" on="1"/>
        <pt x="235" y="733" on="1"/>
      </contour>
    </TTGlyph>
    <TTGlyph name="Gcommaaccent" xMin="41" yMin="-290" xMax="690" yMax="711">
      <contour>
        <pt x="390" y="10" on="1"/>
        <pt x="439" y="10" on="0"/>
        <pt x="466" y="46" on="0"/>
        <pt x="466" y="89" on="1"/>
        <pt x="466" y="283" on="1"/>
        <pt x="402" y="283" on="1"/>
        <pt x="402" y="305" on="1"/>
        <pt x="690" y="305" on="1"/>
        <pt x="690" y="283" on="1"/>
        <pt x="651" y="283" on="1"/>
        <pt x="651" y="1" on="1"/>
        <pt x="636" y="1" on="1"/>
        <pt x="618" y="26" on="0"/>
        <pt x="585" y="26" on="1"/>
        <pt x="571" y="26" on="0"/>
        <pt x="432" y="-10" on="0"/>
        <pt x="383" y="-10" on="1"/>
        <pt x="220" y="-10" on="0"/>
        <pt x="41" y="166" on="0"/>
        <pt x="41" y="519" on="0"/>
        <pt x="228" y="711" on="0"/>
        <pt x="386" y="711" on="1"/>
        <pt x="447" y="711" on="0"/>
        <pt x="570" y="680" on="0"/>
        <pt x="590" y="680" on="0"/>
        <pt x="600" y="689" on="0"/>
        <pt x="606" y="700" on="1"/>
        <pt x="617" y="700" on="1"/>
        <pt x="625" y="483" on="1"/>
        <pt x="607" y="483" on="1"/>
        <pt x="558" y="580" on="0"/>
        <pt x="459" y="691" on="0"/>
        <pt x="398" y="691" on="1"/>
        <pt x="245" y="691" on="0"/>
        <pt x="245" y="392" on="1"/>
        <pt x="245" y="313" on="1"/>
        <pt x="245" y="163" on="0"/>
        <pt x="320" y="10" on="0"/>
      </contour>
      <contour>
        <pt x="351" y="-290" on="1"/>
        <pt x="340" y="-275" on="1"/>
        <pt x="403" y="-227" on="0"/>
        <pt x="403" y="-192" on="1"/>
        <pt x="403" y="-167" on="0"/>
        <pt x="385" y="-159" on="1"/>
        <pt x="354" y="-190" on="1"/>
        <pt x="305" y="-172" on="0"/>
        <pt x="305" y="-123" on="1"/>
        <pt x="305" y="-90" on="0"/>
        <pt x="344" y="-54" on="0"/>
        <pt x="413" y="-54" on="0"/>
        <pt x="453" y="-103" on="0"/>
        <pt x="453" y="-145" on="1"/>
        <pt x="453" y="-230" on="0"/>
      </contour>
    </TTGlyph>
    <TTGlyph name="Gdotaccent" xMin="41" yMin="-10" xMax="690" yMax="939">
      <contour>
        <pt x="390" y="10" on="1"/>
        <pt x="439" y="10" on="0"/>
        <pt x="466" y="46" on="0"/>
        <pt x="466" y="89" on="1"/>
        <pt x="466" y="283" on="1"/>
        <pt x="402" y="283" on="1"/>
        <pt x="402" y="305" on="1"/>
        <pt x="690" y="305" on="1"/>
        <pt x="690" y="283" on="1"/>
        <pt x="651" y="283" on="1"/>
        <pt x="651" y="1" on="1"/>
        <pt x="636" y="1" on="1"/>
        <pt x="618" y="26" on="0"/>
        <pt x="585" y="26" on="1"/>
        <pt x="571" y="26" on="0"/>
        <pt x="432" y="-10" on="0"/>
        <pt x="383" y="-10" on="1"/>
        <pt x="220" y="-10" on="0"/>
        <pt x="41" y="166" on="0"/>
        <pt x="41" y="519" on="0"/>
        <pt x="228" y="711" on="0"/>
        <pt x="386" y="711" on="1"/>
        <pt x="447" y="711" on="0"/>
        <pt x="570" y="680" on="0"/>
        <pt x="590" y="680" on="0"/>
        <pt x="600" y="689" on="0"/>
        <pt x="606" y="700" on="1"/>
        <pt x="617" y="700" on="1"/>
        <pt x="625" y="483" on="1"/>
        <pt x="607" y="483" on="1"/>
        <pt x="558" y="580" on="0"/>
        <pt x="459" y="691" on="0"/>
        <pt x="398" y="691" on="1"/>
        <pt x="245" y="691" on="0"/>
        <pt x="245" y="392" on="1"/>
        <pt x="245" y="313" on="1"/>
        <pt x="245" y="163" on="0"/>
        <pt x="320" y="10" on="0"/>
      </contour>
      <contour>
        <pt x="324" y="753" on="0"/>
        <pt x="279" y="807" on="0"/>
        <pt x="279" y="887" on="0"/>
        <pt x="328" y="939" on="0"/>
        <pt x="428" y="939" on="0"/>
        <pt x="480" y="892" on="0"/>
        <pt x="480" y="805" on="0"/>
        <pt x="430" y="753" on="0"/>
      </contour>
    </TTGlyph>
    <TTGlyph name="H" xMin="21" yMin="0" xMax="728" yMax="700">
      <contour>
        <pt x="21" y="700" on="1"/>
        <pt x="333" y="700" on="1"/>
        <pt x="333" y="681" on="1"/>
        <pt x="275" y="681" on="1"/>
        <pt x="275" y="371" on="1"/>
        <pt x="474" y="371" on="1"/>
        <pt x="474" y="681" on="1"/>
        <pt x="415" y="681" on="1"/>
        <pt x="415" y="700" on="1"/>
        <pt x="728" y="700" on="1"/>
        <pt x="728" y="681" on="1"/>
        <pt x="669" y="681" on="1"/>
        <pt x="669" y="19" on="1"/>
        <pt x="728" y="19" on="1"/>
        <pt x="728" y="0" on="1"/>
        <pt x="415" y="0" on="1"/>
        <pt x="415" y="19" on="1"/>
        <pt x="474" y="19" on="1"/>
        <pt x="474" y="345" on="1"/>
        <pt x="275" y="345" on="1"/>
        <pt x="275" y="19" on="1"/>
        <pt x="333" y="19" on="1"/>
        <pt x="333" y="0" on="1"/>
        <pt x="21" y="0" on="1"/>
        <pt x="21" y="19" on="1"/>
        <pt x="80" y="19" on="1"/>
        <pt x="80" y="681" on="1"/>
        <pt x="21" y="681" on="1"/>
      </contour>
    </TTGlyph>
    <TTGlyph name="Hbar" xMin="11" yMin="0" xMax="738" yMax="700">
      <contour>
        <pt x="21" y="700" on="1"/>
        <pt x="333" y="700" on="1"/>
        <pt x="333" y="681" on="1"/>
        <pt x="275" y="681" on="1"/>
        <pt x="275" y="534" on="1"/>
        <pt x="474" y="534" on="1"/>
        <pt x="474" y="681" on="1"/>
        <pt x="415" y="681" on="1"/>
        <pt x="415" y="700" on="1"/>
        <pt x="728" y="700" on="1"/>
        <pt x="728" y="681" on="1"/>
        <pt x="669" y="681" on="1"/>
        <pt x="669" y="534" on="1"/>
        <pt x="738" y="534" on="1"/>
        <pt x="738" y="508" on="1"/>
        <pt x="669" y="508" on="1"/>
        <pt x="669" y="19" on="1"/>
        <pt x="728" y="19" on="1"/>
        <pt x="728" y="0" on="1"/>
        <pt x="415" y="0" on="1"/>
        <pt x="415" y="19" on="1"/>
        <pt x="474" y="19" on="1"/>
        <pt x="474" y="345" on="1"/>
        <pt x="275" y="345" on="1"/>
        <pt x="275" y="19" on="1"/>
        <pt x="333" y="19" on="1"/>
        <pt x="333" y="0" on="1"/>
        <pt x="21" y="0" on="1"/>
        <pt x="21" y="19" on="1"/>
        <pt x="80" y="19" on="1"/>
        <pt x="80" y="508" on="1"/>
        <pt x="11" y="508" on="1"/>
        <pt x="11" y="534" on="1"/>
        <pt x="80" y="534" on="1"/>
        <pt x="80" y="681" on="1"/>
        <pt x="21" y="681" on="1"/>
      </contour>
      <contour>
        <pt x="275" y="371" on="1"/>
        <pt x="474" y="371" on="1"/>
        <pt x="474" y="508" on="1"/>
        <pt x="275" y="508" on="1"/>
      </contour>
    </TTGlyph>
    <TTGlyph name="Hcircumflex" xMin="21" yMin="0" xMax="728" yMax="907">
      <contour>
        <pt x="21" y="700" on="1"/>
        <pt x="333" y="700" on="1"/>
        <pt x="333" y="681" on="1"/>
        <pt x="275" y="681" on="1"/>
        <pt x="275" y="371" on="1"/>
        <pt x="474" y="371" on="1"/>
        <pt x="474" y="681" on="1"/>
        <pt x="415" y="681" on="1"/>
        <pt x="415" y="700" on="1"/>
        <pt x="728" y="700" on="1"/>
        <pt x="728" y="681" on="1"/>
        <pt x="669" y="681" on="1"/>
        <pt x="669" y="19" on="1"/>
        <pt x="728" y="19" on="1"/>
        <pt x="728" y="0" on="1"/>
        <pt x="415" y="0" on="1"/>
        <pt x="415" y="19" on="1"/>
        <pt x="474" y="19" on="1"/>
        <pt x="474" y="345" on="1"/>
        <pt x="275" y="345" on="1"/>
        <pt x="275" y="19" on="1"/>
        <pt x="333" y="19" on="1"/>
        <pt x="333" y="0" on="1"/>
        <pt x="21" y="0" on="1"/>
        <pt x="21" y="19" on="1"/>
        <pt x="80" y="19" on="1"/>
        <pt x="80" y="681" on="1"/>
        <pt x="21" y="681" on="1"/>
      </contour>
      <contour>
        <pt x="222" y="743" on="1"/>
        <pt x="328" y="891" on="1"/>
        <pt x="356" y="907" on="0"/>
        <pt x="383" y="907" on="1"/>
        <pt x="430" y="907" on="0"/>
        <pt x="453" y="867" on="1"/>
        <pt x="527" y="743" on="1"/>
        <pt x="518" y="733" on="1"/>
        <pt x="376" y="801" on="1"/>
        <pt x="230" y="733" on="1"/>
      </contour>
    </TTGlyph>
    <TTGlyph name="I" xMin="25" yMin="0" xMax="330" yMax="700">
      <contour>
        <pt x="25" y="700" on="1"/>
        <pt x="330" y="700" on="1"/>
        <pt x="330" y="681" on="1"/>
        <pt x="275" y="681" on="1"/>
        <pt x="275" y="19" on="1"/>
        <pt x="330" y="19" on="1"/>
        <pt x="330" y="0" on="1"/>
        <pt x="25" y="0" on="1"/>
        <pt x="25" y="19" on="1"/>
        <pt x="80" y="19" on="1"/>
        <pt x="80" y="681" on="1"/>
        <pt x="25" y="681" on="1"/>
      </contour>
    </TTGlyph>
    <TTGlyph name="IJ" xMin="25" yMin="-9" xMax="846" yMax="700">
      <contour>
        <pt x="25" y="700" on="1"/>
        <pt x="330" y="700" on="1"/>
        <pt x="330" y="681" on="1"/>
        <pt x="275" y="681" on="1"/>
        <pt x="275" y="19" on="1"/>
        <pt x="330" y="19" on="1"/>
        <pt x="330" y="0" on="1"/>
        <pt x="25" y="0" on="1"/>
        <pt x="25" y="19" on="1"/>
        <pt x="80" y="19" on="1"/>
        <pt x="80" y="681" on="1"/>
        <pt x="25" y="681" on="1"/>
      </contour>
      <contour>
        <pt x="521" y="700" on="1"/>
        <pt x="846" y="700" on="1"/>
        <pt x="846" y="681" on="1"/>
        <pt x="791" y="681" on="1"/>
        <pt x="791" y="249" on="1"/>
        <pt x="791" y="114" on="0"/>
        <pt x="669" y="-9" on="0"/>
        <pt x="547" y="-9" on="1"/>
        <pt x="466" y="-9" on="0"/>
        <pt x="371" y="53" on="0"/>
        <pt x="371" y="109" on="1"/>
        <pt x="371" y="152" on="0"/>
        <pt x="419" y="201" on="0"/>
        <pt x="502" y="201" on="0"/>
        <pt x="543" y="159" on="0"/>
        <pt x="543" y="100" on="0"/>
        <pt x="532" y="70" on="1"/>
        <pt x="493" y="70" on="1"/>
        <pt x="484" y="55" on="0"/>
        <pt x="484" y="28" on="0"/>
        <pt x="511" y="9" on="0"/>
        <pt x="533" y="9" on="1"/>
        <pt x="573" y="9" on="0"/>
        <pt x="596" y="72" on="0"/>
        <pt x="596" y="177" on="1"/>
        <pt x="596" y="681" on="1"/>
        <pt x="521" y="681" on="1"/>
      </contour>
    </TTGlyph>
    <TTGlyph name="Iacute" xMin="25" yMin="0" xMax="330" yMax="905">
      <contour>
        <pt x="25" y="700" on="1"/>
        <pt x="330" y="700" on="1"/>
        <pt x="330" y="681" on="1"/>
        <pt x="275" y="681" on="1"/>
        <pt x="275" y="19" on="1"/>
        <pt x="330" y="19" on="1"/>
        <pt x="330" y="0" on="1"/>
        <pt x="25" y="0" on="1"/>
        <pt x="25" y="19" on="1"/>
        <pt x="80" y="19" on="1"/>
        <pt x="80" y="681" on="1"/>
        <pt x="25" y="681" on="1"/>
      </contour>
      <contour>
        <pt x="89" y="743" on="1"/>
        <pt x="204" y="905" on="1"/>
        <pt x="252" y="901" on="1"/>
        <pt x="277" y="899" on="0"/>
        <pt x="300" y="873" on="0"/>
        <pt x="300" y="856" on="1"/>
        <pt x="300" y="816" on="0"/>
        <pt x="256" y="798" on="1"/>
        <pt x="97" y="733" on="1"/>
      </contour>
    </TTGlyph>
    <TTGlyph name="Ibreve" xMin="25" yMin="0" xMax="330" yMax="921">
      <contour>
        <pt x="25" y="700" on="1"/>
        <pt x="330" y="700" on="1"/>
        <pt x="330" y="681" on="1"/>
        <pt x="275" y="681" on="1"/>
        <pt x="275" y="19" on="1"/>
        <pt x="330" y="19" on="1"/>
        <pt x="330" y="0" on="1"/>
        <pt x="25" y="0" on="1"/>
        <pt x="25" y="19" on="1"/>
        <pt x="80" y="19" on="1"/>
        <pt x="80" y="681" on="1"/>
        <pt x="25" y="681" on="1"/>
      </contour>
      <contour>
        <pt x="35" y="918" on="1"/>
        <pt x="51" y="921" on="1"/>
        <pt x="65" y="881" on="0"/>
        <pt x="122" y="853" on="0"/>
        <pt x="237" y="853" on="0"/>
        <pt x="292" y="879" on="0"/>
        <pt x="304" y="921" on="1"/>
        <pt x="319" y="918" on="1"/>
        <pt x="301" y="746" on="0"/>
        <pt x="177" y="746" on="1"/>
        <pt x="102" y="746" on="0"/>
        <pt x="72" y="796" on="1"/>
        <pt x="44" y="841" on="0"/>
      </contour>
    </TTGlyph>
    <TTGlyph name="Icircumflex" xMin="25" yMin="0" xMax="330" yMax="907">
      <contour>
        <pt x="25" y="700" on="1"/>
        <pt x="330" y="700" on="1"/>
        <pt x="330" y="681" on="1"/>
        <pt x="275" y="681" on="1"/>
        <pt x="275" y="19" on="1"/>
        <pt x="330" y="19" on="1"/>
        <pt x="330" y="0" on="1"/>
        <pt x="25" y="0" on="1"/>
        <pt x="25" y="19" on="1"/>
        <pt x="80" y="19" on="1"/>
        <pt x="80" y="681" on="1"/>
        <pt x="25" y="681" on="1"/>
      </contour>
      <contour>
        <pt x="25" y="743" on="1"/>
        <pt x="131" y="891" on="1"/>
        <pt x="159" y="907" on="0"/>
        <pt x="186" y="907" on="1"/>
        <pt x="233" y="907" on="0"/>
        <pt x="256" y="867" on="1"/>
        <pt x="330" y="743" on="1"/>
        <pt x="321" y="733" on="1"/>
        <pt x="179" y="801" on="1"/>
        <pt x="33" y="733" on="1"/>
      </contour>
    </TTGlyph>
    <TTGlyph name="Idieresis" xMin="6" yMin="0" xMax="348" yMax="894">
      <contour>
        <pt x="25" y="700" on="1"/>
        <pt x="330" y="700" on="1"/>
        <pt x="330" y="681" on="1"/>
        <pt x="275" y="681" on="1"/>
        <pt x="275" y="19" on="1"/>
        <pt x="330" y="19" on="1"/>
        <pt x="330" y="0" on="1"/>
        <pt x="25" y="0" on="1"/>
        <pt x="25" y="19" on="1"/>
        <pt x="80" y="19" on="1"/>
        <pt x="80" y="681" on="1"/>
        <pt x="25" y="681" on="1"/>
      </contour>
      <contour>
        <pt x="199" y="790" on="0"/>
        <pt x="199" y="852" on="0"/>
        <pt x="238" y="894" on="0"/>
        <pt x="307" y="894" on="0"/>
        <pt x="348" y="857" on="0"/>
        <pt x="348" y="787" on="0"/>
        <pt x="309" y="746" on="0"/>
        <pt x="235" y="746" on="0"/>
      </contour>
      <contour>
        <pt x="6" y="790" on="0"/>
        <pt x="6" y="852" on="0"/>
        <pt x="45" y="894" on="0"/>
        <pt x="114" y="894" on="0"/>
        <pt x="155" y="857" on="0"/>
        <pt x="155" y="787" on="0"/>
        <pt x="116" y="746" on="0"/>
        <pt x="42" y="746" on="0"/>
      </contour>
    </TTGlyph>
    <TTGlyph name="Idotaccent" xMin="25" yMin="0" xMax="330" yMax="939">
      <contour>
        <pt x="25" y="700" on="1"/>
        <pt x="330" y="700" on="1"/>
        <pt x="330" y="681" on="1"/>
        <pt x="275" y="681" on="1"/>
        <pt x="275" y="19" on="1"/>
        <pt x="330" y="19" on="1"/>
        <pt x="330" y="0" on="1"/>
        <pt x="25" y="0" on="1"/>
        <pt x="25" y="19" on="1"/>
        <pt x="80" y="19" on="1"/>
        <pt x="80" y="681" on="1"/>
        <pt x="25" y="681" on="1"/>
      </contour>
      <contour>
        <pt x="122" y="753" on="0"/>
        <pt x="77" y="807" on="0"/>
        <pt x="77" y="887" on="0"/>
        <pt x="126" y="939" on="0"/>
        <pt x="226" y="939" on="0"/>
        <pt x="278" y="892" on="0"/>
        <pt x="278" y="805" on="0"/>
        <pt x="228" y="753" on="0"/>
      </contour>
    </TTGlyph>
    <TTGlyph name="Igrave" xMin="25" yMin="0" xMax="330" yMax="905">
      <contour>
        <pt x="25" y="700" on="1"/>
        <pt x="330" y="700" on="1"/>
        <pt x="330" y="681" on="1"/>
        <pt x="275" y="681" on="1"/>
        <pt x="275" y="19" on="1"/>
        <pt x="330" y="19" on="1"/>
        <pt x="330" y="0" on="1"/>
        <pt x="25" y="0" on="1"/>
        <pt x="25" y="19" on="1"/>
        <pt x="80" y="19" on="1"/>
        <pt x="80" y="681" on="1"/>
        <pt x="25" y="681" on="1"/>
      </contour>
      <contour>
        <pt x="157" y="905" on="1"/>
        <pt x="272" y="743" on="1"/>
        <pt x="264" y="733" on="1"/>
        <pt x="105" y="798" on="1"/>
        <pt x="61" y="816" on="0"/>
        <pt x="61" y="856" on="1"/>
        <pt x="61" y="873" on="0"/>
        <pt x="84" y="899" on="0"/>
        <pt x="109" y="901" on="1"/>
      </contour>
    </TTGlyph>
    <TTGlyph name="Imacron" xMin="25" yMin="0" xMax="330" yMax="867">
      <contour>
        <pt x="25" y="700" on="1"/>
        <pt x="330" y="700" on="1"/>
        <pt x="330" y="681" on="1"/>
        <pt x="275" y="681" on="1"/>
        <pt x="275" y="19" on="1"/>
        <pt x="330" y="19" on="1"/>
        <pt x="330" y="0" on="1"/>
        <pt x="25" y="0" on="1"/>
        <pt x="25" y="19" on="1"/>
        <pt x="80" y="19" on="1"/>
        <pt x="80" y="681" on="1"/>
        <pt x="25" y="681" on="1"/>
      </contour>
      <contour>
        <pt x="41" y="770" on="1"/>
        <pt x="41" y="867" on="1"/>
        <pt x="313" y="867" on="1"/>
        <pt x="313" y="770" on="1"/>
      </contour>
    </TTGlyph>
    <TTGlyph name="Iogonek" xMin="25" yMin="-251" xMax="330" yMax="700">
      <contour>
        <pt x="25" y="700" on="1"/>
        <pt x="330" y="700" on="1"/>
        <pt x="330" y="681" on="1"/>
        <pt x="275" y="681" on="1"/>
        <pt x="275" y="19" on="1"/>
        <pt x="330" y="19" on="1"/>
        <pt x="330" y="0" on="1"/>
        <pt x="227" y="0" on="1"/>
        <pt x="165" y="-51" on="0"/>
        <pt x="165" y="-147" on="1"/>
        <pt x="165" y="-184" on="0"/>
        <pt x="179" y="-210" on="0"/>
        <pt x="223" y="-210" on="0"/>
        <pt x="252" y="-167" on="1"/>
        <pt x="265" y="-175" on="1"/>
        <pt x="251" y="-198" on="0"/>
        <pt x="227" y="-227" on="0"/>
        <pt x="177" y="-251" on="0"/>
        <pt x="101" y="-251" on="0"/>
        <pt x="45" y="-209" on="0"/>
        <pt x="45" y="-126" on="0"/>
        <pt x="89" y="-66" on="0"/>
        <pt x="155" y="-26" on="1"/>
        <pt x="197" y="0" on="1"/>
        <pt x="25" y="0" on="1"/>
        <pt x="25" y="19" on="1"/>
        <pt x="80" y="19" on="1"/>
        <pt x="80" y="681" on="1"/>
        <pt x="25" y="681" on="1"/>
      </contour>
    </TTGlyph>
    <TTGlyph name="Itilde" xMin="25" yMin="0" xMax="350" yMax="895">
      <contour>
        <pt x="25" y="700" on="1"/>
        <pt x="330" y="700" on="1"/>
        <pt x="330" y="681" on="1"/>
        <pt x="275" y="681" on="1"/>
        <pt x="275" y="19" on="1"/>
        <pt x="330" y="19" on="1"/>
        <pt x="330" y="0" on="1"/>
        <pt x="25" y="0" on="1"/>
        <pt x="25" y="19" on="1"/>
        <pt x="80" y="19" on="1"/>
        <pt x="80" y="681" on="1"/>
        <pt x="25" y="681" on="1"/>
      </contour>
      <contour>
        <pt x="330" y="812" on="0"/>
        <pt x="285" y="752" on="0"/>
        <pt x="219" y="752" on="0"/>
        <pt x="113" y="792" on="0"/>
        <pt x="94" y="792" on="1"/>
        <pt x="56" y="792" on="0"/>
        <pt x="39" y="751" on="1"/>
        <pt x="27" y="755" on="1"/>
        <pt x="50" y="827" on="0"/>
        <pt x="79" y="877" on="0"/>
        <pt x="111" y="893" on="0"/>
        <pt x="161" y="893" on="0"/>
        <pt x="262" y="853" on="0"/>
        <pt x="279" y="853" on="1"/>
        <pt x="323" y="853" on="0"/>
        <pt x="337" y="895" on="1"/>
        <pt x="350" y="891" on="1"/>
      </contour>
    </TTGlyph>
    <TTGlyph name="J" xMin="26" yMin="-9" xMax="501" yMax="700">
      <contour>
        <pt x="176" y="700" on="1"/>
        <pt x="501" y="700" on="1"/>
        <pt x="501" y="681" on="1"/>
        <pt x="446" y="681" on="1"/>
        <pt x="446" y="249" on="1"/>
        <pt x="446" y="114" on="0"/>
        <pt x="324" y="-9" on="0"/>
        <pt x="202" y="-9" on="1"/>
        <pt x="121" y="-9" on="0"/>
        <pt x="26" y="53" on="0"/>
        <pt x="26" y="109" on="1"/>
        <pt x="26" y="152" on="0"/>
        <pt x="74" y="201" on="0"/>
        <pt x="157" y="201" on="0"/>
        <pt x="198" y="159" on="0"/>
        <pt x="198" y="100" on="0"/>
        <pt x="187" y="70" on="1"/>
        <pt x="148" y="70" on="1"/>
        <pt x="139" y="55" on="0"/>
        <pt x="139" y="28" on="0"/>
        <pt x="166" y="9" on="0"/>
        <pt x="188" y="9" on="1"/>
        <pt x="228" y="9" on="0"/>
        <pt x="251" y="72" on="0"/>
        <pt x="251" y="177" on="1"/>
        <pt x="251" y="681" on="1"/>
        <pt x="176" y="681" on="1"/>
      </contour>
    </TTGlyph>
    <TTGlyph name="Jcircumflex" xMin="16" yMin="-9" xMax="491" yMax="907">
      <contour>
        <pt x="166" y="700" on="1"/>
        <pt x="491" y="700" on="1"/>
        <pt x="491" y="681" on="1"/>
        <pt x="436" y="681" on="1"/>
        <pt x="436" y="249" on="1"/>
        <pt x="436" y="114" on="0"/>
        <pt x="314" y="-9" on="0"/>
        <pt x="192" y="-9" on="1"/>
        <pt x="111" y="-9" on="0"/>
        <pt x="16" y="53" on="0"/>
        <pt x="16" y="109" on="1"/>
        <pt x="16" y="152" on="0"/>
        <pt x="64" y="201" on="0"/>
        <pt x="147" y="201" on="0"/>
        <pt x="188" y="159" on="0"/>
        <pt x="188" y="100" on="0"/>
        <pt x="177" y="70" on="1"/>
        <pt x="138" y="70" on="1"/>
        <pt x="129" y="55" on="0"/>
        <pt x="129" y="28" on="0"/>
        <pt x="156" y="9" on="0"/>
        <pt x="178" y="9" on="1"/>
        <pt x="218" y="9" on="0"/>
        <pt x="241" y="72" on="0"/>
        <pt x="241" y="177" on="1"/>
        <pt x="241" y="681" on="1"/>
        <pt x="166" y="681" on="1"/>
      </contour>
      <contour>
        <pt x="173" y="743" on="1"/>
        <pt x="279" y="891" on="1"/>
        <pt x="307" y="907" on="0"/>
        <pt x="334" y="907" on="1"/>
        <pt x="381" y="907" on="0"/>
        <pt x="404" y="867" on="1"/>
        <pt x="478" y="743" on="1"/>
        <pt x="469" y="733" on="1"/>
        <pt x="327" y="801" on="1"/>
        <pt x="181" y="733" on="1"/>
      </contour>
    </TTGlyph>
    <TTGlyph name="K" xMin="25" yMin="0" xMax="723" yMax="700">
      <contour>
        <pt x="25" y="700" on="1"/>
        <pt x="330" y="700" on="1"/>
        <pt x="330" y="681" on="1"/>
        <pt x="275" y="681" on="1"/>
        <pt x="275" y="365" on="1"/>
        <pt x="283" y="367" on="1"/>
        <pt x="565" y="681" on="1"/>
        <pt x="486" y="681" on="1"/>
        <pt x="486" y="700" on="1"/>
        <pt x="661" y="700" on="1"/>
        <pt x="661" y="681" on="1"/>
        <pt x="601" y="681" on="1"/>
        <pt x="429" y="489" on="1"/>
        <pt x="669" y="19" on="1"/>
        <pt x="723" y="19" on="1"/>
        <pt x="723" y="0" on="1"/>
        <pt x="402" y="0" on="1"/>
        <pt x="402" y="19" on="1"/>
        <pt x="449" y="19" on="1"/>
        <pt x="284" y="338" on="1"/>
        <pt x="275" y="336" on="1"/>
        <pt x="275" y="19" on="1"/>
        <pt x="330" y="19" on="1"/>
        <pt x="330" y="0" on="1"/>
        <pt x="25" y="0" on="1"/>
        <pt x="25" y="19" on="1"/>
        <pt x="80" y="19" on="1"/>
        <pt x="80" y="681" on="1"/>
        <pt x="25" y="681" on="1"/>
      </contour>
    </TTGlyph>
    <TTGlyph name="Kcommaaccent" xMin="25" yMin="-290" xMax="723" yMax="700">
      <contour>
        <pt x="25" y="700" on="1"/>
        <pt x="330" y="700" on="1"/>
        <pt x="330" y="681" on="1"/>
        <pt x="275" y="681" on="1"/>
        <pt x="275" y="365" on="1"/>
        <pt x="283" y="367" on="1"/>
        <pt x="565" y="681" on="1"/>
        <pt x="486" y="681" on="1"/>
        <pt x="486" y="700" on="1"/>
        <pt x="661" y="700" on="1"/>
        <pt x="661" y="681" on="1"/>
        <pt x="601" y="681" on="1"/>
        <pt x="429" y="489" on="1"/>
        <pt x="669" y="19" on="1"/>
        <pt x="723" y="19" on="1"/>
        <pt x="723" y="0" on="1"/>
        <pt x="402" y="0" on="1"/>
        <pt x="402" y="19" on="1"/>
        <pt x="449" y="19" on="1"/>
        <pt x="284" y="338" on="1"/>
        <pt x="275" y="336" on="1"/>
        <pt x="275" y="19" on="1"/>
        <pt x="330" y="19" on="1"/>
        <pt x="330" y="0" on="1"/>
        <pt x="25" y="0" on="1"/>
        <pt x="25" y="19" on="1"/>
        <pt x="80" y="19" on="1"/>
        <pt x="80" y="681" on="1"/>
        <pt x="25" y="681" on="1"/>
      </contour>
      <contour>
        <pt x="315" y="-290" on="1"/>
        <pt x="304" y="-275" on="1"/>
        <pt x="367" y="-227" on="0"/>
        <pt x="367" y="-192" on="1"/>
        <pt x="367" y="-167" on="0"/>
        <pt x="349" y="-159" on="1"/>
        <pt x="318" y="-190" on="1"/>
        <pt x="269" y="-172" on="0"/>
        <pt x="269" y="-123" on="1"/>
        <pt x="269" y="-90" on="0"/>
        <pt x="308" y="-54" on="0"/>
        <pt x="377" y="-54" on="0"/>
        <pt x="417" y="-103" on="0"/>
        <pt x="417" y="-145" on="1"/>
        <pt x="417" y="-230" on="0"/>
      </contour>
    </TTGlyph>
    <TTGlyph name="L" xMin="21" yMin="0" xMax="570" yMax="700">
      <contour>
        <pt x="21" y="700" on="1"/>
        <pt x="381" y="700" on="1"/>
        <pt x="381" y="678" on="1"/>
        <pt x="275" y="678" on="1"/>
        <pt x="275" y="22" on="1"/>
        <pt x="311" y="22" on="1"/>
        <pt x="396" y="22" on="0"/>
        <pt x="497" y="126" on="0"/>
        <pt x="549" y="234" on="1"/>
        <pt x="570" y="234" on="1"/>
        <pt x="551" y="0" on="1"/>
        <pt x="21" y="0" on="1"/>
        <pt x="21" y="22" on="1"/>
        <pt x="80" y="22" on="1"/>
        <pt x="80" y="678" on="1"/>
        <pt x="21" y="678" on="1"/>
      </contour>
    </TTGlyph>
    <TTGlyph name="Lacute" xMin="21" yMin="0" xMax="570" yMax="905">
      <contour>
        <pt x="21" y="700" on="1"/>
        <pt x="381" y="700" on="1"/>
        <pt x="381" y="678" on="1"/>
        <pt x="275" y="678" on="1"/>
        <pt x="275" y="22" on="1"/>
        <pt x="311" y="22" on="1"/>
        <pt x="396" y="22" on="0"/>
        <pt x="497" y="126" on="0"/>
        <pt x="549" y="234" on="1"/>
        <pt x="570" y="234" on="1"/>
        <pt x="551" y="0" on="1"/>
        <pt x="21" y="0" on="1"/>
        <pt x="21" y="22" on="1"/>
        <pt x="80" y="22" on="1"/>
        <pt x="80" y="678" on="1"/>
        <pt x="21" y="678" on="1"/>
      </contour>
      <contour>
        <pt x="92" y="743" on="1"/>
        <pt x="207" y="905" on="1"/>
        <pt x="255" y="901" on="1"/>
        <pt x="280" y="899" on="0"/>
        <pt x="303" y="873" on="0"/>
        <pt x="303" y="856" on="1"/>
        <pt x="303" y="816" on="0"/>
        <pt x="259" y="798" on="1"/>
        <pt x="100" y="733" on="1"/>
      </contour>
    </TTGlyph>
    <TTGlyph name="Lcaron" xMin="21" yMin="0" xMax="570" yMax="716">
      <contour>
        <pt x="21" y="700" on="1"/>
        <pt x="381" y="700" on="1"/>
        <pt x="381" y="678" on="1"/>
        <pt x="275" y="678" on="1"/>
        <pt x="275" y="22" on="1"/>
        <pt x="311" y="22" on="1"/>
        <pt x="396" y="22" on="0"/>
        <pt x="497" y="126" on="0"/>
        <pt x="549" y="234" on="1"/>
        <pt x="570" y="234" on="1"/>
        <pt x="551" y="0" on="1"/>
        <pt x="21" y="0" on="1"/>
        <pt x="21" y="22" on="1"/>
        <pt x="80" y="22" on="1"/>
        <pt x="80" y="678" on="1"/>
        <pt x="21" y="678" on="1"/>
      </contour>
      <contour>
        <pt x="424" y="477" on="1"/>
        <pt x="412" y="490" on="1"/>
        <pt x="454" y="536" on="0"/>
        <pt x="454" y="592" on="1"/>
        <pt x="454" y="626" on="0"/>
        <pt x="409" y="665" on="1"/>
        <pt x="431" y="687" on="1"/>
        <pt x="460" y="716" on="0"/>
        <pt x="516" y="716" on="0"/>
        <pt x="548" y="675" on="0"/>
        <pt x="548" y="646" on="1"/>
        <pt x="548" y="565" on="0"/>
      </contour>
    </TTGlyph>
    <TTGlyph name="Lcommaaccent" xMin="21" yMin="-290" xMax="570" yMax="700">
      <contour>
        <pt x="21" y="700" on="1"/>
        <pt x="381" y="700" on="1"/>
        <pt x="381" y="678" on="1"/>
        <pt x="275" y="678" on="1"/>
        <pt x="275" y="22" on="1"/>
        <pt x="311" y="22" on="1"/>
        <pt x="396" y="22" on="0"/>
        <pt x="497" y="126" on="0"/>
        <pt x="549" y="234" on="1"/>
        <pt x="570" y="234" on="1"/>
        <pt x="551" y="0" on="1"/>
        <pt x="21" y="0" on="1"/>
        <pt x="21" y="22" on="1"/>
        <pt x="80" y="22" on="1"/>
        <pt x="80" y="678" on="1"/>
        <pt x="21" y="678" on="1"/>
      </contour>
      <contour>
        <pt x="276" y="-290" on="1"/>
        <pt x="265" y="-275" on="1"/>
        <pt x="328" y="-227" on="0"/>
        <pt x="328" y="-192" on="1"/>
        <pt x="328" y="-167" on="0"/>
        <pt x="310" y="-159" on="1"/>
        <pt x="279" y="-190" on="1"/>
        <pt x="230" y="-172" on="0"/>
        <pt x="230" y="-123" on="1"/>
        <pt x="230" y="-90" on="0"/>
        <pt x="269" y="-54" on="0"/>
        <pt x="338" y="-54" on="0"/>
        <pt x="378" y="-103" on="0"/>
        <pt x="378" y="-145" on="1"/>
        <pt x="378" y="-230" on="0"/>
      </contour>
    </TTGlyph>
    <TTGlyph name="Ldot" xMin="21" yMin="0" xMax="570" yMax="700">
      <contour>
        <pt x="21" y="700" on="1"/>
        <pt x="381" y="700" on="1"/>
        <pt x="381" y="678" on="1"/>
        <pt x="275" y="678" on="1"/>
        <pt x="275" y="22" on="1"/>
        <pt x="311" y="22" on="1"/>
        <pt x="396" y="22" on="0"/>
        <pt x="497" y="126" on="0"/>
        <pt x="549" y="234" on="1"/>
        <pt x="570" y="234" on="1"/>
        <pt x="551" y="0" on="1"/>
        <pt x="21" y="0" on="1"/>
        <pt x="21" y="22" on="1"/>
        <pt x="80" y="22" on="1"/>
        <pt x="80" y="678" on="1"/>
        <pt x="21" y="678" on="1"/>
      </contour>
      <contour>
        <pt x="406" y="315" on="0"/>
        <pt x="361" y="369" on="0"/>
        <pt x="361" y="449" on="0"/>
        <pt x="410" y="501" on="0"/>
        <pt x="510" y="501" on="0"/>
        <pt x="562" y="454" on="0"/>
        <pt x="562" y="367" on="0"/>
        <pt x="512" y="315" on="0"/>
      </contour>
    </TTGlyph>
    <TTGlyph name="Lslash" xMin="6" yMin="0" xMax="570" yMax="700">
      <contour>
        <pt x="21" y="700" on="1"/>
        <pt x="381" y="700" on="1"/>
        <pt x="381" y="678" on="1"/>
        <pt x="275" y="678" on="1"/>
        <pt x="275" y="407" on="1"/>
        <pt x="431" y="494" on="1"/>
        <pt x="444" y="472" on="1"/>
        <pt x="275" y="377" on="1"/>
        <pt x="275" y="22" on="1"/>
        <pt x="311" y="22" on="1"/>
        <pt x="396" y="22" on="0"/>
        <pt x="497" y="126" on="0"/>
        <pt x="549" y="234" on="1"/>
        <pt x="570" y="234" on="1"/>
        <pt x="551" y="0" on="1"/>
        <pt x="21" y="0" on="1"/>
        <pt x="21" y="22" on="1"/>
        <pt x="80" y="22" on="1"/>
        <pt x="80" y="288" on="1"/>
        <pt x="18" y="254" on="1"/>
        <pt x="6" y="277" on="1"/>
        <pt x="80" y="317" on="1"/>
        <pt x="80" y="678" on="1"/>
        <pt x="21" y="678" on="1"/>
      </contour>
    </TTGlyph>
    <TTGlyph name="M" xMin="25" yMin="0" xMax="815" yMax="700">
      <contour>
        <pt x="548" y="700" on="1"/>
        <pt x="815" y="700" on="1"/>
        <pt x="815" y="681" on="1"/>
        <pt x="760" y="681" on="1"/>
        <pt x="760" y="19" on="1"/>
        <pt x="815" y="19" on="1"/>
        <pt x="815" y="0" on="1"/>
        <pt x="510" y="0" on="1"/>
        <pt x="510" y="19" on="1"/>
        <pt x="565" y="19" on="1"/>
        <pt x="565" y="644" on="1"/>
        <pt x="561" y="644" on="1"/>
        <pt x="411" y="0" on="1"/>
        <pt x="286" y="0" on="1"/>
        <pt x="110" y="647" on="1"/>
        <pt x="106" y="647" on="1"/>
        <pt x="106" y="19" on="1"/>
        <pt x="161" y="19" on="1"/>
        <pt x="161" y="0" on="1"/>
        <pt x="25" y="0" on="1"/>
        <pt x="25" y="19" on="1"/>
        <pt x="80" y="19" on="1"/>
        <pt x="80" y="681" on="1"/>
        <pt x="25" y="681" on="1"/>
        <pt x="25" y="700" on="1"/>
        <pt x="295" y="700" on="1"/>
        <pt x="428" y="185" on="1"/>
      </contour>
    </TTGlyph>
    <TTGlyph name="N" xMin="25" yMin="0" xMax="645" yMax="700">
      <contour>
        <pt x="590" y="681" on="1"/>
        <pt x="590" y="0" on="1"/>
        <pt x="450" y="0" on="1"/>
        <pt x="107" y="647" on="1"/>
        <pt x="107" y="19" on="1"/>
        <pt x="162" y="19" on="1"/>
        <pt x="162" y="0" on="1"/>
        <pt x="25" y="0" on="1"/>
        <pt x="25" y="19" on="1"/>
        <pt x="80" y="19" on="1"/>
        <pt x="80" y="681" on="1"/>
        <pt x="25" y="681" on="1"/>
        <pt x="25" y="700" on="1"/>
        <pt x="301" y="700" on="1"/>
        <pt x="563" y="198" on="1"/>
        <pt x="563" y="681" on="1"/>
        <pt x="508" y="681" on="1"/>
        <pt x="508" y="700" on="1"/>
        <pt x="645" y="700" on="1"/>
        <pt x="645" y="681" on="1"/>
      </contour>
    </TTGlyph>
    <TTGlyph name="Nacute" xMin="25" yMin="0" xMax="645" yMax="905">
      <contour>
        <pt x="590" y="681" on="1"/>
        <pt x="590" y="0" on="1"/>
        <pt x="450" y="0" on="1"/>
        <pt x="107" y="647" on="1"/>
        <pt x="107" y="19" on="1"/>
        <pt x="162" y="19" on="1"/>
        <pt x="162" y="0" on="1"/>
        <pt x="25" y="0" on="1"/>
        <pt x="25" y="19" on="1"/>
        <pt x="80" y="19" on="1"/>
        <pt x="80" y="681" on="1"/>
        <pt x="25" y="681" on="1"/>
        <pt x="25" y="700" on="1"/>
        <pt x="301" y="700" on="1"/>
        <pt x="563" y="198" on="1"/>
        <pt x="563" y="681" on="1"/>
        <pt x="508" y="681" on="1"/>
        <pt x="508" y="700" on="1"/>
        <pt x="645" y="700" on="1"/>
        <pt x="645" y="681" on="1"/>
      </contour>
      <contour>
        <pt x="267" y="743" on="1"/>
        <pt x="382" y="905" on="1"/>
        <pt x="430" y="901" on="1"/>
        <pt x="455" y="899" on="0"/>
        <pt x="478" y="873" on="0"/>
        <pt x="478" y="856" on="1"/>
        <pt x="478" y="816" on="0"/>
        <pt x="434" y="798" on="1"/>
        <pt x="275" y="733" on="1"/>
      </contour>
    </TTGlyph>
    <TTGlyph name="Ncaron" xMin="25" yMin="0" xMax="645" yMax="919">
      <contour>
        <pt x="590" y="681" on="1"/>
        <pt x="590" y="0" on="1"/>
        <pt x="450" y="0" on="1"/>
        <pt x="107" y="647" on="1"/>
        <pt x="107" y="19" on="1"/>
        <pt x="162" y="19" on="1"/>
        <pt x="162" y="0" on="1"/>
        <pt x="25" y="0" on="1"/>
        <pt x="25" y="19" on="1"/>
        <pt x="80" y="19" on="1"/>
        <pt x="80" y="681" on="1"/>
        <pt x="25" y="681" on="1"/>
        <pt x="25" y="700" on="1"/>
        <pt x="301" y="700" on="1"/>
        <pt x="563" y="198" on="1"/>
        <pt x="563" y="681" on="1"/>
        <pt x="508" y="681" on="1"/>
        <pt x="508" y="700" on="1"/>
        <pt x="645" y="700" on="1"/>
        <pt x="645" y="681" on="1"/>
      </contour>
      <contour>
        <pt x="499" y="909" on="1"/>
        <pt x="393" y="761" on="1"/>
        <pt x="365" y="745" on="0"/>
        <pt x="338" y="745" on="1"/>
        <pt x="291" y="745" on="0"/>
        <pt x="268" y="785" on="1"/>
        <pt x="194" y="909" on="1"/>
        <pt x="203" y="919" on="1"/>
        <pt x="345" y="851" on="1"/>
        <pt x="491" y="919" on="1"/>
      </contour>
    </TTGlyph>
    <TTGlyph name="Ncommaaccent" xMin="25" yMin="-290" xMax="645" yMax="700">
      <contour>
        <pt x="590" y="681" on="1"/>
        <pt x="590" y="0" on="1"/>
        <pt x="450" y="0" on="1"/>
        <pt x="107" y="647" on="1"/>
        <pt x="107" y="19" on="1"/>
        <pt x="162" y="19" on="1"/>
        <pt x="162" y="0" on="1"/>
        <pt x="25" y="0" on="1"/>
        <pt x="25" y="19" on="1"/>
        <pt x="80" y="19" on="1"/>
        <pt x="80" y="681" on="1"/>
        <pt x="25" y="681" on="1"/>
        <pt x="25" y="700" on="1"/>
        <pt x="301" y="700" on="1"/>
        <pt x="563" y="198" on="1"/>
        <pt x="563" y="681" on="1"/>
        <pt x="508" y="681" on="1"/>
        <pt x="508" y="700" on="1"/>
        <pt x="645" y="700" on="1"/>
        <pt x="645" y="681" on="1"/>
      </contour>
      <contour>
        <pt x="310" y="-290" on="1"/>
        <pt x="299" y="-275" on="1"/>
        <pt x="362" y="-227" on="0"/>
        <pt x="362" y="-192" on="1"/>
        <pt x="362" y="-167" on="0"/>
        <pt x="344" y="-159" on="1"/>
        <pt x="313" y="-190" on="1"/>
        <pt x="264" y="-172" on="0"/>
        <pt x="264" y="-123" on="1"/>
        <pt x="264" y="-90" on="0"/>
        <pt x="303" y="-54" on="0"/>
        <pt x="372" y="-54" on="0"/>
        <pt x="412" y="-103" on="0"/>
        <pt x="412" y="-145" on="1"/>
        <pt x="412" y="-230" on="0"/>
      </contour>
    </TTGlyph>
    <TTGlyph name="Ntilde" xMin="25" yMin="0" xMax="645" yMax="895">
      <contour>
        <pt x="590" y="681" on="1"/>
        <pt x="590" y="0" on="1"/>
        <pt x="450" y="0" on="1"/>
        <pt x="107" y="647" on="1"/>
        <pt x="107" y="19" on="1"/>
        <pt x="162" y="19" on="1"/>
        <pt x="162" y="0" on="1"/>
        <pt x="25" y="0" on="1"/>
        <pt x="25" y="19" on="1"/>
        <pt x="80" y="19" on="1"/>
        <pt x="80" y="681" on="1"/>
        <pt x="25" y="681" on="1"/>
        <pt x="25" y="700" on="1"/>
        <pt x="301" y="700" on="1"/>
        <pt x="563" y="198" on="1"/>
        <pt x="563" y="681" on="1"/>
        <pt x="508" y="681" on="1"/>
        <pt x="508" y="700" on="1"/>
        <pt x="645" y="700" on="1"/>
        <pt x="645" y="681" on="1"/>
      </contour>
      <contour>
        <pt x="495" y="812" on="0"/>
        <pt x="450" y="752" on="0"/>
        <pt x="384" y="752" on="0"/>
        <pt x="278" y="792" on="0"/>
        <pt x="259" y="792" on="1"/>
        <pt x="221" y="792" on="0"/>
        <pt x="204" y="751" on="1"/>
        <pt x="192" y="755" on="1"/>
        <pt x="215" y="827" on="0"/>
        <pt x="244" y="877" on="0"/>
        <pt x="276" y="893" on="0"/>
        <pt x="326" y="893" on="0"/>
        <pt x="427" y="853" on="0"/>
        <pt x="444" y="853" on="1"/>
        <pt x="488" y="853" on="0"/>
        <pt x="502" y="895" on="1"/>
        <pt x="515" y="891" on="1"/>
      </contour>
    </TTGlyph>
    <TTGlyph name="O" xMin="41" yMin="-10" xMax="707" yMax="711">
      <contour>
        <pt x="501" y="309" on="1"/>
        <pt x="501" y="383" on="1"/>
        <pt x="501" y="566" on="0"/>
        <pt x="483" y="614" on="1"/>
        <pt x="463" y="669" on="0"/>
        <pt x="426" y="682" on="1"/>
        <pt x="405" y="690" on="0"/>
        <pt x="345" y="690" on="0"/>
        <pt x="302" y="674" on="0"/>
        <pt x="274" y="634" on="0"/>
        <pt x="257" y="590" on="0"/>
        <pt x="252" y="550" on="1"/>
        <pt x="246" y="492" on="0"/>
        <pt x="246" y="379" on="1"/>
        <pt x="246" y="307" on="1"/>
        <pt x="246" y="185" on="0"/>
        <pt x="265" y="82" on="0"/>
        <pt x="279" y="60" on="1"/>
        <pt x="310" y="11" on="0"/>
        <pt x="375" y="11" on="1"/>
        <pt x="454" y="11" on="0"/>
        <pt x="501" y="144" on="0"/>
      </contour>
      <contour>
        <pt x="206" y="-10" on="0"/>
        <pt x="41" y="171" on="0"/>
        <pt x="41" y="514" on="0"/>
        <pt x="218" y="711" on="0"/>
        <pt x="542" y="711" on="0"/>
        <pt x="707" y="524" on="0"/>
        <pt x="707" y="180" on="0"/>
        <pt x="540" y="-10" on="0"/>
      </contour>
    </TTGlyph>
    <TTGlyph name="OE" xMin="41" yMin="-10" xMax="999" yMax="711">
      <contour>
        <pt x="564" y="700" on="1"/>
        <pt x="962" y="700" on="1"/>
        <pt x="972" y="502" on="1"/>
        <pt x="954" y="502" on="1"/>
        <pt x="912" y="603" on="0"/>
        <pt x="820" y="678" on="0"/>
        <pt x="731" y="678" on="1"/>
        <pt x="696" y="678" on="1"/>
        <pt x="696" y="369" on="1"/>
        <pt x="730" y="369" on="1"/>
        <pt x="777" y="369" on="0"/>
        <pt x="841" y="440" on="0"/>
        <pt x="854" y="500" on="1"/>
        <pt x="869" y="500" on="1"/>
        <pt x="869" y="204" on="1"/>
        <pt x="852" y="204" on="1"/>
        <pt x="834" y="279" on="0"/>
        <pt x="773" y="343" on="0"/>
        <pt x="720" y="343" on="1"/>
        <pt x="696" y="343" on="1"/>
        <pt x="696" y="22" on="1"/>
        <pt x="734" y="22" on="1"/>
        <pt x="826" y="22" on="0"/>
        <pt x="955" y="132" on="0"/>
        <pt x="979" y="218" on="1"/>
        <pt x="999" y="218" on="1"/>
        <pt x="991" y="0" on="1"/>
        <pt x="563" y="0" on="1"/>
        <pt x="563" y="73" on="1"/>
        <pt x="483" y="-10" on="0"/>
        <pt x="357" y="-10" on="1"/>
        <pt x="206" y="-10" on="0"/>
        <pt x="41" y="173" on="0"/>
        <pt x="41" y="512" on="0"/>
        <pt x="217" y="711" on="0"/>
        <pt x="373" y="711" on="1"/>
        <pt x="493" y="711" on="0"/>
        <pt x="564" y="628" on="1"/>
      </contour>
      <contour>
        <pt x="501" y="309" on="1"/>
        <pt x="501" y="383" on="1"/>
        <pt x="501" y="566" on="0"/>
        <pt x="483" y="614" on="1"/>
        <pt x="463" y="669" on="0"/>
        <pt x="426" y="682" on="1"/>
        <pt x="405" y="690" on="0"/>
        <pt x="345" y="690" on="0"/>
        <pt x="302" y="674" on="0"/>
        <pt x="274" y="634" on="0"/>
        <pt x="257" y="590" on="0"/>
        <pt x="252" y="550" on="1"/>
        <pt x="246" y="492" on="0"/>
        <pt x="246" y="379" on="1"/>
        <pt x="246" y="307" on="1"/>
        <pt x="246" y="185" on="0"/>
        <pt x="265" y="82" on="0"/>
        <pt x="279" y="60" on="1"/>
        <pt x="310" y="11" on="0"/>
        <pt x="375" y="11" on="1"/>
        <pt x="454" y="11" on="0"/>
        <pt x="501" y="144" on="0"/>
      </contour>
    </TTGlyph>
    <TTGlyph name="Oacute" xMin="41" yMin="-10" xMax="707" yMax="905">
      <contour>
        <pt x="501" y="309" on="1"/>
        <pt x="501" y="383" on="1"/>
        <pt x="501" y="566" on="0"/>
        <pt x="483" y="614" on="1"/>
        <pt x="463" y="669" on="0"/>
        <pt x="426" y="682" on="1"/>
        <pt x="405" y="690" on="0"/>
        <pt x="345" y="690" on="0"/>
        <pt x="302" y="674" on="0"/>
        <pt x="274" y="634" on="0"/>
        <pt x="257" y="590" on="0"/>
        <pt x="252" y="550" on="1"/>
        <pt x="246" y="492" on="0"/>
        <pt x="246" y="379" on="1"/>
        <pt x="246" y="307" on="1"/>
        <pt x="246" y="185" on="0"/>
        <pt x="265" y="82" on="0"/>
        <pt x="279" y="60" on="1"/>
        <pt x="310" y="11" on="0"/>
        <pt x="375" y="11" on="1"/>
        <pt x="454" y="11" on="0"/>
        <pt x="501" y="144" on="0"/>
      </contour>
      <contour>
        <pt x="206" y="-10" on="0"/>
        <pt x="41" y="171" on="0"/>
        <pt x="41" y="514" on="0"/>
        <pt x="218" y="711" on="0"/>
        <pt x="542" y="711" on="0"/>
        <pt x="707" y="524" on="0"/>
        <pt x="707" y="180" on="0"/>
        <pt x="540" y="-10" on="0"/>
      </contour>
      <contour>
        <pt x="288" y="743" on="1"/>
        <pt x="403" y="905" on="1"/>
        <pt x="451" y="901" on="1"/>
        <pt x="476" y="899" on="0"/>
        <pt x="499" y="873" on="0"/>
        <pt x="499" y="856" on="1"/>
        <pt x="499" y="816" on="0"/>
        <pt x="455" y="798" on="1"/>
        <pt x="296" y="733" on="1"/>
      </contour>
    </TTGlyph>
    <TTGlyph name="Obreve" xMin="41" yMin="-10" xMax="707" yMax="921">
      <contour>
        <pt x="501" y="309" on="1"/>
        <pt x="501" y="383" on="1"/>
        <pt x="501" y="566" on="0"/>
        <pt x="483" y="614" on="1"/>
        <pt x="463" y="669" on="0"/>
        <pt x="426" y="682" on="1"/>
        <pt x="405" y="690" on="0"/>
        <pt x="345" y="690" on="0"/>
        <pt x="302" y="674" on="0"/>
        <pt x="274" y="634" on="0"/>
        <pt x="257" y="590" on="0"/>
        <pt x="252" y="550" on="1"/>
        <pt x="246" y="492" on="0"/>
        <pt x="246" y="379" on="1"/>
        <pt x="246" y="307" on="1"/>
        <pt x="246" y="185" on="0"/>
        <pt x="265" y="82" on="0"/>
        <pt x="279" y="60" on="1"/>
        <pt x="310" y="11" on="0"/>
        <pt x="375" y="11" on="1"/>
        <pt x="454" y="11" on="0"/>
        <pt x="501" y="144" on="0"/>
      </contour>
      <contour>
        <pt x="206" y="-10" on="0"/>
        <pt x="41" y="171" on="0"/>
        <pt x="41" y="514" on="0"/>
        <pt x="218" y="711" on="0"/>
        <pt x="542" y="711" on="0"/>
        <pt x="707" y="524" on="0"/>
        <pt x="707" y="180" on="0"/>
        <pt x="540" y="-10" on="0"/>
      </contour>
      <contour>
        <pt x="234" y="918" on="1"/>
        <pt x="250" y="921" on="1"/>
        <pt x="264" y="881" on="0"/>
        <pt x="321" y="853" on="0"/>
        <pt x="436" y="853" on="0"/>
        <pt x="491" y="879" on="0"/>
        <pt x="503" y="921" on="1"/>
        <pt x="518" y="918" on="1"/>
        <pt x="500" y="746" on="0"/>
        <pt x="376" y="746" on="1"/>
        <pt x="301" y="746" on="0"/>
        <pt x="270" y="796" on="1"/>
        <pt x="243" y="841" on="0"/>
      </contour>
    </TTGlyph>
    <TTGlyph name="Ocircumflex" xMin="41" yMin="-10" xMax="707" yMax="907">
      <contour>
        <pt x="501" y="309" on="1"/>
        <pt x="501" y="383" on="1"/>
        <pt x="501" y="566" on="0"/>
        <pt x="483" y="614" on="1"/>
        <pt x="463" y="669" on="0"/>
        <pt x="426" y="682" on="1"/>
        <pt x="405" y="690" on="0"/>
        <pt x="345" y="690" on="0"/>
        <pt x="302" y="674" on="0"/>
        <pt x="274" y="634" on="0"/>
        <pt x="257" y="590" on="0"/>
        <pt x="252" y="550" on="1"/>
        <pt x="246" y="492" on="0"/>
        <pt x="246" y="379" on="1"/>
        <pt x="246" y="307" on="1"/>
        <pt x="246" y="185" on="0"/>
        <pt x="265" y="82" on="0"/>
        <pt x="279" y="60" on="1"/>
        <pt x="310" y="11" on="0"/>
        <pt x="375" y="11" on="1"/>
        <pt x="454" y="11" on="0"/>
        <pt x="501" y="144" on="0"/>
      </contour>
      <contour>
        <pt x="206" y="-10" on="0"/>
        <pt x="41" y="171" on="0"/>
        <pt x="41" y="514" on="0"/>
        <pt x="218" y="711" on="0"/>
        <pt x="542" y="711" on="0"/>
        <pt x="707" y="524" on="0"/>
        <pt x="707" y="180" on="0"/>
        <pt x="540" y="-10" on="0"/>
      </contour>
      <contour>
        <pt x="224" y="743" on="1"/>
        <pt x="330" y="891" on="1"/>
        <pt x="358" y="907" on="0"/>
        <pt x="385" y="907" on="1"/>
        <pt x="432" y="907" on="0"/>
        <pt x="455" y="867" on="1"/>
        <pt x="529" y="743" on="1"/>
        <pt x="520" y="733" on="1"/>
        <pt x="378" y="801" on="1"/>
        <pt x="232" y="733" on="1"/>
      </contour>
    </TTGlyph>
    <TTGlyph name="Odieresis" xMin="41" yMin="-10" xMax="707" yMax="894">
      <contour>
        <pt x="501" y="309" on="1"/>
        <pt x="501" y="383" on="1"/>
        <pt x="501" y="566" on="0"/>
        <pt x="483" y="614" on="1"/>
        <pt x="463" y="669" on="0"/>
        <pt x="426" y="682" on="1"/>
        <pt x="405" y="690" on="0"/>
        <pt x="345" y="690" on="0"/>
        <pt x="302" y="674" on="0"/>
        <pt x="274" y="634" on="0"/>
        <pt x="257" y="590" on="0"/>
        <pt x="252" y="550" on="1"/>
        <pt x="246" y="492" on="0"/>
        <pt x="246" y="379" on="1"/>
        <pt x="246" y="307" on="1"/>
        <pt x="246" y="185" on="0"/>
        <pt x="265" y="82" on="0"/>
        <pt x="279" y="60" on="1"/>
        <pt x="310" y="11" on="0"/>
        <pt x="375" y="11" on="1"/>
        <pt x="454" y="11" on="0"/>
        <pt x="501" y="144" on="0"/>
      </contour>
      <contour>
        <pt x="206" y="-10" on="0"/>
        <pt x="41" y="171" on="0"/>
        <pt x="41" y="514" on="0"/>
        <pt x="218" y="711" on="0"/>
        <pt x="542" y="711" on="0"/>
        <pt x="707" y="524" on="0"/>
        <pt x="707" y="180" on="0"/>
        <pt x="540" y="-10" on="0"/>
      </contour>
      <contour>
        <pt x="398" y="790" on="0"/>
        <pt x="398" y="852" on="0"/>
        <pt x="437" y="894" on="0"/>
        <pt x="506" y="894" on="0"/>
        <pt x="547" y="857" on="0"/>
        <pt x="547" y="787" on="0"/>
        <pt x="508" y="746" on="0"/>
        <pt x="434" y="746" on="0"/>
      </contour>
      <contour>
        <pt x="205" y="790" on="0"/>
        <pt x="205" y="852" on="0"/>
        <pt x="244" y="894" on="0"/>
        <pt x="313" y="894" on="0"/>
        <pt x="354" y="857" on="0"/>
        <pt x="354" y="787" on="0"/>
        <pt x="315" y="746" on="0"/>
        <pt x="241" y="746" on="0"/>
      </contour>
    </TTGlyph>
    <TTGlyph name="Ograve" xMin="41" yMin="-10" xMax="707" yMax="905">
      <contour>
        <pt x="501" y="309" on="1"/>
        <pt x="501" y="383" on="1"/>
        <pt x="501" y="566" on="0"/>
        <pt x="483" y="614" on="1"/>
        <pt x="463" y="669" on="0"/>
        <pt x="426" y="682" on="1"/>
        <pt x="405" y="690" on="0"/>
        <pt x="345" y="690" on="0"/>
        <pt x="302" y="674" on="0"/>
        <pt x="274" y="634" on="0"/>
        <pt x="257" y="590" on="0"/>
        <pt x="252" y="550" on="1"/>
        <pt x="246" y="492" on="0"/>
        <pt x="246" y="379" on="1"/>
        <pt x="246" y="307" on="1"/>
        <pt x="246" y="185" on="0"/>
        <pt x="265" y="82" on="0"/>
        <pt x="279" y="60" on="1"/>
        <pt x="310" y="11" on="0"/>
        <pt x="375" y="11" on="1"/>
        <pt x="454" y="11" on="0"/>
        <pt x="501" y="144" on="0"/>
      </contour>
      <contour>
        <pt x="206" y="-10" on="0"/>
        <pt x="41" y="171" on="0"/>
        <pt x="41" y="514" on="0"/>
        <pt x="218" y="711" on="0"/>
        <pt x="542" y="711" on="0"/>
        <pt x="707" y="524" on="0"/>
        <pt x="707" y="180" on="0"/>
        <pt x="540" y="-10" on="0"/>
      </contour>
      <contour>
        <pt x="356" y="905" on="1"/>
        <pt x="471" y="743" on="1"/>
        <pt x="463" y="733" on="1"/>
        <pt x="304" y="798" on="1"/>
        <pt x="260" y="816" on="0"/>
        <pt x="260" y="856" on="1"/>
        <pt x="260" y="873" on="0"/>
        <pt x="283" y="899" on="0"/>
        <pt x="308" y="901" on="1"/>
      </contour>
    </TTGlyph>
    <TTGlyph name="Ohungarumlaut" xMin="41" yMin="-10" xMax="707" yMax="929">
      <contour>
        <pt x="501" y="309" on="1"/>
        <pt x="501" y="383" on="1"/>
        <pt x="501" y="566" on="0"/>
        <pt x="483" y="614" on="1"/>
        <pt x="463" y="669" on="0"/>
        <pt x="426" y="682" on="1"/>
        <pt x="405" y="690" on="0"/>
        <pt x="345" y="690" on="0"/>
        <pt x="302" y="674" on="0"/>
        <pt x="274" y="634" on="0"/>
        <pt x="257" y="590" on="0"/>
        <pt x="252" y="550" on="1"/>
        <pt x="246" y="492" on="0"/>
        <pt x="246" y="379" on="1"/>
        <pt x="246" y="307" on="1"/>
        <pt x="246" y="185" on="0"/>
        <pt x="265" y="82" on="0"/>
        <pt x="279" y="60" on="1"/>
        <pt x="310" y="11" on="0"/>
        <pt x="375" y="11" on="1"/>
        <pt x="454" y="11" on="0"/>
        <pt x="501" y="144" on="0"/>
      </contour>
      <contour>
        <pt x="206" y="-10" on="0"/>
        <pt x="41" y="171" on="0"/>
        <pt x="41" y="514" on="0"/>
        <pt x="218" y="711" on="0"/>
        <pt x="542" y="711" on="0"/>
        <pt x="707" y="524" on="0"/>
        <pt x="707" y="180" on="0"/>
        <pt x="540" y="-10" on="0"/>
      </contour>
      <contour>
        <pt x="406" y="742" on="1"/>
        <pt x="494" y="916" on="1"/>
        <pt x="539" y="921" on="1"/>
        <pt x="567" y="924" on="0"/>
        <pt x="592" y="900" on="0"/>
        <pt x="592" y="880" on="1"/>
        <pt x="592" y="847" on="0"/>
        <pt x="557" y="825" on="1"/>
        <pt x="416" y="734" on="1"/>
      </contour>
      <contour>
        <pt x="265" y="742" on="1"/>
        <pt x="341" y="922" on="1"/>
        <pt x="385" y="929" on="1"/>
        <pt x="413" y="934" on="0"/>
        <pt x="440" y="911" on="0"/>
        <pt x="440" y="891" on="1"/>
        <pt x="440" y="856" on="0"/>
        <pt x="411" y="835" on="1"/>
        <pt x="276" y="734" on="1"/>
      </contour>
    </TTGlyph>
    <TTGlyph name="Omacron" xMin="41" yMin="-10" xMax="707" yMax="867">
      <contour>
        <pt x="501" y="309" on="1"/>
        <pt x="501" y="383" on="1"/>
        <pt x="501" y="566" on="0"/>
        <pt x="483" y="614" on="1"/>
        <pt x="463" y="669" on="0"/>
        <pt x="426" y="682" on="1"/>
        <pt x="405" y="690" on="0"/>
        <pt x="345" y="690" on="0"/>
        <pt x="302" y="674" on="0"/>
        <pt x="274" y="634" on="0"/>
        <pt x="257" y="590" on="0"/>
        <pt x="252" y="550" on="1"/>
        <pt x="246" y="492" on="0"/>
        <pt x="246" y="379" on="1"/>
        <pt x="246" y="307" on="1"/>
        <pt x="246" y="185" on="0"/>
        <pt x="265" y="82" on="0"/>
        <pt x="279" y="60" on="1"/>
        <pt x="310" y="11" on="0"/>
        <pt x="375" y="11" on="1"/>
        <pt x="454" y="11" on="0"/>
        <pt x="501" y="144" on="0"/>
      </contour>
      <contour>
        <pt x="206" y="-10" on="0"/>
        <pt x="41" y="171" on="0"/>
        <pt x="41" y="514" on="0"/>
        <pt x="218" y="711" on="0"/>
        <pt x="542" y="711" on="0"/>
        <pt x="707" y="524" on="0"/>
        <pt x="707" y="180" on="0"/>
        <pt x="540" y="-10" on="0"/>
      </contour>
      <contour>
        <pt x="240" y="770" on="1"/>
        <pt x="240" y="867" on="1"/>
        <pt x="512" y="867" on="1"/>
        <pt x="512" y="770" on="1"/>
      </contour>
    </TTGlyph>
    <TTGlyph name="Omega" xMin="45" yMin="0" xMax="807" yMax="711">
      <contour>
        <pt x="477" y="0" on="1"/>
        <pt x="477" y="105" on="1"/>
        <pt x="535" y="154" on="0"/>
        <pt x="562" y="243" on="0"/>
        <pt x="562" y="525" on="0"/>
        <pt x="555" y="569" on="1"/>
        <pt x="528" y="686" on="0"/>
        <pt x="439" y="690" on="1"/>
        <pt x="390" y="690" on="0"/>
        <pt x="355" y="660" on="1"/>
        <pt x="335" y="643" on="0"/>
        <pt x="317" y="579" on="1"/>
        <pt x="307" y="543" on="0"/>
        <pt x="307" y="449" on="0"/>
        <pt x="307" y="424" on="1"/>
        <pt x="307" y="386" on="1"/>
        <pt x="307" y="238" on="0"/>
        <pt x="325" y="144" on="0"/>
        <pt x="363" y="106" on="1"/>
        <pt x="363" y="0" on="1"/>
        <pt x="57" y="0" on="1"/>
        <pt x="45" y="264" on="1"/>
        <pt x="62" y="264" on="1"/>
        <pt x="79" y="176" on="0"/>
        <pt x="157" y="118" on="0"/>
        <pt x="255" y="118" on="1"/>
        <pt x="325" y="118" on="1"/>
        <pt x="209" y="170" on="0"/>
        <pt x="97" y="301" on="0"/>
        <pt x="97" y="405" on="1"/>
        <pt x="97" y="545" on="0"/>
        <pt x="277" y="711" on="0"/>
        <pt x="596" y="711" on="0"/>
        <pt x="767" y="555" on="0"/>
        <pt x="767" y="414" on="1"/>
        <pt x="767" y="331" on="0"/>
        <pt x="723" y="274" on="1"/>
        <pt x="700" y="245" on="0"/>
        <pt x="660" y="203" on="0"/>
        <pt x="624" y="180" on="1"/>
        <pt x="574" y="148" on="0"/>
        <pt x="517" y="118" on="1"/>
        <pt x="599" y="118" on="1"/>
        <pt x="697" y="118" on="0"/>
        <pt x="775" y="176" on="0"/>
        <pt x="792" y="264" on="1"/>
        <pt x="807" y="264" on="1"/>
        <pt x="795" y="0" on="1"/>
      </contour>
    </TTGlyph>
    <TTGlyph name="Oslash" xMin="41" yMin="-74" xMax="707" yMax="769">
      <contour>
        <pt x="41" y="339" on="1"/>
        <pt x="41" y="514" on="0"/>
        <pt x="218" y="711" on="0"/>
        <pt x="383" y="711" on="1"/>
        <pt x="442" y="711" on="0"/>
        <pt x="488" y="698" on="1"/>
        <pt x="515" y="769" on="1"/>
        <pt x="540" y="759" on="1"/>
        <pt x="514" y="690" on="1"/>
        <pt x="707" y="622" on="0"/>
        <pt x="707" y="352" on="1"/>
        <pt x="707" y="180" on="0"/>
        <pt x="540" y="-10" on="0"/>
        <pt x="371" y="-10" on="1"/>
        <pt x="308" y="-10" on="0"/>
        <pt x="254" y="4" on="1"/>
        <pt x="225" y="-74" on="1"/>
        <pt x="200" y="-64" on="1"/>
        <pt x="229" y="12" on="1"/>
        <pt x="41" y="80" on="0"/>
      </contour>
      <contour>
        <pt x="501" y="309" on="1"/>
        <pt x="501" y="383" on="1"/>
        <pt x="501" y="552" on="0"/>
        <pt x="484" y="610" on="1"/>
        <pt x="277" y="64" on="1"/>
        <pt x="306" y="11" on="0"/>
        <pt x="454" y="11" on="0"/>
        <pt x="501" y="144" on="0"/>
      </contour>
      <contour>
        <pt x="246" y="307" on="1"/>
        <pt x="246" y="158" on="0"/>
        <pt x="262" y="101" on="1"/>
        <pt x="468" y="645" on="1"/>
        <pt x="441" y="690" on="0"/>
        <pt x="375" y="690" on="1"/>
        <pt x="313" y="690" on="0"/>
        <pt x="288" y="654" on="1"/>
        <pt x="260" y="613" on="0"/>
        <pt x="254" y="562" on="1"/>
        <pt x="246" y="492" on="0"/>
        <pt x="246" y="379" on="1"/>
      </contour>
    </TTGlyph>
    <TTGlyph name="Oslashacute" xMin="41" yMin="-74" xMax="707" yMax="905">
      <contour>
        <pt x="41" y="339" on="1"/>
        <pt x="41" y="514" on="0"/>
        <pt x="218" y="711" on="0"/>
        <pt x="383" y="711" on="1"/>
        <pt x="442" y="711" on="0"/>
        <pt x="488" y="698" on="1"/>
        <pt x="515" y="769" on="1"/>
        <pt x="540" y="759" on="1"/>
        <pt x="514" y="690" on="1"/>
        <pt x="707" y="622" on="0"/>
        <pt x="707" y="352" on="1"/>
        <pt x="707" y="180" on="0"/>
        <pt x="540" y="-10" on="0"/>
        <pt x="371" y="-10" on="1"/>
        <pt x="308" y="-10" on="0"/>
        <pt x="254" y="4" on="1"/>
        <pt x="225" y="-74" on="1"/>
        <pt x="200" y="-64" on="1"/>
        <pt x="229" y="12" on="1"/>
        <pt x="41" y="80" on="0"/>
      </contour>
      <contour>
        <pt x="501" y="309" on="1"/>
        <pt x="501" y="383" on="1"/>
        <pt x="501" y="552" on="0"/>
        <pt x="484" y="610" on="1"/>
        <pt x="277" y="64" on="1"/>
        <pt x="306" y="11" on="0"/>
        <pt x="454" y="11" on="0"/>
        <pt x="501" y="144" on="0"/>
      </contour>
      <contour>
        <pt x="246" y="307" on="1"/>
        <pt x="246" y="158" on="0"/>
        <pt x="262" y="101" on="1"/>
        <pt x="468" y="645" on="1"/>
        <pt x="441" y="690" on="0"/>
        <pt x="375" y="690" on="1"/>
        <pt x="313" y="690" on="0"/>
        <pt x="288" y="654" on="1"/>
        <pt x="260" y="613" on="0"/>
        <pt x="254" y="562" on="1"/>
        <pt x="246" y="492" on="0"/>
        <pt x="246" y="379" on="1"/>
      </contour>
      <contour>
        <pt x="323" y="743" on="1"/>
        <pt x="438" y="905" on="1"/>
        <pt x="486" y="901" on="1"/>
        <pt x="511" y="899" on="0"/>
        <pt x="534" y="873" on="0"/>
        <pt x="534" y="856" on="1"/>
        <pt x="534" y="816" on="0"/>
        <pt x="490" y="798" on="1"/>
        <pt x="331" y="733" on="1"/>
      </contour>
    </TTGlyph>
    <TTGlyph name="Otilde" xMin="41" yMin="-10" xMax="707" yMax="895">
      <contour>
        <pt x="501" y="309" on="1"/>
        <pt x="501" y="383" on="1"/>
        <pt x="501" y="566" on="0"/>
        <pt x="483" y="614" on="1"/>
        <pt x="463" y="669" on="0"/>
        <pt x="426" y="682" on="1"/>
        <pt x="405" y="690" on="0"/>
        <pt x="345" y="690" on="0"/>
        <pt x="302" y="674" on="0"/>
        <pt x="274" y="634" on="0"/>
        <pt x="257" y="590" on="0"/>
        <pt x="252" y="550" on="1"/>
        <pt x="246" y="492" on="0"/>
        <pt x="246" y="379" on="1"/>
        <pt x="246" y="307" on="1"/>
        <pt x="246" y="185" on="0"/>
        <pt x="265" y="82" on="0"/>
        <pt x="279" y="60" on="1"/>
        <pt x="310" y="11" on="0"/>
        <pt x="375" y="11" on="1"/>
        <pt x="454" y="11" on="0"/>
        <pt x="501" y="144" on="0"/>
      </contour>
      <contour>
        <pt x="206" y="-10" on="0"/>
        <pt x="41" y="171" on="0"/>
        <pt x="41" y="514" on="0"/>
        <pt x="218" y="711" on="0"/>
        <pt x="542" y="711" on="0"/>
        <pt x="707" y="524" on="0"/>
        <pt x="707" y="180" on="0"/>
        <pt x="540" y="-10" on="0"/>
      </contour>
      <contour>
        <pt x="529" y="812" on="0"/>
        <pt x="484" y="752" on="0"/>
        <pt x="418" y="752" on="0"/>
        <pt x="312" y="792" on="0"/>
        <pt x="293" y="792" on="1"/>
        <pt x="255" y="792" on="0"/>
        <pt x="238" y="751" on="1"/>
        <pt x="226" y="755" on="1"/>
        <pt x="249" y="827" on="0"/>
        <pt x="278" y="877" on="0"/>
        <pt x="310" y="893" on="0"/>
        <pt x="360" y="893" on="0"/>
        <pt x="461" y="853" on="0"/>
        <pt x="478" y="853" on="1"/>
        <pt x="522" y="853" on="0"/>
        <pt x="536" y="895" on="1"/>
        <pt x="549" y="891" on="1"/>
      </contour>
    </TTGlyph>
    <TTGlyph name="P" xMin="15" yMin="0" xMax="608" yMax="700">
      <contour>
        <pt x="15" y="700" on="1"/>
        <pt x="309" y="700" on="1"/>
        <pt x="460" y="700" on="0"/>
        <pt x="608" y="613" on="0"/>
        <pt x="608" y="501" on="1"/>
        <pt x="608" y="377" on="0"/>
        <pt x="518" y="330" on="1"/>
        <pt x="434" y="287" on="0"/>
        <pt x="283" y="287" on="1"/>
        <pt x="275" y="287" on="1"/>
        <pt x="275" y="19" on="1"/>
        <pt x="400" y="19" on="1"/>
        <pt x="400" y="0" on="1"/>
        <pt x="15" y="0" on="1"/>
        <pt x="15" y="19" on="1"/>
        <pt x="80" y="19" on="1"/>
        <pt x="80" y="681" on="1"/>
        <pt x="15" y="681" on="1"/>
      </contour>
      <contour>
        <pt x="275" y="681" on="1"/>
        <pt x="275" y="306" on="1"/>
        <pt x="296" y="306" on="1"/>
        <pt x="356" y="306" on="0"/>
        <pt x="402" y="388" on="0"/>
        <pt x="402" y="480" on="1"/>
        <pt x="402" y="528" on="1"/>
        <pt x="402" y="613" on="0"/>
        <pt x="359" y="681" on="0"/>
        <pt x="302" y="681" on="1"/>
      </contour>
    </TTGlyph>
    <TTGlyph name="Q" xMin="41" yMin="-235" xMax="707" yMax="711">
      <contour>
        <pt x="41" y="339" on="1"/>
        <pt x="41" y="514" on="0"/>
        <pt x="218" y="711" on="0"/>
        <pt x="542" y="711" on="0"/>
        <pt x="707" y="524" on="0"/>
        <pt x="707" y="352" on="1"/>
        <pt x="707" y="25" on="0"/>
        <pt x="423" y="-1" on="1"/>
        <pt x="423" y="-8" on="1"/>
        <pt x="480" y="-14" on="0"/>
        <pt x="535" y="-64" on="0"/>
        <pt x="563" y="-147" on="0"/>
        <pt x="585" y="-177" on="0"/>
        <pt x="607" y="-177" on="1"/>
        <pt x="645" y="-177" on="0"/>
        <pt x="652" y="-97" on="1"/>
        <pt x="674" y="-99" on="1"/>
        <pt x="672" y="-165" on="0"/>
        <pt x="594" y="-235" on="0"/>
        <pt x="455" y="-235" on="0"/>
        <pt x="379" y="-166" on="0"/>
        <pt x="359" y="-99" on="1"/>
        <pt x="346" y="-58" on="0"/>
        <pt x="328" y="-34" on="0"/>
        <pt x="314" y="-34" on="1"/>
        <pt x="286" y="-34" on="0"/>
        <pt x="240" y="-75" on="1"/>
        <pt x="226" y="-59" on="1"/>
        <pt x="266" y="-19" on="0"/>
        <pt x="317" y="-10" on="1"/>
        <pt x="317" y="-4" on="1"/>
        <pt x="181" y="10" on="0"/>
        <pt x="41" y="188" on="0"/>
      </contour>
      <contour>
        <pt x="501" y="309" on="1"/>
        <pt x="501" y="383" on="1"/>
        <pt x="501" y="566" on="0"/>
        <pt x="483" y="614" on="1"/>
        <pt x="463" y="669" on="0"/>
        <pt x="426" y="682" on="1"/>
        <pt x="405" y="690" on="0"/>
        <pt x="345" y="690" on="0"/>
        <pt x="302" y="674" on="0"/>
        <pt x="274" y="634" on="0"/>
        <pt x="257" y="590" on="0"/>
        <pt x="252" y="550" on="1"/>
        <pt x="246" y="492" on="0"/>
        <pt x="246" y="379" on="1"/>
        <pt x="246" y="307" on="1"/>
        <pt x="246" y="185" on="0"/>
        <pt x="265" y="82" on="0"/>
        <pt x="279" y="60" on="1"/>
        <pt x="310" y="11" on="0"/>
        <pt x="375" y="11" on="1"/>
        <pt x="454" y="11" on="0"/>
        <pt x="501" y="144" on="0"/>
      </contour>
    </TTGlyph>
    <TTGlyph name="R" xMin="15" yMin="-10" xMax="695" yMax="700">
      <contour>
        <pt x="328" y="354" on="1"/>
        <pt x="275" y="354" on="1"/>
        <pt x="275" y="19" on="1"/>
        <pt x="340" y="19" on="1"/>
        <pt x="340" y="0" on="1"/>
        <pt x="15" y="0" on="1"/>
        <pt x="15" y="19" on="1"/>
        <pt x="80" y="19" on="1"/>
        <pt x="80" y="681" on="1"/>
        <pt x="15" y="681" on="1"/>
        <pt x="15" y="700" on="1"/>
        <pt x="317" y="700" on="1"/>
        <pt x="447" y="700" on="0"/>
        <pt x="556" y="673" on="0"/>
        <pt x="578" y="654" on="1"/>
        <pt x="626" y="615" on="0"/>
        <pt x="626" y="445" on="0"/>
        <pt x="542" y="372" on="0"/>
        <pt x="456" y="365" on="1"/>
        <pt x="456" y="362" on="1"/>
        <pt x="537" y="351" on="0"/>
        <pt x="601" y="277" on="0"/>
        <pt x="601" y="190" on="1"/>
        <pt x="601" y="137" on="1"/>
        <pt x="601" y="85" on="0"/>
        <pt x="612" y="49" on="0"/>
        <pt x="648" y="49" on="0"/>
        <pt x="669" y="82" on="0"/>
        <pt x="678" y="135" on="1"/>
        <pt x="695" y="133" on="1"/>
        <pt x="684" y="48" on="0"/>
        <pt x="629" y="-10" on="0"/>
        <pt x="465" y="-10" on="0"/>
        <pt x="396" y="67" on="0"/>
        <pt x="396" y="173" on="1"/>
        <pt x="396" y="246" on="1"/>
        <pt x="396" y="302" on="0"/>
        <pt x="367" y="354" on="0"/>
      </contour>
      <contour>
        <pt x="275" y="681" on="1"/>
        <pt x="275" y="373" on="1"/>
        <pt x="307" y="373" on="1"/>
        <pt x="364" y="373" on="0"/>
        <pt x="419" y="443" on="0"/>
        <pt x="419" y="522" on="1"/>
        <pt x="419" y="551" on="1"/>
        <pt x="419" y="630" on="0"/>
        <pt x="366" y="681" on="0"/>
        <pt x="308" y="681" on="1"/>
      </contour>
    </TTGlyph>
    <TTGlyph name="Racute" xMin="15" yMin="-10" xMax="695" yMax="905">
      <contour>
        <pt x="328" y="354" on="1"/>
        <pt x="275" y="354" on="1"/>
        <pt x="275" y="19" on="1"/>
        <pt x="340" y="19" on="1"/>
        <pt x="340" y="0" on="1"/>
        <pt x="15" y="0" on="1"/>
        <pt x="15" y="19" on="1"/>
        <pt x="80" y="19" on="1"/>
        <pt x="80" y="681" on="1"/>
        <pt x="15" y="681" on="1"/>
        <pt x="15" y="700" on="1"/>
        <pt x="317" y="700" on="1"/>
        <pt x="447" y="700" on="0"/>
        <pt x="556" y="673" on="0"/>
        <pt x="578" y="654" on="1"/>
        <pt x="626" y="615" on="0"/>
        <pt x="626" y="445" on="0"/>
        <pt x="542" y="372" on="0"/>
        <pt x="456" y="365" on="1"/>
        <pt x="456" y="362" on="1"/>
        <pt x="537" y="351" on="0"/>
        <pt x="601" y="277" on="0"/>
        <pt x="601" y="190" on="1"/>
        <pt x="601" y="137" on="1"/>
        <pt x="601" y="85" on="0"/>
        <pt x="612" y="49" on="0"/>
        <pt x="648" y="49" on="0"/>
        <pt x="669" y="82" on="0"/>
        <pt x="678" y="135" on="1"/>
        <pt x="695" y="133" on="1"/>
        <pt x="684" y="48" on="0"/>
        <pt x="629" y="-10" on="0"/>
        <pt x="465" y="-10" on="0"/>
        <pt x="396" y="67" on="0"/>
        <pt x="396" y="173" on="1"/>
        <pt x="396" y="246" on="1"/>
        <pt x="396" y="302" on="0"/>
        <pt x="367" y="354" on="0"/>
      </contour>
      <contour>
        <pt x="275" y="681" on="1"/>
        <pt x="275" y="373" on="1"/>
        <pt x="307" y="373" on="1"/>
        <pt x="364" y="373" on="0"/>
        <pt x="419" y="443" on="0"/>
        <pt x="419" y="522" on="1"/>
        <pt x="419" y="551" on="1"/>
        <pt x="419" y="630" on="0"/>
        <pt x="366" y="681" on="0"/>
        <pt x="308" y="681" on="1"/>
      </contour>
      <contour>
        <pt x="234" y="743" on="1"/>
        <pt x="349" y="905" on="1"/>
        <pt x="397" y="901" on="1"/>
        <pt x="422" y="899" on="0"/>
        <pt x="445" y="873" on="0"/>
        <pt x="445" y="856" on="1"/>
        <pt x="445" y="816" on="0"/>
        <pt x="401" y="798" on="1"/>
        <pt x="242" y="733" on="1"/>
      </contour>
    </TTGlyph>
    <TTGlyph name="Rcaron" xMin="15" yMin="-10" xMax="695" yMax="919">
      <contour>
        <pt x="328" y="354" on="1"/>
        <pt x="275" y="354" on="1"/>
        <pt x="275" y="19" on="1"/>
        <pt x="340" y="19" on="1"/>
        <pt x="340" y="0" on="1"/>
        <pt x="15" y="0" on="1"/>
        <pt x="15" y="19" on="1"/>
        <pt x="80" y="19" on="1"/>
        <pt x="80" y="681" on="1"/>
        <pt x="15" y="681" on="1"/>
        <pt x="15" y="700" on="1"/>
        <pt x="317" y="700" on="1"/>
        <pt x="447" y="700" on="0"/>
        <pt x="556" y="673" on="0"/>
        <pt x="578" y="654" on="1"/>
        <pt x="626" y="615" on="0"/>
        <pt x="626" y="445" on="0"/>
        <pt x="542" y="372" on="0"/>
        <pt x="456" y="365" on="1"/>
        <pt x="456" y="362" on="1"/>
        <pt x="537" y="351" on="0"/>
        <pt x="601" y="277" on="0"/>
        <pt x="601" y="190" on="1"/>
        <pt x="601" y="137" on="1"/>
        <pt x="601" y="85" on="0"/>
        <pt x="612" y="49" on="0"/>
        <pt x="648" y="49" on="0"/>
        <pt x="669" y="82" on="0"/>
        <pt x="678" y="135" on="1"/>
        <pt x="695" y="133" on="1"/>
        <pt x="684" y="48" on="0"/>
        <pt x="629" y="-10" on="0"/>
        <pt x="465" y="-10" on="0"/>
        <pt x="396" y="67" on="0"/>
        <pt x="396" y="173" on="1"/>
        <pt x="396" y="246" on="1"/>
        <pt x="396" y="302" on="0"/>
        <pt x="367" y="354" on="0"/>
      </contour>
      <contour>
        <pt x="275" y="681" on="1"/>
        <pt x="275" y="373" on="1"/>
        <pt x="307" y="373" on="1"/>
        <pt x="364" y="373" on="0"/>
        <pt x="419" y="443" on="0"/>
        <pt x="419" y="522" on="1"/>
        <pt x="419" y="551" on="1"/>
        <pt x="419" y="630" on="0"/>
        <pt x="366" y="681" on="0"/>
        <pt x="308" y="681" on="1"/>
      </contour>
      <contour>
        <pt x="478" y="909" on="1"/>
        <pt x="372" y="761" on="1"/>
        <pt x="344" y="745" on="0"/>
        <pt x="317" y="745" on="1"/>
        <pt x="270" y="745" on="0"/>
        <pt x="247" y="785" on="1"/>
        <pt x="173" y="909" on="1"/>
        <pt x="182" y="919" on="1"/>
        <pt x="324" y="851" on="1"/>
        <pt x="470" y="919" on="1"/>
      </contour>
    </TTGlyph>
    <TTGlyph name="Rcommaaccent" xMin="15" yMin="-290" xMax="695" yMax="700">
      <contour>
        <pt x="328" y="354" on="1"/>
        <pt x="275" y="354" on="1"/>
        <pt x="275" y="19" on="1"/>
        <pt x="340" y="19" on="1"/>
        <pt x="340" y="0" on="1"/>
        <pt x="15" y="0" on="1"/>
        <pt x="15" y="19" on="1"/>
        <pt x="80" y="19" on="1"/>
        <pt x="80" y="681" on="1"/>
        <pt x="15" y="681" on="1"/>
        <pt x="15" y="700" on="1"/>
        <pt x="317" y="700" on="1"/>
        <pt x="447" y="700" on="0"/>
        <pt x="556" y="673" on="0"/>
        <pt x="578" y="654" on="1"/>
        <pt x="626" y="615" on="0"/>
        <pt x="626" y="445" on="0"/>
        <pt x="542" y="372" on="0"/>
        <pt x="456" y="365" on="1"/>
        <pt x="456" y="362" on="1"/>
        <pt x="537" y="351" on="0"/>
        <pt x="601" y="277" on="0"/>
        <pt x="601" y="190" on="1"/>
        <pt x="601" y="137" on="1"/>
        <pt x="601" y="85" on="0"/>
        <pt x="612" y="49" on="0"/>
        <pt x="648" y="49" on="0"/>
        <pt x="669" y="82" on="0"/>
        <pt x="678" y="135" on="1"/>
        <pt x="695" y="133" on="1"/>
        <pt x="684" y="48" on="0"/>
        <pt x="629" y="-10" on="0"/>
        <pt x="465" y="-10" on="0"/>
        <pt x="396" y="67" on="0"/>
        <pt x="396" y="173" on="1"/>
        <pt x="396" y="246" on="1"/>
        <pt x="396" y="302" on="0"/>
        <pt x="367" y="354" on="0"/>
      </contour>
      <contour>
        <pt x="275" y="681" on="1"/>
        <pt x="275" y="373" on="1"/>
        <pt x="307" y="373" on="1"/>
        <pt x="364" y="373" on="0"/>
        <pt x="419" y="443" on="0"/>
        <pt x="419" y="522" on="1"/>
        <pt x="419" y="551" on="1"/>
        <pt x="419" y="630" on="0"/>
        <pt x="366" y="681" on="0"/>
        <pt x="308" y="681" on="1"/>
      </contour>
      <contour>
        <pt x="321" y="-290" on="1"/>
        <pt x="310" y="-275" on="1"/>
        <pt x="373" y="-227" on="0"/>
        <pt x="373" y="-192" on="1"/>
        <pt x="373" y="-167" on="0"/>
        <pt x="355" y="-159" on="1"/>
        <pt x="324" y="-190" on="1"/>
        <pt x="275" y="-172" on="0"/>
        <pt x="275" y="-123" on="1"/>
        <pt x="275" y="-90" on="0"/>
        <pt x="314" y="-54" on="0"/>
        <pt x="383" y="-54" on="0"/>
        <pt x="423" y="-103" on="0"/>
        <pt x="423" y="-145" on="1"/>
        <pt x="423" y="-230" on="0"/>
      </contour>
    </TTGlyph>
    <TTGlyph name="S" xMin="51" yMin="-10" xMax="559" yMax="711">
      <contour>
        <pt x="325" y="11" on="1"/>
        <pt x="375" y="11" on="0"/>
        <pt x="452" y="65" on="0"/>
        <pt x="452" y="174" on="0"/>
        <pt x="369" y="232" on="0"/>
        <pt x="216" y="275" on="0"/>
        <pt x="147" y="307" on="0"/>
        <pt x="116" y="333" on="1"/>
        <pt x="54" y="385" on="0"/>
        <pt x="54" y="494" on="1"/>
        <pt x="54" y="583" on="0"/>
        <pt x="181" y="711" on="0"/>
        <pt x="291" y="711" on="1"/>
        <pt x="344" y="711" on="0"/>
        <pt x="459" y="680" on="0"/>
        <pt x="487" y="680" on="0"/>
        <pt x="498" y="700" on="1"/>
        <pt x="509" y="700" on="1"/>
        <pt x="516" y="498" on="1"/>
        <pt x="500" y="498" on="1"/>
        <pt x="452" y="585" on="0"/>
        <pt x="347" y="690" on="0"/>
        <pt x="224" y="690" on="0"/>
        <pt x="156" y="633" on="0"/>
        <pt x="156" y="538" on="0"/>
        <pt x="237" y="487" on="0"/>
        <pt x="355" y="455" on="0"/>
        <pt x="392" y="443" on="0"/>
        <pt x="447" y="422" on="0"/>
        <pt x="482" y="399" on="0"/>
        <pt x="521" y="364" on="0"/>
        <pt x="532" y="343" on="1"/>
        <pt x="559" y="295" on="0"/>
        <pt x="559" y="229" on="1"/>
        <pt x="559" y="121" on="0"/>
        <pt x="424" y="-10" on="0"/>
        <pt x="314" y="-10" on="1"/>
        <pt x="257" y="-10" on="0"/>
        <pt x="110" y="20" on="0"/>
        <pt x="102" y="20" on="1"/>
        <pt x="88" y="20" on="0"/>
        <pt x="75" y="-10" on="1"/>
        <pt x="61" y="-10" on="1"/>
        <pt x="51" y="228" on="1"/>
        <pt x="68" y="228" on="1"/>
        <pt x="112" y="141" on="0"/>
        <pt x="249" y="11" on="0"/>
      </contour>
    </TTGlyph>
    <TTGlyph name="Sacute" xMin="51" yMin="-10" xMax="559" yMax="905">
      <contour>
        <pt x="325" y="11" on="1"/>
        <pt x="375" y="11" on="0"/>
        <pt x="452" y="65" on="0"/>
        <pt x="452" y="174" on="0"/>
        <pt x="369" y="232" on="0"/>
        <pt x="216" y="275" on="0"/>
        <pt x="147" y="307" on="0"/>
        <pt x="116" y="333" on="1"/>
        <pt x="54" y="385" on="0"/>
        <pt x="54" y="494" on="1"/>
        <pt x="54" y="583" on="0"/>
        <pt x="181" y="711" on="0"/>
        <pt x="291" y="711" on="1"/>
        <pt x="344" y="711" on="0"/>
        <pt x="459" y="680" on="0"/>
        <pt x="487" y="680" on="0"/>
        <pt x="498" y="700" on="1"/>
        <pt x="509" y="700" on="1"/>
        <pt x="516" y="498" on="1"/>
        <pt x="500" y="498" on="1"/>
        <pt x="452" y="585" on="0"/>
        <pt x="347" y="690" on="0"/>
        <pt x="224" y="690" on="0"/>
        <pt x="156" y="633" on="0"/>
        <pt x="156" y="538" on="0"/>
        <pt x="237" y="487" on="0"/>
        <pt x="355" y="455" on="0"/>
        <pt x="392" y="443" on="0"/>
        <pt x="447" y="422" on="0"/>
        <pt x="482" y="399" on="0"/>
        <pt x="521" y="364" on="0"/>
        <pt x="532" y="343" on="1"/>
        <pt x="559" y="295" on="0"/>
        <pt x="559" y="229" on="1"/>
        <pt x="559" y="121" on="0"/>
        <pt x="424" y="-10" on="0"/>
        <pt x="314" y="-10" on="1"/>
        <pt x="257" y="-10" on="0"/>
        <pt x="110" y="20" on="0"/>
        <pt x="102" y="20" on="1"/>
        <pt x="88" y="20" on="0"/>
        <pt x="75" y="-10" on="1"/>
        <pt x="61" y="-10" on="1"/>
        <pt x="51" y="228" on="1"/>
        <pt x="68" y="228" on="1"/>
        <pt x="112" y="141" on="0"/>
        <pt x="249" y="11" on="0"/>
      </contour>
      <contour>
        <pt x="203" y="743" on="1"/>
        <pt x="318" y="905" on="1"/>
        <pt x="366" y="901" on="1"/>
        <pt x="391" y="899" on="0"/>
        <pt x="414" y="873" on="0"/>
        <pt x="414" y="856" on="1"/>
        <pt x="414" y="816" on="0"/>
        <pt x="370" y="798" on="1"/>
        <pt x="211" y="733" on="1"/>
      </contour>
    </TTGlyph>
    <TTGlyph name="Scaron" xMin="51" yMin="-10" xMax="559" yMax="919">
      <contour>
        <pt x="325" y="11" on="1"/>
        <pt x="375" y="11" on="0"/>
        <pt x="452" y="65" on="0"/>
        <pt x="452" y="174" on="0"/>
        <pt x="369" y="232" on="0"/>
        <pt x="216" y="275" on="0"/>
        <pt x="147" y="307" on="0"/>
        <pt x="116" y="333" on="1"/>
        <pt x="54" y="385" on="0"/>
        <pt x="54" y="494" on="1"/>
        <pt x="54" y="583" on="0"/>
        <pt x="181" y="711" on="0"/>
        <pt x="291" y="711" on="1"/>
        <pt x="344" y="711" on="0"/>
        <pt x="459" y="680" on="0"/>
        <pt x="487" y="680" on="0"/>
        <pt x="498" y="700" on="1"/>
        <pt x="509" y="700" on="1"/>
        <pt x="516" y="498" on="1"/>
        <pt x="500" y="498" on="1"/>
        <pt x="452" y="585" on="0"/>
        <pt x="347" y="690" on="0"/>
        <pt x="224" y="690" on="0"/>
        <pt x="156" y="633" on="0"/>
        <pt x="156" y="538" on="0"/>
        <pt x="237" y="487" on="0"/>
        <pt x="355" y="455" on="0"/>
        <pt x="392" y="443" on="0"/>
        <pt x="447" y="422" on="0"/>
        <pt x="482" y="399" on="0"/>
        <pt x="521" y="364" on="0"/>
        <pt x="532" y="343" on="1"/>
        <pt x="559" y="295" on="0"/>
        <pt x="559" y="229" on="1"/>
        <pt x="559" y="121" on="0"/>
        <pt x="424" y="-10" on="0"/>
        <pt x="314" y="-10" on="1"/>
        <pt x="257" y="-10" on="0"/>
        <pt x="110" y="20" on="0"/>
        <pt x="102" y="20" on="1"/>
        <pt x="88" y="20" on="0"/>
        <pt x="75" y="-10" on="1"/>
        <pt x="61" y="-10" on="1"/>
        <pt x="51" y="228" on="1"/>
        <pt x="68" y="228" on="1"/>
        <pt x="112" y="141" on="0"/>
        <pt x="249" y="11" on="0"/>
      </contour>
      <contour>
        <pt x="457" y="909" on="1"/>
        <pt x="351" y="761" on="1"/>
        <pt x="323" y="745" on="0"/>
        <pt x="296" y="745" on="1"/>
        <pt x="249" y="745" on="0"/>
        <pt x="226" y="785" on="1"/>
        <pt x="152" y="909" on="1"/>
        <pt x="161" y="919" on="1"/>
        <pt x="303" y="851" on="1"/>
        <pt x="449" y="919" on="1"/>
      </contour>
    </TTGlyph>
    <TTGlyph name="Scedilla" xMin="51" yMin="-249" xMax="559" yMax="711">
      <contour>
        <pt x="325" y="11" on="1"/>
        <pt x="375" y="11" on="0"/>
        <pt x="452" y="65" on="0"/>
        <pt x="452" y="174" on="0"/>
        <pt x="369" y="232" on="0"/>
        <pt x="216" y="275" on="0"/>
        <pt x="147" y="307" on="0"/>
        <pt x="116" y="333" on="1"/>
        <pt x="54" y="385" on="0"/>
        <pt x="54" y="494" on="1"/>
        <pt x="54" y="583" on="0"/>
        <pt x="181" y="711" on="0"/>
        <pt x="291" y="711" on="1"/>
        <pt x="344" y="711" on="0"/>
        <pt x="459" y="680" on="0"/>
        <pt x="487" y="680" on="0"/>
        <pt x="498" y="700" on="1"/>
        <pt x="509" y="700" on="1"/>
        <pt x="516" y="498" on="1"/>
        <pt x="500" y="498" on="1"/>
        <pt x="452" y="585" on="0"/>
        <pt x="347" y="690" on="0"/>
        <pt x="224" y="690" on="0"/>
        <pt x="156" y="633" on="0"/>
        <pt x="156" y="538" on="0"/>
        <pt x="237" y="487" on="0"/>
        <pt x="355" y="455" on="0"/>
        <pt x="392" y="443" on="0"/>
        <pt x="447" y="422" on="0"/>
        <pt x="482" y="399" on="0"/>
        <pt x="521" y="364" on="0"/>
        <pt x="532" y="343" on="1"/>
        <pt x="559" y="295" on="0"/>
        <pt x="559" y="229" on="1"/>
        <pt x="559" y="121" on="0"/>
        <pt x="424" y="-10" on="0"/>
        <pt x="314" y="-10" on="1"/>
        <pt x="301" y="-10" on="1"/>
        <pt x="272" y="-59" on="1"/>
        <pt x="293" y="-56" on="0"/>
        <pt x="305" y="-56" on="1"/>
        <pt x="410" y="-56" on="0"/>
        <pt x="410" y="-145" on="1"/>
        <pt x="410" y="-186" on="0"/>
        <pt x="344" y="-249" on="0"/>
        <pt x="274" y="-249" on="1"/>
        <pt x="228" y="-249" on="0"/>
        <pt x="171" y="-212" on="0"/>
        <pt x="171" y="-162" on="0"/>
        <pt x="195" y="-138" on="0"/>
        <pt x="214" y="-138" on="1"/>
        <pt x="248" y="-138" on="0"/>
        <pt x="260" y="-176" on="1"/>
        <pt x="234" y="-196" on="1"/>
        <pt x="234" y="-210" on="0"/>
        <pt x="250" y="-233" on="0"/>
        <pt x="287" y="-233" on="0"/>
        <pt x="304" y="-198" on="0"/>
        <pt x="304" y="-125" on="0"/>
        <pt x="302" y="-110" on="1"/>
        <pt x="299" y="-74" on="0"/>
        <pt x="272" y="-74" on="1"/>
        <pt x="258" y="-74" on="0"/>
        <pt x="242" y="-78" on="1"/>
        <pt x="239" y="-69" on="1"/>
        <pt x="275" y="-8" on="1"/>
        <pt x="230" y="-5" on="0"/>
        <pt x="114" y="20" on="0"/>
        <pt x="94" y="20" on="0"/>
        <pt x="82" y="6" on="0"/>
        <pt x="75" y="-10" on="1"/>
        <pt x="61" y="-10" on="1"/>
        <pt x="51" y="228" on="1"/>
        <pt x="68" y="228" on="1"/>
        <pt x="112" y="141" on="0"/>
        <pt x="249" y="11" on="0"/>
      </contour>
    </TTGlyph>
    <TTGlyph name="Scircumflex" xMin="51" yMin="-10" xMax="559" yMax="907">
      <contour>
        <pt x="325" y="11" on="1"/>
        <pt x="375" y="11" on="0"/>
        <pt x="452" y="65" on="0"/>
        <pt x="452" y="174" on="0"/>
        <pt x="369" y="232" on="0"/>
        <pt x="216" y="275" on="0"/>
        <pt x="147" y="307" on="0"/>
        <pt x="116" y="333" on="1"/>
        <pt x="54" y="385" on="0"/>
        <pt x="54" y="494" on="1"/>
        <pt x="54" y="583" on="0"/>
        <pt x="181" y="711" on="0"/>
        <pt x="291" y="711" on="1"/>
        <pt x="344" y="711" on="0"/>
        <pt x="459" y="680" on="0"/>
        <pt x="487" y="680" on="0"/>
        <pt x="498" y="700" on="1"/>
        <pt x="509" y="700" on="1"/>
        <pt x="516" y="498" on="1"/>
        <pt x="500" y="498" on="1"/>
        <pt x="452" y="585" on="0"/>
        <pt x="347" y="690" on="0"/>
        <pt x="224" y="690" on="0"/>
        <pt x="156" y="633" on="0"/>
        <pt x="156" y="538" on="0"/>
        <pt x="237" y="487" on="0"/>
        <pt x="355" y="455" on="0"/>
        <pt x="392" y="443" on="0"/>
        <pt x="447" y="422" on="0"/>
        <pt x="482" y="399" on="0"/>
        <pt x="521" y="364" on="0"/>
        <pt x="532" y="343" on="1"/>
        <pt x="559" y="295" on="0"/>
        <pt x="559" y="229" on="1"/>
        <pt x="559" y="121" on="0"/>
        <pt x="424" y="-10" on="0"/>
        <pt x="314" y="-10" on="1"/>
        <pt x="257" y="-10" on="0"/>
        <pt x="110" y="20" on="0"/>
        <pt x="102" y="20" on="1"/>
        <pt x="88" y="20" on="0"/>
        <pt x="75" y="-10" on="1"/>
        <pt x="61" y="-10" on="1"/>
        <pt x="51" y="228" on="1"/>
        <pt x="68" y="228" on="1"/>
        <pt x="112" y="141" on="0"/>
        <pt x="249" y="11" on="0"/>
      </contour>
      <contour>
        <pt x="139" y="743" on="1"/>
        <pt x="245" y="891" on="1"/>
        <pt x="273" y="907" on="0"/>
        <pt x="300" y="907" on="1"/>
        <pt x="347" y="907" on="0"/>
        <pt x="370" y="867" on="1"/>
        <pt x="444" y="743" on="1"/>
        <pt x="435" y="733" on="1"/>
        <pt x="293" y="801" on="1"/>
        <pt x="147" y="733" on="1"/>
      </contour>
    </TTGlyph>
    <TTGlyph name="Scommaaccent" xMin="51" yMin="-290" xMax="559" yMax="711">
      <contour>
        <pt x="325" y="11" on="1"/>
        <pt x="375" y="11" on="0"/>
        <pt x="452" y="65" on="0"/>
        <pt x="452" y="174" on="0"/>
        <pt x="369" y="232" on="0"/>
        <pt x="216" y="275" on="0"/>
        <pt x="147" y="307" on="0"/>
        <pt x="116" y="333" on="1"/>
        <pt x="54" y="385" on="0"/>
        <pt x="54" y="494" on="1"/>
        <pt x="54" y="583" on="0"/>
        <pt x="181" y="711" on="0"/>
        <pt x="291" y="711" on="1"/>
        <pt x="344" y="711" on="0"/>
        <pt x="459" y="680" on="0"/>
        <pt x="487" y="680" on="0"/>
        <pt x="498" y="700" on="1"/>
        <pt x="509" y="700" on="1"/>
        <pt x="516" y="498" on="1"/>
        <pt x="500" y="498" on="1"/>
        <pt x="452" y="585" on="0"/>
        <pt x="347" y="690" on="0"/>
        <pt x="224" y="690" on="0"/>
        <pt x="156" y="633" on="0"/>
        <pt x="156" y="538" on="0"/>
        <pt x="237" y="487" on="0"/>
        <pt x="355" y="455" on="0"/>
        <pt x="392" y="443" on="0"/>
        <pt x="447" y="422" on="0"/>
        <pt x="482" y="399" on="0"/>
        <pt x="521" y="364" on="0"/>
        <pt x="532" y="343" on="1"/>
        <pt x="559" y="295" on="0"/>
        <pt x="559" y="229" on="1"/>
        <pt x="559" y="121" on="0"/>
        <pt x="424" y="-10" on="0"/>
        <pt x="314" y="-10" on="1"/>
        <pt x="257" y="-10" on="0"/>
        <pt x="110" y="20" on="0"/>
        <pt x="102" y="20" on="1"/>
        <pt x="88" y="20" on="0"/>
        <pt x="75" y="-10" on="1"/>
        <pt x="61" y="-10" on="1"/>
        <pt x="51" y="228" on="1"/>
        <pt x="68" y="228" on="1"/>
        <pt x="112" y="141" on="0"/>
        <pt x="249" y="11" on="0"/>
      </contour>
      <contour>
        <pt x="268" y="-290" on="1"/>
        <pt x="257" y="-275" on="1"/>
        <pt x="320" y="-227" on="0"/>
        <pt x="320" y="-192" on="1"/>
        <pt x="320" y="-167" on="0"/>
        <pt x="302" y="-159" on="1"/>
        <pt x="271" y="-190" on="1"/>
        <pt x="222" y="-172" on="0"/>
        <pt x="222" y="-123" on="1"/>
        <pt x="222" y="-90" on="0"/>
        <pt x="261" y="-54" on="0"/>
        <pt x="330" y="-54" on="0"/>
        <pt x="370" y="-103" on="0"/>
        <pt x="370" y="-145" on="1"/>
        <pt x="370" y="-230" on="0"/>
      </contour>
    </TTGlyph>
    <TTGlyph name="T" xMin="36" yMin="0" xMax="646" yMax="700">
      <contour>
        <pt x="636" y="700" on="1"/>
        <pt x="646" y="449" on="1"/>
        <pt x="627" y="449" on="1"/>
        <pt x="583" y="582" on="0"/>
        <pt x="515" y="679" on="0"/>
        <pt x="451" y="679" on="1"/>
        <pt x="439" y="679" on="1"/>
        <pt x="439" y="21" on="1"/>
        <pt x="524" y="21" on="1"/>
        <pt x="524" y="0" on="1"/>
        <pt x="159" y="0" on="1"/>
        <pt x="159" y="21" on="1"/>
        <pt x="244" y="21" on="1"/>
        <pt x="244" y="679" on="1"/>
        <pt x="231" y="679" on="1"/>
        <pt x="167" y="679" on="0"/>
        <pt x="97" y="578" on="0"/>
        <pt x="55" y="449" on="1"/>
        <pt x="36" y="449" on="1"/>
        <pt x="46" y="700" on="1"/>
      </contour>
    </TTGlyph>
    <TTGlyph name="Tbar" xMin="36" yMin="0" xMax="646" yMax="700">
      <contour>
        <pt x="636" y="700" on="1"/>
        <pt x="646" y="449" on="1"/>
        <pt x="627" y="449" on="1"/>
        <pt x="583" y="582" on="0"/>
        <pt x="515" y="679" on="0"/>
        <pt x="451" y="679" on="1"/>
        <pt x="439" y="679" on="1"/>
        <pt x="439" y="367" on="1"/>
        <pt x="583" y="367" on="1"/>
        <pt x="583" y="341" on="1"/>
        <pt x="439" y="341" on="1"/>
        <pt x="439" y="21" on="1"/>
        <pt x="524" y="21" on="1"/>
        <pt x="524" y="0" on="1"/>
        <pt x="159" y="0" on="1"/>
        <pt x="159" y="21" on="1"/>
        <pt x="244" y="21" on="1"/>
        <pt x="244" y="341" on="1"/>
        <pt x="100" y="341" on="1"/>
        <pt x="100" y="367" on="1"/>
        <pt x="244" y="367" on="1"/>
        <pt x="244" y="679" on="1"/>
        <pt x="231" y="679" on="1"/>
        <pt x="167" y="679" on="0"/>
        <pt x="97" y="578" on="0"/>
        <pt x="55" y="449" on="1"/>
        <pt x="36" y="449" on="1"/>
        <pt x="46" y="700" on="1"/>
      </contour>
    </TTGlyph>
    <TTGlyph name="Tcaron" xMin="36" yMin="0" xMax="646" yMax="919">
      <contour>
        <pt x="636" y="700" on="1"/>
        <pt x="646" y="449" on="1"/>
        <pt x="627" y="449" on="1"/>
        <pt x="583" y="582" on="0"/>
        <pt x="515" y="679" on="0"/>
        <pt x="451" y="679" on="1"/>
        <pt x="439" y="679" on="1"/>
        <pt x="439" y="21" on="1"/>
        <pt x="524" y="21" on="1"/>
        <pt x="524" y="0" on="1"/>
        <pt x="159" y="0" on="1"/>
        <pt x="159" y="21" on="1"/>
        <pt x="244" y="21" on="1"/>
        <pt x="244" y="679" on="1"/>
        <pt x="231" y="679" on="1"/>
        <pt x="167" y="679" on="0"/>
        <pt x="97" y="578" on="0"/>
        <pt x="55" y="449" on="1"/>
        <pt x="36" y="449" on="1"/>
        <pt x="46" y="700" on="1"/>
      </contour>
      <contour>
        <pt x="497" y="909" on="1"/>
        <pt x="391" y="761" on="1"/>
        <pt x="363" y="745" on="0"/>
        <pt x="336" y="745" on="1"/>
        <pt x="289" y="745" on="0"/>
        <pt x="266" y="785" on="1"/>
        <pt x="192" y="909" on="1"/>
        <pt x="201" y="919" on="1"/>
        <pt x="343" y="851" on="1"/>
        <pt x="489" y="919" on="1"/>
      </contour>
    </TTGlyph>
    <TTGlyph name="Thorn" xMin="15" yMin="0" xMax="608" yMax="700">
      <contour>
        <pt x="275" y="681" on="1"/>
        <pt x="275" y="566" on="1"/>
        <pt x="309" y="566" on="1"/>
        <pt x="460" y="566" on="0"/>
        <pt x="608" y="479" on="0"/>
        <pt x="608" y="367" on="1"/>
        <pt x="608" y="243" on="0"/>
        <pt x="518" y="196" on="1"/>
        <pt x="434" y="153" on="0"/>
        <pt x="283" y="153" on="1"/>
        <pt x="275" y="153" on="1"/>
        <pt x="275" y="19" on="1"/>
        <pt x="400" y="19" on="1"/>
        <pt x="400" y="0" on="1"/>
        <pt x="15" y="0" on="1"/>
        <pt x="15" y="19" on="1"/>
        <pt x="80" y="19" on="1"/>
        <pt x="80" y="681" on="1"/>
        <pt x="15" y="681" on="1"/>
        <pt x="15" y="700" on="1"/>
        <pt x="400" y="700" on="1"/>
        <pt x="400" y="681" on="1"/>
      </contour>
      <contour>
        <pt x="275" y="547" on="1"/>
        <pt x="275" y="172" on="1"/>
        <pt x="296" y="172" on="1"/>
        <pt x="356" y="172" on="0"/>
        <pt x="402" y="254" on="0"/>
        <pt x="402" y="346" on="1"/>
        <pt x="402" y="394" on="1"/>
        <pt x="402" y="479" on="0"/>
        <pt x="359" y="547" on="0"/>
        <pt x="302" y="547" on="1"/>
      </contour>
    </TTGlyph>
    <TTGlyph name="U" xMin="21" yMin="-10" xMax="667" yMax="700">
      <contour>
        <pt x="271" y="121" on="0"/>
        <pt x="334" y="23" on="0"/>
        <pt x="498" y="23" on="0"/>
        <pt x="586" y="125" on="0"/>
        <pt x="586" y="229" on="1"/>
        <pt x="586" y="681" on="1"/>
        <pt x="521" y="681" on="1"/>
        <pt x="521" y="700" on="1"/>
        <pt x="667" y="700" on="1"/>
        <pt x="667" y="681" on="1"/>
        <pt x="612" y="681" on="1"/>
        <pt x="612" y="236" on="1"/>
        <pt x="612" y="112" on="0"/>
        <pt x="502" y="-10" on="0"/>
        <pt x="223" y="-10" on="0"/>
        <pt x="76" y="106" on="0"/>
        <pt x="76" y="247" on="1"/>
        <pt x="76" y="681" on="1"/>
        <pt x="21" y="681" on="1"/>
        <pt x="21" y="700" on="1"/>
        <pt x="336" y="700" on="1"/>
        <pt x="336" y="681" on="1"/>
        <pt x="271" y="681" on="1"/>
        <pt x="271" y="213" on="1"/>
      </contour>
    </TTGlyph>
    <TTGlyph name="Uacute" xMin="21" yMin="-10" xMax="667" yMax="905">
      <contour>
        <pt x="271" y="121" on="0"/>
        <pt x="334" y="23" on="0"/>
        <pt x="498" y="23" on="0"/>
        <pt x="586" y="125" on="0"/>
        <pt x="586" y="229" on="1"/>
        <pt x="586" y="681" on="1"/>
        <pt x="521" y="681" on="1"/>
        <pt x="521" y="700" on="1"/>
        <pt x="667" y="700" on="1"/>
        <pt x="667" y="681" on="1"/>
        <pt x="612" y="681" on="1"/>
        <pt x="612" y="236" on="1"/>
        <pt x="612" y="112" on="0"/>
        <pt x="502" y="-10" on="0"/>
        <pt x="223" y="-10" on="0"/>
        <pt x="76" y="106" on="0"/>
        <pt x="76" y="247" on="1"/>
        <pt x="76" y="681" on="1"/>
        <pt x="21" y="681" on="1"/>
        <pt x="21" y="700" on="1"/>
        <pt x="336" y="700" on="1"/>
        <pt x="336" y="681" on="1"/>
        <pt x="271" y="681" on="1"/>
        <pt x="271" y="213" on="1"/>
      </contour>
      <contour>
        <pt x="282" y="743" on="1"/>
        <pt x="397" y="905" on="1"/>
        <pt x="445" y="901" on="1"/>
        <pt x="470" y="899" on="0"/>
        <pt x="493" y="873" on="0"/>
        <pt x="493" y="856" on="1"/>
        <pt x="493" y="816" on="0"/>
        <pt x="449" y="798" on="1"/>
        <pt x="290" y="733" on="1"/>
      </contour>
    </TTGlyph>
    <TTGlyph name="Ubreve" xMin="21" yMin="-10" xMax="667" yMax="921">
      <contour>
        <pt x="271" y="121" on="0"/>
        <pt x="334" y="23" on="0"/>
        <pt x="498" y="23" on="0"/>
        <pt x="586" y="125" on="0"/>
        <pt x="586" y="229" on="1"/>
        <pt x="586" y="681" on="1"/>
        <pt x="521" y="681" on="1"/>
        <pt x="521" y="700" on="1"/>
        <pt x="667" y="700" on="1"/>
        <pt x="667" y="681" on="1"/>
        <pt x="612" y="681" on="1"/>
        <pt x="612" y="236" on="1"/>
        <pt x="612" y="112" on="0"/>
        <pt x="502" y="-10" on="0"/>
        <pt x="223" y="-10" on="0"/>
        <pt x="76" y="106" on="0"/>
        <pt x="76" y="247" on="1"/>
        <pt x="76" y="681" on="1"/>
        <pt x="21" y="681" on="1"/>
        <pt x="21" y="700" on="1"/>
        <pt x="336" y="700" on="1"/>
        <pt x="336" y="681" on="1"/>
        <pt x="271" y="681" on="1"/>
        <pt x="271" y="213" on="1"/>
      </contour>
      <contour>
        <pt x="253" y="918" on="1"/>
        <pt x="269" y="921" on="1"/>
        <pt x="283" y="881" on="0"/>
        <pt x="340" y="853" on="0"/>
        <pt x="455" y="853" on="0"/>
        <pt x="510" y="879" on="0"/>
        <pt x="522" y="921" on="1"/>
        <pt x="537" y="918" on="1"/>
        <pt x="519" y="746" on="0"/>
        <pt x="395" y="746" on="1"/>
        <pt x="320" y="746" on="0"/>
        <pt x="290" y="796" on="1"/>
        <pt x="262" y="841" on="0"/>
      </contour>
    </TTGlyph>
    <TTGlyph name="Ucircumflex" xMin="21" yMin="-10" xMax="667" yMax="907">
      <contour>
        <pt x="271" y="121" on="0"/>
        <pt x="334" y="23" on="0"/>
        <pt x="498" y="23" on="0"/>
        <pt x="586" y="125" on="0"/>
        <pt x="586" y="229" on="1"/>
        <pt x="586" y="681" on="1"/>
        <pt x="521" y="681" on="1"/>
        <pt x="521" y="700" on="1"/>
        <pt x="667" y="700" on="1"/>
        <pt x="667" y="681" on="1"/>
        <pt x="612" y="681" on="1"/>
        <pt x="612" y="236" on="1"/>
        <pt x="612" y="112" on="0"/>
        <pt x="502" y="-10" on="0"/>
        <pt x="223" y="-10" on="0"/>
        <pt x="76" y="106" on="0"/>
        <pt x="76" y="247" on="1"/>
        <pt x="76" y="681" on="1"/>
        <pt x="21" y="681" on="1"/>
        <pt x="21" y="700" on="1"/>
        <pt x="336" y="700" on="1"/>
        <pt x="336" y="681" on="1"/>
        <pt x="271" y="681" on="1"/>
        <pt x="271" y="213" on="1"/>
      </contour>
      <contour>
        <pt x="218" y="743" on="1"/>
        <pt x="324" y="891" on="1"/>
        <pt x="352" y="907" on="0"/>
        <pt x="379" y="907" on="1"/>
        <pt x="426" y="907" on="0"/>
        <pt x="449" y="867" on="1"/>
        <pt x="523" y="743" on="1"/>
        <pt x="514" y="733" on="1"/>
        <pt x="372" y="801" on="1"/>
        <pt x="226" y="733" on="1"/>
      </contour>
    </TTGlyph>
    <TTGlyph name="Udieresis" xMin="21" yMin="-10" xMax="667" yMax="894">
      <contour>
        <pt x="271" y="121" on="0"/>
        <pt x="334" y="23" on="0"/>
        <pt x="498" y="23" on="0"/>
        <pt x="586" y="125" on="0"/>
        <pt x="586" y="229" on="1"/>
        <pt x="586" y="681" on="1"/>
        <pt x="521" y="681" on="1"/>
        <pt x="521" y="700" on="1"/>
        <pt x="667" y="700" on="1"/>
        <pt x="667" y="681" on="1"/>
        <pt x="612" y="681" on="1"/>
        <pt x="612" y="236" on="1"/>
        <pt x="612" y="112" on="0"/>
        <pt x="502" y="-10" on="0"/>
        <pt x="223" y="-10" on="0"/>
        <pt x="76" y="106" on="0"/>
        <pt x="76" y="247" on="1"/>
        <pt x="76" y="681" on="1"/>
        <pt x="21" y="681" on="1"/>
        <pt x="21" y="700" on="1"/>
        <pt x="336" y="700" on="1"/>
        <pt x="336" y="681" on="1"/>
        <pt x="271" y="681" on="1"/>
        <pt x="271" y="213" on="1"/>
      </contour>
      <contour>
        <pt x="392" y="790" on="0"/>
        <pt x="392" y="852" on="0"/>
        <pt x="431" y="894" on="0"/>
        <pt x="500" y="894" on="0"/>
        <pt x="541" y="857" on="0"/>
        <pt x="541" y="787" on="0"/>
        <pt x="502" y="746" on="0"/>
        <pt x="428" y="746" on="0"/>
      </contour>
      <contour>
        <pt x="199" y="790" on="0"/>
        <pt x="199" y="852" on="0"/>
        <pt x="238" y="894" on="0"/>
        <pt x="307" y="894" on="0"/>
        <pt x="348" y="857" on="0"/>
        <pt x="348" y="787" on="0"/>
        <pt x="309" y="746" on="0"/>
        <pt x="235" y="746" on="0"/>
      </contour>
    </TTGlyph>
    <TTGlyph name="Ugrave" xMin="21" yMin="-10" xMax="667" yMax="905">
      <contour>
        <pt x="271" y="121" on="0"/>
        <pt x="334" y="23" on="0"/>
        <pt x="498" y="23" on="0"/>
        <pt x="586" y="125" on="0"/>
        <pt x="586" y="229" on="1"/>
        <pt x="586" y="681" on="1"/>
        <pt x="521" y="681" on="1"/>
        <pt x="521" y="700" on="1"/>
        <pt x="667" y="700" on="1"/>
        <pt x="667" y="681" on="1"/>
        <pt x="612" y="681" on="1"/>
        <pt x="612" y="236" on="1"/>
        <pt x="612" y="112" on="0"/>
        <pt x="502" y="-10" on="0"/>
        <pt x="223" y="-10" on="0"/>
        <pt x="76" y="106" on="0"/>
        <pt x="76" y="247" on="1"/>
        <pt x="76" y="681" on="1"/>
        <pt x="21" y="681" on="1"/>
        <pt x="21" y="700" on="1"/>
        <pt x="336" y="700" on="1"/>
        <pt x="336" y="681" on="1"/>
        <pt x="271" y="681" on="1"/>
        <pt x="271" y="213" on="1"/>
      </contour>
      <contour>
        <pt x="350" y="905" on="1"/>
        <pt x="465" y="743" on="1"/>
        <pt x="457" y="733" on="1"/>
        <pt x="298" y="798" on="1"/>
        <pt x="254" y="816" on="0"/>
        <pt x="254" y="856" on="1"/>
        <pt x="254" y="873" on="0"/>
        <pt x="277" y="899" on="0"/>
        <pt x="302" y="901" on="1"/>
      </contour>
    </TTGlyph>
    <TTGlyph name="Uhungarumlaut" xMin="21" yMin="-10" xMax="667" yMax="929">
      <contour>
        <pt x="271" y="121" on="0"/>
        <pt x="334" y="23" on="0"/>
        <pt x="498" y="23" on="0"/>
        <pt x="586" y="125" on="0"/>
        <pt x="586" y="229" on="1"/>
        <pt x="586" y="681" on="1"/>
        <pt x="521" y="681" on="1"/>
        <pt x="521" y="700" on="1"/>
        <pt x="667" y="700" on="1"/>
        <pt x="667" y="681" on="1"/>
        <pt x="612" y="681" on="1"/>
        <pt x="612" y="236" on="1"/>
        <pt x="612" y="112" on="0"/>
        <pt x="502" y="-10" on="0"/>
        <pt x="223" y="-10" on="0"/>
        <pt x="76" y="106" on="0"/>
        <pt x="76" y="247" on="1"/>
        <pt x="76" y="681" on="1"/>
        <pt x="21" y="681" on="1"/>
        <pt x="21" y="700" on="1"/>
        <pt x="336" y="700" on="1"/>
        <pt x="336" y="681" on="1"/>
        <pt x="271" y="681" on="1"/>
        <pt x="271" y="213" on="1"/>
      </contour>
      <contour>
        <pt x="400" y="742" on="1"/>
        <pt x="488" y="916" on="1"/>
        <pt x="533" y="921" on="1"/>
        <pt x="561" y="924" on="0"/>
        <pt x="586" y="900" on="0"/>
        <pt x="586" y="880" on="1"/>
        <pt x="586" y="847" on="0"/>
        <pt x="551" y="825" on="1"/>
        <pt x="410" y="734" on="1"/>
      </contour>
      <contour>
        <pt x="259" y="742" on="1"/>
        <pt x="335" y="922" on="1"/>
        <pt x="379" y="929" on="1"/>
        <pt x="407" y="934" on="0"/>
        <pt x="434" y="911" on="0"/>
        <pt x="434" y="891" on="1"/>
        <pt x="434" y="856" on="0"/>
        <pt x="405" y="835" on="1"/>
        <pt x="270" y="734" on="1"/>
      </contour>
    </TTGlyph>
    <TTGlyph name="Umacron" xMin="21" yMin="-10" xMax="667" yMax="867">
      <contour>
        <pt x="271" y="121" on="0"/>
        <pt x="334" y="23" on="0"/>
        <pt x="498" y="23" on="0"/>
        <pt x="586" y="125" on="0"/>
        <pt x="586" y="229" on="1"/>
        <pt x="586" y="681" on="1"/>
        <pt x="521" y="681" on="1"/>
        <pt x="521" y="700" on="1"/>
        <pt x="667" y="700" on="1"/>
        <pt x="667" y="681" on="1"/>
        <pt x="612" y="681" on="1"/>
        <pt x="612" y="236" on="1"/>
        <pt x="612" y="112" on="0"/>
        <pt x="502" y="-10" on="0"/>
        <pt x="223" y="-10" on="0"/>
        <pt x="76" y="106" on="0"/>
        <pt x="76" y="247" on="1"/>
        <pt x="76" y="681" on="1"/>
        <pt x="21" y="681" on="1"/>
        <pt x="21" y="700" on="1"/>
        <pt x="336" y="700" on="1"/>
        <pt x="336" y="681" on="1"/>
        <pt x="271" y="681" on="1"/>
        <pt x="271" y="213" on="1"/>
      </contour>
      <contour>
        <pt x="234" y="770" on="1"/>
        <pt x="234" y="867" on="1"/>
        <pt x="506" y="867" on="1"/>
        <pt x="506" y="770" on="1"/>
      </contour>
    </TTGlyph>
    <TTGlyph name="Uogonek" xMin="21" yMin="-251" xMax="667" yMax="700">
      <contour>
        <pt x="271" y="121" on="0"/>
        <pt x="334" y="23" on="0"/>
        <pt x="498" y="23" on="0"/>
        <pt x="586" y="125" on="0"/>
        <pt x="586" y="229" on="1"/>
        <pt x="586" y="681" on="1"/>
        <pt x="521" y="681" on="1"/>
        <pt x="521" y="700" on="1"/>
        <pt x="667" y="700" on="1"/>
        <pt x="667" y="681" on="1"/>
        <pt x="612" y="681" on="1"/>
        <pt x="612" y="236" on="1"/>
        <pt x="612" y="151" on="0"/>
        <pt x="563" y="46" on="0"/>
        <pt x="502" y="12" on="1"/>
        <pt x="427" y="-30" on="0"/>
        <pt x="427" y="-147" on="1"/>
        <pt x="427" y="-184" on="0"/>
        <pt x="441" y="-210" on="0"/>
        <pt x="485" y="-210" on="0"/>
        <pt x="514" y="-167" on="1"/>
        <pt x="527" y="-175" on="1"/>
        <pt x="513" y="-198" on="0"/>
        <pt x="489" y="-227" on="0"/>
        <pt x="439" y="-251" on="0"/>
        <pt x="363" y="-251" on="0"/>
        <pt x="307" y="-209" on="0"/>
        <pt x="307" y="-125" on="0"/>
        <pt x="346" y="-69" on="0"/>
        <pt x="411" y="-27" on="1"/>
        <pt x="452" y="-1" on="1"/>
        <pt x="402" y="-10" on="0"/>
        <pt x="356" y="-10" on="1"/>
        <pt x="223" y="-10" on="0"/>
        <pt x="76" y="106" on="0"/>
        <pt x="76" y="247" on="1"/>
        <pt x="76" y="681" on="1"/>
        <pt x="21" y="681" on="1"/>
        <pt x="21" y="700" on="1"/>
        <pt x="336" y="700" on="1"/>
        <pt x="336" y="681" on="1"/>
        <pt x="271" y="681" on="1"/>
        <pt x="271" y="213" on="1"/>
      </contour>
    </TTGlyph>
    <TTGlyph name="Uring" xMin="21" yMin="-10" xMax="667" yMax="931">
      <contour>
        <pt x="271" y="121" on="0"/>
        <pt x="334" y="23" on="0"/>
        <pt x="498" y="23" on="0"/>
        <pt x="586" y="125" on="0"/>
        <pt x="586" y="229" on="1"/>
        <pt x="586" y="681" on="1"/>
        <pt x="521" y="681" on="1"/>
        <pt x="521" y="700" on="1"/>
        <pt x="667" y="700" on="1"/>
        <pt x="667" y="681" on="1"/>
        <pt x="612" y="681" on="1"/>
        <pt x="612" y="236" on="1"/>
        <pt x="612" y="112" on="0"/>
        <pt x="502" y="-10" on="0"/>
        <pt x="223" y="-10" on="0"/>
        <pt x="76" y="106" on="0"/>
        <pt x="76" y="247" on="1"/>
        <pt x="76" y="681" on="1"/>
        <pt x="21" y="681" on="1"/>
        <pt x="21" y="700" on="1"/>
        <pt x="336" y="700" on="1"/>
        <pt x="336" y="681" on="1"/>
        <pt x="271" y="681" on="1"/>
        <pt x="271" y="213" on="1"/>
      </contour>
      <contour>
        <pt x="331" y="836" on="1"/>
        <pt x="331" y="763" on="0"/>
        <pt x="403" y="763" on="1"/>
        <pt x="438" y="763" on="0"/>
        <pt x="474" y="804" on="0"/>
        <pt x="474" y="866" on="0"/>
        <pt x="438" y="907" on="0"/>
        <pt x="365" y="907" on="0"/>
        <pt x="331" y="866" on="0"/>
      </contour>
      <contour>
        <pt x="351" y="739" on="0"/>
        <pt x="301" y="791" on="0"/>
        <pt x="301" y="877" on="0"/>
        <pt x="354" y="931" on="0"/>
        <pt x="452" y="931" on="0"/>
        <pt x="503" y="880" on="0"/>
        <pt x="503" y="793" on="0"/>
        <pt x="450" y="739" on="0"/>
      </contour>
    </TTGlyph>
    <TTGlyph name="Utilde" xMin="21" yMin="-10" xMax="667" yMax="895">
      <contour>
        <pt x="271" y="121" on="0"/>
        <pt x="334" y="23" on="0"/>
        <pt x="498" y="23" on="0"/>
        <pt x="586" y="125" on="0"/>
        <pt x="586" y="229" on="1"/>
        <pt x="586" y="681" on="1"/>
        <pt x="521" y="681" on="1"/>
        <pt x="521" y="700" on="1"/>
        <pt x="667" y="700" on="1"/>
        <pt x="667" y="681" on="1"/>
        <pt x="612" y="681" on="1"/>
        <pt x="612" y="236" on="1"/>
        <pt x="612" y="112" on="0"/>
        <pt x="502" y="-10" on="0"/>
        <pt x="223" y="-10" on="0"/>
        <pt x="76" y="106" on="0"/>
        <pt x="76" y="247" on="1"/>
        <pt x="76" y="681" on="1"/>
        <pt x="21" y="681" on="1"/>
        <pt x="21" y="700" on="1"/>
        <pt x="336" y="700" on="1"/>
        <pt x="336" y="681" on="1"/>
        <pt x="271" y="681" on="1"/>
        <pt x="271" y="213" on="1"/>
      </contour>
      <contour>
        <pt x="523" y="812" on="0"/>
        <pt x="478" y="752" on="0"/>
        <pt x="412" y="752" on="0"/>
        <pt x="306" y="792" on="0"/>
        <pt x="287" y="792" on="1"/>
        <pt x="249" y="792" on="0"/>
        <pt x="232" y="751" on="1"/>
        <pt x="220" y="755" on="1"/>
        <pt x="243" y="827" on="0"/>
        <pt x="272" y="877" on="0"/>
        <pt x="304" y="893" on="0"/>
        <pt x="354" y="893" on="0"/>
        <pt x="455" y="853" on="0"/>
        <pt x="472" y="853" on="1"/>
        <pt x="516" y="853" on="0"/>
        <pt x="530" y="895" on="1"/>
        <pt x="543" y="891" on="1"/>
      </contour>
    </TTGlyph>
    <TTGlyph name="V" xMin="6" yMin="-10" xMax="679" yMax="700">
      <contour>
        <pt x="430" y="181" on="1"/>
        <pt x="604" y="681" on="1"/>
        <pt x="526" y="681" on="1"/>
        <pt x="526" y="700" on="1"/>
        <pt x="679" y="700" on="1"/>
        <pt x="679" y="681" on="1"/>
        <pt x="632" y="681" on="1"/>
        <pt x="391" y="-10" on="1"/>
        <pt x="307" y="-10" on="1"/>
        <pt x="52" y="681" on="1"/>
        <pt x="6" y="681" on="1"/>
        <pt x="6" y="700" on="1"/>
        <pt x="333" y="700" on="1"/>
        <pt x="333" y="681" on="1"/>
        <pt x="262" y="681" on="1"/>
      </contour>
    </TTGlyph>
    <TTGlyph name="W" xMin="6" yMin="-10" xMax="1009" yMax="700">
      <contour>
        <pt x="424" y="202" on="1"/>
        <pt x="507" y="490" on="1"/>
        <pt x="447" y="681" on="1"/>
        <pt x="390" y="681" on="1"/>
        <pt x="390" y="700" on="1"/>
        <pt x="700" y="700" on="1"/>
        <pt x="700" y="681" on="1"/>
        <pt x="641" y="681" on="1"/>
        <pt x="790" y="208" on="1"/>
        <pt x="910" y="681" on="1"/>
        <pt x="809" y="681" on="1"/>
        <pt x="809" y="700" on="1"/>
        <pt x="1009" y="700" on="1"/>
        <pt x="1009" y="681" on="1"/>
        <pt x="943" y="681" on="1"/>
        <pt x="759" y="-10" on="1"/>
        <pt x="670" y="-10" on="1"/>
        <pt x="522" y="442" on="1"/>
        <pt x="392" y="-10" on="1"/>
        <pt x="305" y="-10" on="1"/>
        <pt x="53" y="681" on="1"/>
        <pt x="6" y="681" on="1"/>
        <pt x="6" y="700" on="1"/>
        <pt x="331" y="700" on="1"/>
        <pt x="331" y="681" on="1"/>
        <pt x="261" y="681" on="1"/>
      </contour>
    </TTGlyph>
    <TTGlyph name="Wacute" xMin="6" yMin="-10" xMax="1009" yMax="905">
      <contour>
        <pt x="424" y="202" on="1"/>
        <pt x="507" y="490" on="1"/>
        <pt x="447" y="681" on="1"/>
        <pt x="390" y="681" on="1"/>
        <pt x="390" y="700" on="1"/>
        <pt x="700" y="700" on="1"/>
        <pt x="700" y="681" on="1"/>
        <pt x="641" y="681" on="1"/>
        <pt x="790" y="208" on="1"/>
        <pt x="910" y="681" on="1"/>
        <pt x="809" y="681" on="1"/>
        <pt x="809" y="700" on="1"/>
        <pt x="1009" y="700" on="1"/>
        <pt x="1009" y="681" on="1"/>
        <pt x="943" y="681" on="1"/>
        <pt x="759" y="-10" on="1"/>
        <pt x="670" y="-10" on="1"/>
        <pt x="522" y="442" on="1"/>
        <pt x="392" y="-10" on="1"/>
        <pt x="305" y="-10" on="1"/>
        <pt x="53" y="681" on="1"/>
        <pt x="6" y="681" on="1"/>
        <pt x="6" y="700" on="1"/>
        <pt x="331" y="700" on="1"/>
        <pt x="331" y="681" on="1"/>
        <pt x="261" y="681" on="1"/>
      </contour>
      <contour>
        <pt x="456" y="743" on="1"/>
        <pt x="571" y="905" on="1"/>
        <pt x="619" y="901" on="1"/>
        <pt x="644" y="899" on="0"/>
        <pt x="667" y="873" on="0"/>
        <pt x="667" y="856" on="1"/>
        <pt x="667" y="816" on="0"/>
        <pt x="623" y="798" on="1"/>
        <pt x="464" y="733" on="1"/>
      </contour>
    </TTGlyph>
    <TTGlyph name="Wcircumflex" xMin="6" yMin="-10" xMax="1009" yMax="907">
      <contour>
        <pt x="424" y="202" on="1"/>
        <pt x="507" y="490" on="1"/>
        <pt x="447" y="681" on="1"/>
        <pt x="390" y="681" on="1"/>
        <pt x="390" y="700" on="1"/>
        <pt x="700" y="700" on="1"/>
        <pt x="700" y="681" on="1"/>
        <pt x="641" y="681" on="1"/>
        <pt x="790" y="208" on="1"/>
        <pt x="910" y="681" on="1"/>
        <pt x="809" y="681" on="1"/>
        <pt x="809" y="700" on="1"/>
        <pt x="1009" y="700" on="1"/>
        <pt x="1009" y="681" on="1"/>
        <pt x="943" y="681" on="1"/>
        <pt x="759" y="-10" on="1"/>
        <pt x="670" y="-10" on="1"/>
        <pt x="522" y="442" on="1"/>
        <pt x="392" y="-10" on="1"/>
        <pt x="305" y="-10" on="1"/>
        <pt x="53" y="681" on="1"/>
        <pt x="6" y="681" on="1"/>
        <pt x="6" y="700" on="1"/>
        <pt x="331" y="700" on="1"/>
        <pt x="331" y="681" on="1"/>
        <pt x="261" y="681" on="1"/>
      </contour>
      <contour>
        <pt x="392" y="743" on="1"/>
        <pt x="498" y="891" on="1"/>
        <pt x="526" y="907" on="0"/>
        <pt x="553" y="907" on="1"/>
        <pt x="600" y="907" on="0"/>
        <pt x="623" y="867" on="1"/>
        <pt x="697" y="743" on="1"/>
        <pt x="688" y="733" on="1"/>
        <pt x="546" y="801" on="1"/>
        <pt x="400" y="733" on="1"/>
      </contour>
    </TTGlyph>
    <TTGlyph name="Wdieresis" xMin="6" yMin="-10" xMax="1009" yMax="894">
      <contour>
        <pt x="424" y="202" on="1"/>
        <pt x="507" y="490" on="1"/>
        <pt x="447" y="681" on="1"/>
        <pt x="390" y="681" on="1"/>
        <pt x="390" y="700" on="1"/>
        <pt x="700" y="700" on="1"/>
        <pt x="700" y="681" on="1"/>
        <pt x="641" y="681" on="1"/>
        <pt x="790" y="208" on="1"/>
        <pt x="910" y="681" on="1"/>
        <pt x="809" y="681" on="1"/>
        <pt x="809" y="700" on="1"/>
        <pt x="1009" y="700" on="1"/>
        <pt x="1009" y="681" on="1"/>
        <pt x="943" y="681" on="1"/>
        <pt x="759" y="-10" on="1"/>
        <pt x="670" y="-10" on="1"/>
        <pt x="522" y="442" on="1"/>
        <pt x="392" y="-10" on="1"/>
        <pt x="305" y="-10" on="1"/>
        <pt x="53" y="681" on="1"/>
        <pt x="6" y="681" on="1"/>
        <pt x="6" y="700" on="1"/>
        <pt x="331" y="700" on="1"/>
        <pt x="331" y="681" on="1"/>
        <pt x="261" y="681" on="1"/>
      </contour>
      <contour>
        <pt x="566" y="790" on="0"/>
        <pt x="566" y="852" on="0"/>
        <pt x="605" y="894" on="0"/>
        <pt x="674" y="894" on="0"/>
        <pt x="715" y="857" on="0"/>
        <pt x="715" y="787" on="0"/>
        <pt x="676" y="746" on="0"/>
        <pt x="602" y="746" on="0"/>
      </contour>
      <contour>
        <pt x="373" y="790" on="0"/>
        <pt x="373" y="852" on="0"/>
        <pt x="412" y="894" on="0"/>
        <pt x="481" y="894" on="0"/>
        <pt x="522" y="857" on="0"/>
        <pt x="522" y="787" on="0"/>
        <pt x="483" y="746" on="0"/>
        <pt x="409" y="746" on="0"/>
      </contour>
    </TTGlyph>
    <TTGlyph name="Wgrave" xMin="6" yMin="-10" xMax="1009" yMax="905">
      <contour>
        <pt x="424" y="202" on="1"/>
        <pt x="507" y="490" on="1"/>
        <pt x="447" y="681" on="1"/>
        <pt x="390" y="681" on="1"/>
        <pt x="390" y="700" on="1"/>
        <pt x="700" y="700" on="1"/>
        <pt x="700" y="681" on="1"/>
        <pt x="641" y="681" on="1"/>
        <pt x="790" y="208" on="1"/>
        <pt x="910" y="681" on="1"/>
        <pt x="809" y="681" on="1"/>
        <pt x="809" y="700" on="1"/>
        <pt x="1009" y="700" on="1"/>
        <pt x="1009" y="681" on="1"/>
        <pt x="943" y="681" on="1"/>
        <pt x="759" y="-10" on="1"/>
        <pt x="670" y="-10" on="1"/>
        <pt x="522" y="442" on="1"/>
        <pt x="392" y="-10" on="1"/>
        <pt x="305" y="-10" on="1"/>
        <pt x="53" y="681" on="1"/>
        <pt x="6" y="681" on="1"/>
        <pt x="6" y="700" on="1"/>
        <pt x="331" y="700" on="1"/>
        <pt x="331" y="681" on="1"/>
        <pt x="261" y="681" on="1"/>
      </contour>
      <contour>
        <pt x="524" y="905" on="1"/>
        <pt x="639" y="743" on="1"/>
        <pt x="631" y="733" on="1"/>
        <pt x="472" y="798" on="1"/>
        <pt x="428" y="816" on="0"/>
        <pt x="428" y="856" on="1"/>
        <pt x="428" y="873" on="0"/>
        <pt x="451" y="899" on="0"/>
        <pt x="476" y="901" on="1"/>
      </contour>
    </TTGlyph>
    <TTGlyph name="X" xMin="-6" yMin="0" xMax="700" yMax="700">
      <contour>
        <pt x="700" y="0" on="1"/>
        <pt x="358" y="0" on="1"/>
        <pt x="358" y="19" on="1"/>
        <pt x="424" y="19" on="1"/>
        <pt x="275" y="283" on="1"/>
        <pt x="116" y="19" on="1"/>
        <pt x="222" y="19" on="1"/>
        <pt x="222" y="0" on="1"/>
        <pt x="15" y="0" on="1"/>
        <pt x="15" y="19" on="1"/>
        <pt x="82" y="19" on="1"/>
        <pt x="257" y="313" on="1"/>
        <pt x="48" y="680" on="1"/>
        <pt x="-6" y="680" on="1"/>
        <pt x="-6" y="700" on="1"/>
        <pt x="331" y="700" on="1"/>
        <pt x="331" y="680" on="1"/>
        <pt x="263" y="680" on="1"/>
        <pt x="398" y="438" on="1"/>
        <pt x="549" y="680" on="1"/>
        <pt x="445" y="680" on="1"/>
        <pt x="445" y="700" on="1"/>
        <pt x="650" y="700" on="1"/>
        <pt x="650" y="680" on="1"/>
        <pt x="584" y="680" on="1"/>
        <pt x="415" y="410" on="1"/>
        <pt x="642" y="19" on="1"/>
        <pt x="700" y="19" on="1"/>
      </contour>
    </TTGlyph>
    <TTGlyph name="Y" xMin="6" yMin="0" xMax="635" yMax="700">
      <contour>
        <pt x="397" y="371" on="1"/>
        <pt x="539" y="684" on="1"/>
        <pt x="438" y="684" on="1"/>
        <pt x="438" y="700" on="1"/>
        <pt x="635" y="700" on="1"/>
        <pt x="635" y="684" on="1"/>
        <pt x="569" y="684" on="1"/>
        <pt x="418" y="350" on="1"/>
        <pt x="418" y="19" on="1"/>
        <pt x="479" y="19" on="1"/>
        <pt x="479" y="0" on="1"/>
        <pt x="162" y="0" on="1"/>
        <pt x="162" y="19" on="1"/>
        <pt x="223" y="19" on="1"/>
        <pt x="223" y="331" on="1"/>
        <pt x="53" y="684" on="1"/>
        <pt x="6" y="684" on="1"/>
        <pt x="6" y="700" on="1"/>
        <pt x="326" y="700" on="1"/>
        <pt x="326" y="684" on="1"/>
        <pt x="261" y="684" on="1"/>
      </contour>
    </TTGlyph>
    <TTGlyph name="Yacute" xMin="6" yMin="0" xMax="635" yMax="905">
      <contour>
        <pt x="397" y="371" on="1"/>
        <pt x="539" y="684" on="1"/>
        <pt x="438" y="684" on="1"/>
        <pt x="438" y="700" on="1"/>
        <pt x="635" y="700" on="1"/>
        <pt x="635" y="684" on="1"/>
        <pt x="569" y="684" on="1"/>
        <pt x="418" y="350" on="1"/>
        <pt x="418" y="19" on="1"/>
        <pt x="479" y="19" on="1"/>
        <pt x="479" y="0" on="1"/>
        <pt x="162" y="0" on="1"/>
        <pt x="162" y="19" on="1"/>
        <pt x="223" y="19" on="1"/>
        <pt x="223" y="331" on="1"/>
        <pt x="53" y="684" on="1"/>
        <pt x="6" y="684" on="1"/>
        <pt x="6" y="700" on="1"/>
        <pt x="326" y="700" on="1"/>
        <pt x="326" y="684" on="1"/>
        <pt x="261" y="684" on="1"/>
      </contour>
      <contour>
        <pt x="261" y="743" on="1"/>
        <pt x="376" y="905" on="1"/>
        <pt x="424" y="901" on="1"/>
        <pt x="449" y="899" on="0"/>
        <pt x="472" y="873" on="0"/>
        <pt x="472" y="856" on="1"/>
        <pt x="472" y="816" on="0"/>
        <pt x="428" y="798" on="1"/>
        <pt x="269" y="733" on="1"/>
      </contour>
    </TTGlyph>
    <TTGlyph name="Ycircumflex" xMin="6" yMin="0" xMax="635" yMax="907">
      <contour>
        <pt x="397" y="371" on="1"/>
        <pt x="539" y="684" on="1"/>
        <pt x="438" y="684" on="1"/>
        <pt x="438" y="700" on="1"/>
        <pt x="635" y="700" on="1"/>
        <pt x="635" y="684" on="1"/>
        <pt x="569" y="684" on="1"/>
        <pt x="418" y="350" on="1"/>
        <pt x="418" y="19" on="1"/>
        <pt x="479" y="19" on="1"/>
        <pt x="479" y="0" on="1"/>
        <pt x="162" y="0" on="1"/>
        <pt x="162" y="19" on="1"/>
        <pt x="223" y="19" on="1"/>
        <pt x="223" y="331" on="1"/>
        <pt x="53" y="684" on="1"/>
        <pt x="6" y="684" on="1"/>
        <pt x="6" y="700" on="1"/>
        <pt x="326" y="700" on="1"/>
        <pt x="326" y="684" on="1"/>
        <pt x="261" y="684" on="1"/>
      </contour>
      <contour>
        <pt x="190" y="743" on="1"/>
        <pt x="296" y="891" on="1"/>
        <pt x="324" y="907" on="0"/>
        <pt x="351" y="907" on="1"/>
        <pt x="398" y="907" on="0"/>
        <pt x="421" y="867" on="1"/>
        <pt x="495" y="743" on="1"/>
        <pt x="486" y="733" on="1"/>
        <pt x="344" y="801" on="1"/>
        <pt x="198" y="733" on="1"/>
      </contour>
    </TTGlyph>
    <TTGlyph name="Ydieresis" xMin="6" yMin="0" xMax="635" yMax="894">
      <contour>
        <pt x="397" y="371" on="1"/>
        <pt x="539" y="684" on="1"/>
        <pt x="438" y="684" on="1"/>
        <pt x="438" y="700" on="1"/>
        <pt x="635" y="700" on="1"/>
        <pt x="635" y="684" on="1"/>
        <pt x="569" y="684" on="1"/>
        <pt x="418" y="350" on="1"/>
        <pt x="418" y="19" on="1"/>
        <pt x="479" y="19" on="1"/>
        <pt x="479" y="0" on="1"/>
        <pt x="162" y="0" on="1"/>
        <pt x="162" y="19" on="1"/>
        <pt x="223" y="19" on="1"/>
        <pt x="223" y="331" on="1"/>
        <pt x="53" y="684" on="1"/>
        <pt x="6" y="684" on="1"/>
        <pt x="6" y="700" on="1"/>
        <pt x="326" y="700" on="1"/>
        <pt x="326" y="684" on="1"/>
        <pt x="261" y="684" on="1"/>
      </contour>
      <contour>
        <pt x="354" y="790" on="0"/>
        <pt x="354" y="852" on="0"/>
        <pt x="393" y="894" on="0"/>
        <pt x="462" y="894" on="0"/>
        <pt x="503" y="857" on="0"/>
        <pt x="503" y="787" on="0"/>
        <pt x="464" y="746" on="0"/>
        <pt x="390" y="746" on="0"/>
      </contour>
      <contour>
        <pt x="161" y="790" on="0"/>
        <pt x="161" y="852" on="0"/>
        <pt x="200" y="894" on="0"/>
        <pt x="269" y="894" on="0"/>
        <pt x="310" y="857" on="0"/>
        <pt x="310" y="787" on="0"/>
        <pt x="271" y="746" on="0"/>
        <pt x="197" y="746" on="0"/>
      </contour>
    </TTGlyph>
    <TTGlyph name="Ygrave" xMin="6" yMin="0" xMax="635" yMax="905">
      <contour>
        <pt x="397" y="371" on="1"/>
        <pt x="539" y="684" on="1"/>
        <pt x="438" y="684" on="1"/>
        <pt x="438" y="700" on="1"/>
        <pt x="635" y="700" on="1"/>
        <pt x="635" y="684" on="1"/>
        <pt x="569" y="684" on="1"/>
        <pt x="418" y="350" on="1"/>
        <pt x="418" y="19" on="1"/>
        <pt x="479" y="19" on="1"/>
        <pt x="479" y="0" on="1"/>
        <pt x="162" y="0" on="1"/>
        <pt x="162" y="19" on="1"/>
        <pt x="223" y="19" on="1"/>
        <pt x="223" y="331" on="1"/>
        <pt x="53" y="684" on="1"/>
        <pt x="6" y="684" on="1"/>
        <pt x="6" y="700" on="1"/>
        <pt x="326" y="700" on="1"/>
        <pt x="326" y="684" on="1"/>
        <pt x="261" y="684" on="1"/>
      </contour>
      <contour>
        <pt x="290" y="905" on="1"/>
        <pt x="405" y="743" on="1"/>
        <pt x="397" y="733" on="1"/>
        <pt x="238" y="798" on="1"/>
        <pt x="194" y="816" on="0"/>
        <pt x="194" y="856" on="1"/>
        <pt x="194" y="873" on="0"/>
        <pt x="217" y="899" on="0"/>
        <pt x="242" y="901" on="1"/>
      </contour>
    </TTGlyph>
    <TTGlyph name="Z" xMin="48" yMin="0" xMax="572" yMax="700">
      <contour>
        <pt x="559" y="700" on="1"/>
        <pt x="559" y="678" on="1"/>
        <pt x="263" y="23" on="1"/>
        <pt x="297" y="23" on="1"/>
        <pt x="387" y="23" on="0"/>
        <pt x="524" y="138" on="0"/>
        <pt x="554" y="244" on="1"/>
        <pt x="572" y="244" on="1"/>
        <pt x="560" y="0" on="1"/>
        <pt x="48" y="0" on="1"/>
        <pt x="48" y="19" on="1"/>
        <pt x="347" y="678" on="1"/>
        <pt x="306" y="678" on="1"/>
        <pt x="217" y="678" on="0"/>
        <pt x="125" y="600" on="0"/>
        <pt x="67" y="479" on="1"/>
        <pt x="49" y="479" on="1"/>
        <pt x="64" y="700" on="1"/>
      </contour>
    </TTGlyph>
    <TTGlyph name="Zacute" xMin="48" yMin="0" xMax="572" yMax="905">
      <contour>
        <pt x="559" y="700" on="1"/>
        <pt x="559" y="678" on="1"/>
        <pt x="263" y="23" on="1"/>
        <pt x="297" y="23" on="1"/>
        <pt x="387" y="23" on="0"/>
        <pt x="524" y="138" on="0"/>
        <pt x="554" y="244" on="1"/>
        <pt x="572" y="244" on="1"/>
        <pt x="560" y="0" on="1"/>
        <pt x="48" y="0" on="1"/>
        <pt x="48" y="19" on="1"/>
        <pt x="347" y="678" on="1"/>
        <pt x="306" y="678" on="1"/>
        <pt x="217" y="678" on="0"/>
        <pt x="125" y="600" on="0"/>
        <pt x="67" y="479" on="1"/>
        <pt x="49" y="479" on="1"/>
        <pt x="64" y="700" on="1"/>
      </contour>
      <contour>
        <pt x="218" y="743" on="1"/>
        <pt x="333" y="905" on="1"/>
        <pt x="381" y="901" on="1"/>
        <pt x="406" y="899" on="0"/>
        <pt x="429" y="873" on="0"/>
        <pt x="429" y="856" on="1"/>
        <pt x="429" y="816" on="0"/>
        <pt x="385" y="798" on="1"/>
        <pt x="226" y="733" on="1"/>
      </contour>
    </TTGlyph>
    <TTGlyph name="Zcaron" xMin="48" yMin="0" xMax="572" yMax="919">
      <contour>
        <pt x="559" y="700" on="1"/>
        <pt x="559" y="678" on="1"/>
        <pt x="263" y="23" on="1"/>
        <pt x="297" y="23" on="1"/>
        <pt x="387" y="23" on="0"/>
        <pt x="524" y="138" on="0"/>
        <pt x="554" y="244" on="1"/>
        <pt x="572" y="244" on="1"/>
        <pt x="560" y="0" on="1"/>
        <pt x="48" y="0" on="1"/>
        <pt x="48" y="19" on="1"/>
        <pt x="347" y="678" on="1"/>
        <pt x="306" y="678" on="1"/>
        <pt x="217" y="678" on="0"/>
        <pt x="125" y="600" on="0"/>
        <pt x="67" y="479" on="1"/>
        <pt x="49" y="479" on="1"/>
        <pt x="64" y="700" on="1"/>
      </contour>
      <contour>
        <pt x="466" y="909" on="1"/>
        <pt x="360" y="761" on="1"/>
        <pt x="332" y="745" on="0"/>
        <pt x="305" y="745" on="1"/>
        <pt x="258" y="745" on="0"/>
        <pt x="235" y="785" on="1"/>
        <pt x="161" y="909" on="1"/>
        <pt x="170" y="919" on="1"/>
        <pt x="312" y="851" on="1"/>
        <pt x="458" y="919" on="1"/>
      </contour>
    </TTGlyph>
    <TTGlyph name="Zdotaccent" xMin="48" yMin="0" xMax="572" yMax="939">
      <contour>
        <pt x="559" y="700" on="1"/>
        <pt x="559" y="678" on="1"/>
        <pt x="263" y="23" on="1"/>
        <pt x="297" y="23" on="1"/>
        <pt x="387" y="23" on="0"/>
        <pt x="524" y="138" on="0"/>
        <pt x="554" y="244" on="1"/>
        <pt x="572" y="244" on="1"/>
        <pt x="560" y="0" on="1"/>
        <pt x="48" y="0" on="1"/>
        <pt x="48" y="19" on="1"/>
        <pt x="347" y="678" on="1"/>
        <pt x="306" y="678" on="1"/>
        <pt x="217" y="678" on="0"/>
        <pt x="125" y="600" on="0"/>
        <pt x="67" y="479" on="1"/>
        <pt x="49" y="479" on="1"/>
        <pt x="64" y="700" on="1"/>
      </contour>
      <contour>
        <pt x="255" y="753" on="0"/>
        <pt x="210" y="807" on="0"/>
        <pt x="210" y="887" on="0"/>
        <pt x="259" y="939" on="0"/>
        <pt x="359" y="939" on="0"/>
        <pt x="411" y="892" on="0"/>
        <pt x="411" y="805" on="0"/>
        <pt x="361" y="753" on="0"/>
      </contour>
    </TTGlyph>
    <TTGlyph name="a" xMin="20" yMin="-10" xMax="549" yMax="486">
      <contour>
        <pt x="250" y="235" on="1"/>
        <pt x="279" y="235" on="1"/>
        <pt x="279" y="312" on="1"/>
        <pt x="279" y="407" on="0"/>
        <pt x="258" y="472" on="0"/>
        <pt x="228" y="472" on="1"/>
        <pt x="210" y="472" on="0"/>
        <pt x="181" y="453" on="0"/>
        <pt x="181" y="420" on="0"/>
        <pt x="187" y="403" on="1"/>
        <pt x="212" y="403" on="1"/>
        <pt x="220" y="382" on="0"/>
        <pt x="220" y="323" on="0"/>
        <pt x="170" y="280" on="0"/>
        <pt x="132" y="280" on="1"/>
        <pt x="46" y="280" on="0"/>
        <pt x="46" y="363" on="1"/>
        <pt x="46" y="486" on="0"/>
        <pt x="255" y="486" on="1"/>
        <pt x="374" y="486" on="0"/>
        <pt x="465" y="405" on="0"/>
        <pt x="465" y="297" on="1"/>
        <pt x="465" y="94" on="1"/>
        <pt x="465" y="42" on="0"/>
        <pt x="494" y="42" on="1"/>
        <pt x="528" y="42" on="0"/>
        <pt x="534" y="145" on="1"/>
        <pt x="549" y="144" on="1"/>
        <pt x="545" y="56" on="0"/>
        <pt x="487" y="-10" on="0"/>
        <pt x="421" y="-10" on="1"/>
        <pt x="301" y="-10" on="0"/>
        <pt x="283" y="64" on="1"/>
        <pt x="270" y="26" on="0"/>
        <pt x="218" y="-10" on="0"/>
        <pt x="168" y="-10" on="1"/>
        <pt x="20" y="-10" on="0"/>
        <pt x="20" y="111" on="1"/>
        <pt x="20" y="182" on="0"/>
        <pt x="133" y="235" on="0"/>
      </contour>
      <contour>
        <pt x="210" y="60" on="0"/>
        <pt x="221" y="30" on="0"/>
        <pt x="252" y="30" on="0"/>
        <pt x="279" y="81" on="0"/>
        <pt x="279" y="126" on="1"/>
        <pt x="279" y="219" on="1"/>
        <pt x="272" y="219" on="1"/>
        <pt x="210" y="219" on="0"/>
        <pt x="210" y="128" on="1"/>
        <pt x="210" y="112" on="1"/>
      </contour>
    </TTGlyph>
    <TTGlyph name="aacute" xMin="20" yMin="-10" xMax="549" yMax="748">
      <contour>
        <pt x="250" y="235" on="1"/>
        <pt x="279" y="235" on="1"/>
        <pt x="279" y="312" on="1"/>
        <pt x="279" y="407" on="0"/>
        <pt x="258" y="472" on="0"/>
        <pt x="228" y="472" on="1"/>
        <pt x="210" y="472" on="0"/>
        <pt x="181" y="453" on="0"/>
        <pt x="181" y="420" on="0"/>
        <pt x="187" y="403" on="1"/>
        <pt x="212" y="403" on="1"/>
        <pt x="220" y="382" on="0"/>
        <pt x="220" y="323" on="0"/>
        <pt x="170" y="280" on="0"/>
        <pt x="132" y="280" on="1"/>
        <pt x="46" y="280" on="0"/>
        <pt x="46" y="363" on="1"/>
        <pt x="46" y="486" on="0"/>
        <pt x="255" y="486" on="1"/>
        <pt x="374" y="486" on="0"/>
        <pt x="465" y="405" on="0"/>
        <pt x="465" y="297" on="1"/>
        <pt x="465" y="94" on="1"/>
        <pt x="465" y="42" on="0"/>
        <pt x="494" y="42" on="1"/>
        <pt x="528" y="42" on="0"/>
        <pt x="534" y="145" on="1"/>
        <pt x="549" y="144" on="1"/>
        <pt x="545" y="56" on="0"/>
        <pt x="487" y="-10" on="0"/>
        <pt x="421" y="-10" on="1"/>
        <pt x="301" y="-10" on="0"/>
        <pt x="283" y="64" on="1"/>
        <pt x="270" y="26" on="0"/>
        <pt x="218" y="-10" on="0"/>
        <pt x="168" y="-10" on="1"/>
        <pt x="20" y="-10" on="0"/>
        <pt x="20" y="111" on="1"/>
        <pt x="20" y="182" on="0"/>
        <pt x="133" y="235" on="0"/>
      </contour>
      <contour>
        <pt x="210" y="60" on="0"/>
        <pt x="221" y="30" on="0"/>
        <pt x="252" y="30" on="0"/>
        <pt x="279" y="81" on="0"/>
        <pt x="279" y="126" on="1"/>
        <pt x="279" y="219" on="1"/>
        <pt x="272" y="219" on="1"/>
        <pt x="210" y="219" on="0"/>
        <pt x="210" y="128" on="1"/>
        <pt x="210" y="112" on="1"/>
      </contour>
      <contour>
        <pt x="188" y="547" on="1"/>
        <pt x="251" y="738" on="1"/>
        <pt x="298" y="748" on="1"/>
        <pt x="329" y="755" on="0"/>
        <pt x="362" y="726" on="0"/>
        <pt x="362" y="677" on="0"/>
        <pt x="333" y="651" on="1"/>
        <pt x="199" y="540" on="1"/>
      </contour>
    </TTGlyph>
    <TTGlyph name="abreve" xMin="20" yMin="-10" xMax="549" yMax="724">
      <component glyphName="a" x="0" y="0" flags="0x1004"/>
      <component glyphName="breve" x="7" y="15" flags="0x1004"/>
    </TTGlyph>
    <TTGlyph name="acircumflex" xMin="20" yMin="-10" xMax="549" yMax="738">
      <component glyphName="a" x="0" y="0" flags="0x1004"/>
      <component glyphName="circumflex" x="3" y="0" flags="0x1004"/>
    </TTGlyph>
    <TTGlyph name="acute" xMin="163" yMin="525" xMax="337" yMax="733">
      <contour>
        <pt x="163" y="532" on="1"/>
        <pt x="226" y="723" on="1"/>
        <pt x="273" y="733" on="1"/>
        <pt x="304" y="740" on="0"/>
        <pt x="337" y="711" on="0"/>
        <pt x="337" y="662" on="0"/>
        <pt x="308" y="636" on="1"/>
        <pt x="174" y="525" on="1"/>
      </contour>
    </TTGlyph>
    <TTGlyph name="acute.cap" xMin="160" yMin="733" xMax="371" yMax="905">
      <contour>
        <pt x="160" y="743" on="1"/>
        <pt x="275" y="905" on="1"/>
        <pt x="323" y="901" on="1"/>
        <pt x="348" y="899" on="0"/>
        <pt x="371" y="873" on="0"/>
        <pt x="371" y="856" on="1"/>
        <pt x="371" y="816" on="0"/>
        <pt x="327" y="798" on="1"/>
        <pt x="168" y="733" on="1"/>
      </contour>
    </TTGlyph>
    <TTGlyph name="adieresis" xMin="20" yMin="-10" xMax="549" yMax="706">
      <component glyphName="a" x="0" y="0" flags="0x1004"/>
      <component glyphName="dieresis" x="-12" y="15" flags="0x1004"/>
    </TTGlyph>
    <TTGlyph name="ae" xMin="20" yMin="-10" xMax="746" yMax="486">
      <contour>
        <pt x="279" y="235" on="1"/>
        <pt x="279" y="312" on="1"/>
        <pt x="279" y="407" on="0"/>
        <pt x="258" y="472" on="0"/>
        <pt x="228" y="472" on="1"/>
        <pt x="210" y="472" on="0"/>
        <pt x="181" y="453" on="0"/>
        <pt x="181" y="420" on="0"/>
        <pt x="187" y="403" on="1"/>
        <pt x="212" y="403" on="1"/>
        <pt x="220" y="382" on="0"/>
        <pt x="220" y="323" on="0"/>
        <pt x="170" y="280" on="0"/>
        <pt x="132" y="280" on="1"/>
        <pt x="46" y="280" on="0"/>
        <pt x="46" y="363" on="1"/>
        <pt x="46" y="424" on="0"/>
        <pt x="150" y="486" on="0"/>
        <pt x="237" y="486" on="1"/>
        <pt x="346" y="486" on="0"/>
        <pt x="389" y="423" on="1"/>
        <pt x="436" y="486" on="0"/>
        <pt x="541" y="486" on="1"/>
        <pt x="755" y="486" on="0"/>
        <pt x="746" y="258" on="1"/>
        <pt x="464" y="258" on="1"/>
        <pt x="464" y="219" on="1"/>
        <pt x="464" y="121" on="0"/>
        <pt x="514" y="21" on="0"/>
        <pt x="576" y="21" on="1"/>
        <pt x="692" y="21" on="0"/>
        <pt x="728" y="145" on="1"/>
        <pt x="746" y="142" on="1"/>
        <pt x="727" y="70" on="0"/>
        <pt x="628" y="-10" on="0"/>
        <pt x="529" y="-10" on="1"/>
        <pt x="390" y="-10" on="0"/>
        <pt x="328" y="70" on="1"/>
        <pt x="294" y="-10" on="0"/>
        <pt x="173" y="-10" on="1"/>
        <pt x="20" y="-10" on="0"/>
        <pt x="20" y="111" on="1"/>
        <pt x="20" y="182" on="0"/>
        <pt x="133" y="235" on="0"/>
        <pt x="250" y="235" on="1"/>
      </contour>
      <contour>
        <pt x="465" y="278" on="1"/>
        <pt x="568" y="278" on="1"/>
        <pt x="568" y="327" on="1"/>
        <pt x="568" y="408" on="0"/>
        <pt x="549" y="467" on="0"/>
        <pt x="492" y="467" on="0"/>
        <pt x="465" y="404" on="0"/>
        <pt x="465" y="327" on="1"/>
      </contour>
      <contour>
        <pt x="210" y="62" on="0"/>
        <pt x="229" y="30" on="0"/>
        <pt x="266" y="30" on="0"/>
        <pt x="305" y="59" on="0"/>
        <pt x="314" y="89" on="1"/>
        <pt x="282" y="141" on="0"/>
        <pt x="279" y="218" on="1"/>
        <pt x="279" y="219" on="1"/>
        <pt x="272" y="219" on="1"/>
        <pt x="210" y="219" on="0"/>
        <pt x="210" y="128" on="1"/>
        <pt x="210" y="112" on="1"/>
      </contour>
    </TTGlyph>
    <TTGlyph name="aeacute" xMin="20" yMin="-10" xMax="746" yMax="733">
      <component glyphName="ae" x="0" y="0" flags="0x1004"/>
      <component glyphName="acute" x="197" y="0" flags="0x1004"/>
    </TTGlyph>
</ttFont>
